<?xml version="1.0" encoding="UTF-8"?>
<svg id="Capa_2" data-name="Capa 2" xmlns="http://www.w3.org/2000/svg" xmlns:xlink="http://www.w3.org/1999/xlink" viewBox="0 0 465.47 375.18">
  <defs>
    <style>
      .cls-1 {
        fill: url(#Degradado_sin_nombre_28-15);
      }

      .cls-2 {
        fill: url(#Degradado_sin_nombre_47-15);
      }

      .cls-3 {
        clip-path: url(#clippath-45);
      }

      .cls-4 {
        fill: url(#Degradado_sin_nombre_28);
      }

      .cls-5 {
        clip-path: url(#clippath-20);
      }

      .cls-6 {
        clip-path: url(#clippath-11);
      }

      .cls-7 {
        clip-path: url(#clippath-16);
      }

      .cls-8 {
        clip-path: url(#clippath-33);
      }

      .cls-9 {
        clip-path: url(#clippath-47);
      }

      .cls-10 {
        fill: url(#Degradado_sin_nombre_28-10);
      }

      .cls-11 {
        fill: url(#Degradado_sin_nombre_28-12);
      }

      .cls-12 {
        fill: url(#Degradado_sin_nombre_47);
      }

      .cls-13 {
        fill: url(#Degradado_sin_nombre_28-3);
      }

      .cls-14 {
        clip-path: url(#clippath-41);
      }

      .cls-15 {
        clip-path: url(#clippath-32);
      }

      .cls-16 {
        fill: url(#Degradado_sin_nombre_28-9);
      }

      .cls-17 {
        fill: url(#Degradado_sin_nombre_23-7);
      }

      .cls-18 {
        fill: url(#Degradado_sin_nombre_28-4);
      }

      .cls-19 {
        clip-path: url(#clippath-13);
      }

      .cls-20 {
        clip-path: url(#clippath-37);
      }

      .cls-21 {
        clip-path: url(#clippath-46);
      }

      .cls-22 {
        clip-path: url(#clippath-25);
      }

      .cls-23 {
        fill: url(#Degradado_sin_nombre_28-6);
      }

      .cls-24 {
        fill: url(#Degradado_sin_nombre_47-7);
      }

      .cls-25 {
        clip-path: url(#clippath-15);
      }

      .cls-26 {
        fill: url(#Degradado_sin_nombre_47-11);
      }

      .cls-27 {
        clip-path: url(#clippath-6);
      }

      .cls-28 {
        fill: url(#Degradado_sin_nombre_23-8);
      }

      .cls-29 {
        clip-path: url(#clippath-40);
      }

      .cls-30 {
        clip-path: url(#clippath-26);
      }

      .cls-31 {
        fill: url(#Degradado_sin_nombre_28-2);
      }

      .cls-32 {
        fill: url(#Degradado_sin_nombre_28-14);
      }

      .cls-33 {
        clip-path: url(#clippath-7);
      }

      .cls-34 {
        clip-path: url(#clippath-21);
      }

      .cls-35 {
        fill: url(#Degradado_sin_nombre_23-11);
      }

      .cls-36 {
        clip-path: url(#clippath-34);
      }

      .cls-37 {
        clip-path: url(#clippath-1);
      }

      .cls-38 {
        clip-path: url(#clippath-4);
      }

      .cls-39 {
        clip-path: url(#clippath-38);
      }

      .cls-40 {
        fill: url(#Degradado_sin_nombre_47-14);
      }

      .cls-41 {
        clip-path: url(#clippath-36);
      }

      .cls-42 {
        clip-path: url(#clippath-27);
      }

      .cls-43 {
        fill: url(#Degradado_sin_nombre_47-17);
      }

      .cls-44 {
        fill: url(#Degradado_sin_nombre_28-13);
      }

      .cls-45 {
        fill: url(#Degradado_sin_nombre_23-10);
      }

      .cls-46 {
        clip-path: url(#clippath-44);
      }

      .cls-47 {
        fill: url(#Degradado_sin_nombre_28-8);
      }

      .cls-48 {
        fill: url(#Degradado_sin_nombre_28-5);
      }

      .cls-49 {
        clip-path: url(#clippath-12);
      }

      .cls-50 {
        fill: url(#Degradado_sin_nombre_47-10);
      }

      .cls-51 {
        fill: url(#Degradado_sin_nombre_28-11);
      }

      .cls-52 {
        clip-path: url(#clippath-24);
      }

      .cls-53 {
        clip-path: url(#clippath-30);
      }

      .cls-54 {
        fill: url(#Degradado_sin_nombre_47-8);
      }

      .cls-55 {
        clip-path: url(#clippath-22);
      }

      .cls-56 {
        fill: url(#Degradado_sin_nombre_47-9);
      }

      .cls-57 {
        clip-path: url(#clippath-9);
      }

      .cls-58 {
        clip-path: url(#clippath);
      }

      .cls-59 {
        clip-path: url(#clippath-50);
      }

      .cls-60 {
        clip-path: url(#clippath-48);
      }

      .cls-61 {
        fill: url(#Degradado_sin_nombre_47-13);
      }

      .cls-62 {
        fill: url(#Degradado_sin_nombre_47-4);
      }

      .cls-63 {
        clip-path: url(#clippath-39);
      }

      .cls-64 {
        fill: none;
      }

      .cls-65 {
        fill: url(#Degradado_sin_nombre_47-5);
      }

      .cls-66 {
        clip-path: url(#clippath-19);
      }

      .cls-67 {
        clip-path: url(#clippath-31);
      }

      .cls-68 {
        fill: url(#Degradado_sin_nombre_47-16);
      }

      .cls-69 {
        clip-path: url(#clippath-3);
      }

      .cls-70 {
        fill: url(#Degradado_sin_nombre_23-9);
      }

      .cls-71 {
        fill: url(#Degradado_sin_nombre_47-2);
      }

      .cls-72 {
        clip-path: url(#clippath-43);
      }

      .cls-73 {
        clip-path: url(#clippath-8);
      }

      .cls-74 {
        clip-path: url(#clippath-29);
      }

      .cls-75 {
        clip-path: url(#clippath-18);
      }

      .cls-76 {
        clip-path: url(#clippath-14);
      }

      .cls-77 {
        clip-path: url(#clippath-17);
      }

      .cls-78 {
        fill: url(#Degradado_sin_nombre_23-4);
      }

      .cls-79 {
        clip-path: url(#clippath-5);
      }

      .cls-80 {
        clip-path: url(#clippath-42);
      }

      .cls-81 {
        fill: url(#Degradado_sin_nombre_47-18);
      }

      .cls-82 {
        fill: url(#Degradado_sin_nombre_23-12);
      }

      .cls-83 {
        fill: url(#Degradado_sin_nombre_28-7);
      }

      .cls-84 {
        clip-path: url(#clippath-10);
      }

      .cls-85 {
        clip-path: url(#clippath-23);
      }

      .cls-86 {
        fill: url(#Degradado_sin_nombre_47-12);
      }

      .cls-87 {
        fill: url(#Degradado_sin_nombre_23-6);
      }

      .cls-88 {
        clip-path: url(#clippath-49);
      }

      .cls-89 {
        fill: url(#Degradado_sin_nombre_47-6);
      }

      .cls-90 {
        fill: url(#Degradado_sin_nombre_23-3);
      }

      .cls-91 {
        fill: url(#Degradado_sin_nombre_23);
      }

      .cls-92 {
        fill: url(#Degradado_sin_nombre_23-2);
      }

      .cls-93 {
        clip-path: url(#clippath-51);
      }

      .cls-94 {
        clip-path: url(#clippath-28);
      }

      .cls-95 {
        fill: url(#Degradado_sin_nombre_47-19);
      }

      .cls-96 {
        fill: url(#Degradado_sin_nombre_23-5);
      }

      .cls-97 {
        fill: url(#Degradado_sin_nombre_47-3);
      }

      .cls-98 {
        clip-path: url(#clippath-35);
      }
    </style>
    <clipPath id="clippath">
      <rect class="cls-64" width="465.47" height="375.18"/>
    </clipPath>
    <clipPath id="clippath-1">
      <rect class="cls-64" x="-159.81" y="-137.27" width="793.7" height="623.62"/>
    </clipPath>
    <clipPath id="clippath-3">
      <rect class="cls-64" x="-159.81" y="-137.27" width="793.7" height="623.62"/>
    </clipPath>
    <clipPath id="clippath-4">
      <path class="cls-64" d="m89.85,298.45l5.21,12.98h-10.65l5.44-12.98Zm.07-4.86c0,.89-1.6,4.17-1.6,4.17l-9.8,21.77c-.88,1.8-2.47,2.54-3.79,2.54h-.39v.4h8.7v-.4h-.38c-1.11,0-2.26-.91-1.65-2.51l2.9-6.92h11.65l2.76,6.89c.63,1.62-.53,2.54-1.64,2.54h-.38v.4h9.74v-.4h-.36c-1.32,0-2.92-.75-3.8-2.55l-11.56-25.93h-.39Z"/>
    </clipPath>
    <linearGradient id="Degradado_sin_nombre_28" data-name="Degradado sin nombre 28" x1="-8168.25" y1="426.15" x2="-8167.25" y2="426.15" gradientTransform="translate(2719831.03 142200.28) scale(332.97 -332.97)" gradientUnits="userSpaceOnUse">
      <stop offset="0" stop-color="#213361"/>
      <stop offset=".01" stop-color="#213361"/>
      <stop offset=".47" stop-color="#127bc0"/>
      <stop offset="1" stop-color="#213361"/>
    </linearGradient>
    <clipPath id="clippath-5">
      <path class="cls-64" d="m127.86,299.42h2.94c3.79,0,6.01,1.45,6.01,4.84,0,4.45-4.45,4.99-7.59,4.99v.4c4.67,0,10.04.87,10.04,6.03,0,3.86-2.83,5.58-6.56,5.58h-4.85v-21.85Zm-5.82-.81h.51c1.45,0,2.55.86,2.59,2.17v19.11c-.04,1.2-1.13,2.18-2.59,2.18h-.51v.4s10.69,0,10.69,0c4.26,0,9.63-1.52,9.63-6.79,0-3.25-3.08-5.94-7.26-6.41,2.37-.53,4.75-2.51,4.75-5.01,0-5.38-5.89-6.05-9-6.05h-8.82s0,.4,0,.4Z"/>
    </clipPath>
    <linearGradient id="Degradado_sin_nombre_28-2" data-name="Degradado sin nombre 28" x1="-8168.25" y1="426.14" x2="-8167.25" y2="426.14" xlink:href="#Degradado_sin_nombre_28"/>
    <clipPath id="clippath-6">
      <path class="cls-64" d="m163.99,310.34c0-6.84,5.03-11.49,11.39-11.49s11.38,4.65,11.38,11.49-5.03,11.49-11.38,11.49-11.39-4.65-11.39-11.49m-3.2,0c0,7.52,6.52,12.7,14.59,12.7s14.59-5.18,14.59-12.7-6.52-12.7-14.59-12.7-14.59,5.18-14.59,12.7"/>
    </clipPath>
    <linearGradient id="Degradado_sin_nombre_28-3" data-name="Degradado sin nombre 28" x1="-8168.25" y1="426.14" x2="-8167.25" y2="426.14" xlink:href="#Degradado_sin_nombre_28"/>
    <clipPath id="clippath-7">
      <path class="cls-64" d="m208.35,310.34c0,7.84,5.64,12.66,14.18,12.7,6.09,0,10.3-2.83,12.31-5.21v-4.87c0-1.04.71-1.61,1.97-1.61h.59v-.4h-7.93v.4h.62c1.26,0,2.03.57,2.01,1.59l-.07,5.38c-2.71,2.47-5.9,3.51-9.5,3.51-6.63,0-11.06-4.39-11.06-11.49s4.4-11.49,11-11.49c6.05,0,9.45,2.22,10.7,6.95h.38l-.95-5.71c-2.92-1.67-6.11-2.45-10.09-2.45-8.52,0-14.17,4.83-14.17,12.7"/>
    </clipPath>
    <linearGradient id="Degradado_sin_nombre_28-4" data-name="Degradado sin nombre 28" x1="-8168.25" y1="426.14" x2="-8167.25" y2="426.14" xlink:href="#Degradado_sin_nombre_28"/>
    <clipPath id="clippath-8">
      <path class="cls-64" d="m266.49,301.98l4.86,11.07h-9.86l5-11.07Zm.01-4.34c-.09,1.06-1.68,4.17-1.66,4.17l-8.95,17.93c-.89,1.65-2.24,2.34-3.39,2.34h-.34v.4h8.24v-.4h-.34c-1.01,0-2.15-.92-1.48-2.54l2.38-5.27h10.94l2.36,5.38c.57,1.55-.54,2.43-1.53,2.43h-.34v.4h8.88v-.4h-.33c-1.15,0-2.45-.69-3.34-2.36l-10.67-22.08h-.41Z"/>
    </clipPath>
    <linearGradient id="Degradado_sin_nombre_28-5" data-name="Degradado sin nombre 28" x1="-8168.25" y1="426.14" x2="-8167.25" y2="426.14" xlink:href="#Degradado_sin_nombre_28"/>
    <clipPath id="clippath-9">
      <path class="cls-64" d="m303.34,299.42h8.62c6.64,0,10.75,4.15,10.75,10.93s-4.11,10.89-10.75,10.89h-8.62v-21.83Zm-5.81-.82h.53c1.36,0,2.42.9,2.47,2.18v19.09c-.04,1.21-1.06,2.2-2.43,2.2h-.57v.4s14.41,0,14.41,0c8.53,0,13.9-4.61,13.9-12.12s-5.37-12.15-13.9-12.15h-14.42s0,.4,0,.4Z"/>
    </clipPath>
    <linearGradient id="Degradado_sin_nombre_28-6" data-name="Degradado sin nombre 28" x1="-8168.25" y1="426.14" x2="-8167.25" y2="426.14" xlink:href="#Degradado_sin_nombre_28"/>
    <clipPath id="clippath-10">
      <path class="cls-64" d="m347.47,310.34c0-6.84,5.03-11.49,11.39-11.49s11.39,4.65,11.39,11.49-5.03,11.49-11.39,11.49-11.39-4.65-11.39-11.49m-3.2,0c0,7.52,6.52,12.7,14.59,12.7s14.59-5.18,14.59-12.7-6.52-12.7-14.59-12.7-14.59,5.18-14.59,12.7"/>
    </clipPath>
    <linearGradient id="Degradado_sin_nombre_28-7" data-name="Degradado sin nombre 28" x1="-8168.25" y1="426.14" x2="-8167.25" y2="426.14" xlink:href="#Degradado_sin_nombre_28"/>
    <clipPath id="clippath-11">
      <path class="cls-64" d="m392.65,303.54c.02,1.4.46,3.09,2.07,4.37l8.65,6.24c1.11.91,1.57,1.94,1.57,3.2,0,2.63-2.19,4.37-5.76,4.47-3.81.1-6.44-2.07-6.05-5.72h-.5c-.59,1.56-.7,3.95-.43,5.02,1.58,1.32,4.9,1.9,7.46,1.9,4.27,0,7.69-2.9,7.65-6.51-.01-1.57-.62-3.3-1.96-4.35l-8.75-6.31c-1.35-1.02-1.69-2.14-1.7-3.19-.02-2.15,2.31-3.86,5.2-3.86,3.39,0,4.99,1.34,4.99,3.58h.5l-.07-4.4h-1.45c-.97-.21-2.29-.38-4.28-.38-4,0-7.2,2.62-7.15,5.91"/>
    </clipPath>
    <linearGradient id="Degradado_sin_nombre_28-8" data-name="Degradado sin nombre 28" x1="-8168.25" y1="426.14" x2="-8167.25" y2="426.14" xlink:href="#Degradado_sin_nombre_28"/>
    <clipPath id="clippath-12">
      <rect class="cls-64" x="-159.81" y="-137.27" width="793.7" height="623.62"/>
    </clipPath>
    <clipPath id="clippath-13">
      <path class="cls-64" d="m35.64,210.1v1.68c1.21.35,2.06.8,2.53,1.36.47.56.71,1.38.71,2.46v60.51c0,1.08-.24,1.9-.71,2.46-.47.56-1.32,1.01-2.53,1.36v1.68h60.76c1.04,0,1.84.24,2.38.73.54.49.98,1.36,1.32,2.62h1.62v-18.5h-1.62c-.34,1.26-.78,2.13-1.32,2.62-.54.49-1.33.73-2.38.73h-42.45v-54.23c0-1.08.24-1.91.71-2.49.47-.58,1.31-1.02,2.53-1.34v-1.68h-21.55Z"/>
    </clipPath>
    <linearGradient id="Degradado_sin_nombre_23" data-name="Degradado sin nombre 23" x1="-8172.33" y1="426.17" x2="-8171.33" y2="426.17" gradientTransform="translate(3275236.74 171044.39) scale(400.77 -400.77)" gradientUnits="userSpaceOnUse">
      <stop offset="0" stop-color="#b8873c"/>
      <stop offset=".24" stop-color="#bc893c"/>
      <stop offset=".4" stop-color="#dcbe64"/>
      <stop offset=".53" stop-color="#f4e581"/>
      <stop offset=".77" stop-color="#f5e366"/>
      <stop offset=".8" stop-color="#edd961"/>
      <stop offset=".86" stop-color="#dac056"/>
      <stop offset=".93" stop-color="#ba9744"/>
      <stop offset="1" stop-color="#996d32"/>
    </linearGradient>
    <clipPath id="clippath-14">
      <path class="cls-64" d="m162.69,219.58c-.34,1.26-.78,2.13-1.34,2.62-.56.49-1.38.73-2.45.73h-51.2v1.47c1.21.38,2.06.86,2.53,1.42.47.56.71,1.38.71,2.46v47.99c0,1.08-.24,1.92-.73,2.51-.49.59-1.32,1.05-2.51,1.36v1.47h52.77c1.05,0,1.86.25,2.43.76.57.51,1.01,1.37,1.32,2.59h1.42v-17.34h-1.42c-.34,1.27-.78,2.15-1.34,2.63-.56.48-1.36.72-2.4.72h-35.97v-14.3h21.35c1.08,0,1.9.25,2.45.75.56.5,1,1.37,1.34,2.6h1.37v-16.92h-1.37c-.37,1.26-.83,2.13-1.39,2.62-.56.49-1.36.73-2.4.73h-21.35v-12.89h34.41c1.08,0,1.9.24,2.45.72.56.48,1,1.36,1.34,2.63h1.37v-17.34h-1.37Z"/>
    </clipPath>
    <linearGradient id="Degradado_sin_nombre_23-2" data-name="Degradado sin nombre 23" x1="-8172.33" y1="426.16" x2="-8171.33" y2="426.16" xlink:href="#Degradado_sin_nombre_23"/>
    <clipPath id="clippath-15">
      <path class="cls-64" d="m179.08,234.15c-4.12,5.38-6.17,11.53-6.17,18.44,0,4.99,1.13,9.69,3.39,14.09,1.92,3.7,4.45,6.81,7.59,9.33,5.8,4.57,13.39,6.86,22.77,6.86,10.86,0,21.76-3.13,32.68-9.38v-1.21c-1.18-.35-2.02-.82-2.5-1.41-.49-.59-.73-1.43-.73-2.51v-12.36c0-1.22.24-2.17.73-2.83.49-.66,1.32-1.17,2.5-1.52v-1.52h-26.97c-1.08,0-1.9-.25-2.45-.75-.56-.5-1-1.36-1.34-2.61h-1.36v15.56h1.36c.34-1.26.79-2.13,1.34-2.62.56-.49,1.38-.73,2.45-.73h12.9v8.96c-4.55,2.55-10.14,3.82-16.75,3.82-6.95,0-12.35-1.76-16.19-5.29-3.74-3.46-5.62-8.07-5.62-13.83,0-6.15,2.05-11.04,6.17-14.67,3.91-3.46,8.92-5.19,15.02-5.19,5.29,0,10.25,1.28,14.87,3.83,2.49,1.36,3.74,2.69,3.74,3.98v.32l1.21.63,6.76-14.78-1.21-.68c-.78.56-1.45.84-2.02.84-.47,0-2.11-.49-4.91-1.47-7.05-2.52-13.32-3.77-18.82-3.77-12.55,0-22.03,4.16-28.43,12.47"/>
    </clipPath>
    <linearGradient id="Degradado_sin_nombre_23-3" data-name="Degradado sin nombre 23" x1="-8172.33" y1="426.16" x2="-8171.33" y2="426.16" xlink:href="#Degradado_sin_nombre_23"/>
    <clipPath id="clippath-16">
      <path class="cls-64" d="m276.66,239.85l9.28,18.88h-18.11l8.83-18.88Zm-10.2-16.91v1.47c1.89.8,2.83,1.92,2.83,3.35,0,1.22-.39,2.66-1.16,4.3l-20.69,43.38c-.84,1.75-1.58,2.92-2.2,3.51-.62.59-1.58,1-2.86,1.21v1.47h20.82v-1.47c-2.16-.45-3.24-1.52-3.24-3.2,0-.87.35-2.08,1.06-3.62l2.94-6.39h26.06l3.13,6c.84,1.6,1.26,2.94,1.26,4.02,0,1.74-1.1,2.8-3.28,3.18v1.47h23.15v-1.47c-1.38-.28-2.41-.75-3.09-1.43-.67-.68-1.6-2.15-2.78-4.44l-21.45-42.07c-.84-1.68-1.27-3.09-1.27-4.24,0-1.61.93-2.79,2.78-3.56v-1.47h-22.01Z"/>
    </clipPath>
    <linearGradient id="Degradado_sin_nombre_23-4" data-name="Degradado sin nombre 23" x1="-8172.33" y1="426.16" x2="-8171.33" y2="426.16" xlink:href="#Degradado_sin_nombre_23"/>
    <clipPath id="clippath-17">
      <path class="cls-64" d="m318.98,222.94v1.47c1.21.38,2.06.86,2.53,1.42.47.56.71,1.38.71,2.46v47.99c0,1.08-.24,1.92-.73,2.51-.49.59-1.32,1.05-2.5,1.36v1.47h48.52c1.08,0,1.9.24,2.45.73.56.49,1,1.36,1.34,2.62h1.37v-17.34h-1.37c-.37,1.27-.83,2.15-1.37,2.63-.54.48-1.35.72-2.43.72h-31.72v-42.7c0-1.08.24-1.91.71-2.49.47-.58,1.32-1.04,2.53-1.39v-1.47h-20.04Z"/>
    </clipPath>
    <linearGradient id="Degradado_sin_nombre_23-5" data-name="Degradado sin nombre 23" x1="-8172.33" y1="426.16" x2="-8171.33" y2="426.16" xlink:href="#Degradado_sin_nombre_23"/>
    <clipPath id="clippath-18">
      <path class="cls-64" d="m433.48,219.58c-.34,1.26-.78,2.13-1.34,2.62-.56.49-1.38.73-2.45.73h-51.2v1.47c1.21.38,2.06.86,2.53,1.42.47.56.71,1.38.71,2.46v47.99c0,1.08-.25,1.92-.73,2.51-.49.59-1.33,1.05-2.51,1.36v1.47h52.77c1.04,0,1.85.25,2.43.76.57.51,1.01,1.37,1.32,2.59h1.42v-17.34h-1.42c-.34,1.27-.78,2.15-1.34,2.63-.56.48-1.36.72-2.4.72h-35.97v-14.3h21.35c1.08,0,1.9.25,2.45.75.56.5,1,1.37,1.34,2.6h1.37v-16.92h-1.37c-.37,1.26-.83,2.13-1.39,2.62-.56.49-1.36.73-2.4.73h-21.35v-12.89h34.41c1.08,0,1.9.24,2.45.72.56.48,1,1.36,1.34,2.63h1.37v-17.34h-1.37Z"/>
    </clipPath>
    <linearGradient id="Degradado_sin_nombre_23-6" data-name="Degradado sin nombre 23" x1="-8172.33" y1="426.16" x2="-8171.33" y2="426.16" xlink:href="#Degradado_sin_nombre_23"/>
    <clipPath id="clippath-19">
      <path class="cls-64" d="m256.91,128.95c-1.92,4.61-4.12,9.07-7.28,12.96-3.88,4.78-8.59,8.13-15,8.52-3.32.2-6.63.61-9.95.78-2.62.13-30.16.02-31.31-.14-2.7-.39-4.21-1.84-5.03-3.73-.17,1.04-.9,1.63-2.07,1.64h-.03c-.46,0-1.13-.06-1.63-.57-.29-.3-.47-.68-.53-1.15-.04.53-.24,1.24-1.1,1.54-.45.16-.91.24-1.38.24-.52,0-1.01-.1-1.48-.29-1.03-.43-.96-1.53-.93-1.89,0-.01,0-.02,0-.03-.03,0-.05,0-.08-.01,0,.68-.17,1.2-.54,1.58-.56.58-1.31.58-1.86.58h-.21c-.42,0-1.19,0-1.76-.57-.32-.32-.5-.75-.55-1.3-.02.28-.08.59-.23.88-.18.37-.66.99-1.76.99-.04,0-.09,0-.13,0-.55-.02-1-.18-1.33-.46-.33,1.26-.86,2.45-1.73,3.51-1.93,2.36-4.69,2.94-7.51,3.23-1.99.21-3.99.27-6,.4v2.88h1.45c13.17-.02,26.34-.02,39.51-.08.09,0,22.62.08,22.62.08,10.13,0,20.27-.01,30.4.02.65,0,1.22-.42,1.41-1.04.64-2.07,1.31-4.14,1.96-6.21,2.4-7.64,4.81-15.27,7.23-22.99-.82-.21-1.65-.43-2.53-.66-.23.47-.46.88-.65,1.32"/>
    </clipPath>
    <linearGradient id="Degradado_sin_nombre_23-7" data-name="Degradado sin nombre 23" x1="-8140.67" y1="425.94" x2="-8139.67" y2="425.94" gradientTransform="translate(1264814.41 66312.91) scale(155.35 -155.35)" xlink:href="#Degradado_sin_nombre_23"/>
    <clipPath id="clippath-20">
      <path class="cls-64" d="m289.73,189.1c-.16-.29-.17-.63-.17-.96-.07-7.36-.05-14.72.06-22.08,0-.44.04-.99.32-1.36.33-.42.89-.47,1.17.05.15.28.15.6.15.92.01,5.17.02,10.33.03,15.5,0,1.76,0,3.52-.04,5.28,0,.13,0,.26-.01.4-.02.67-.07,1.33-.26,1.97-.07.26-.19.53-.44.64-.06.03-.13.04-.2.04-.25,0-.5-.18-.62-.4m3.27.3c-.38-.21-.42-.73-.42-1.16,0-7.23,0-14.45,0-21.68,0-.54.02-1.17.29-1.65.27-.49.95-.92,1.3-.22.12.25.12.53.12.8,0,5.63,0,11.26,0,16.89,0,1.79,0,3.58,0,5.38,0,.42,0,.87-.22,1.24-.16.27-.47.48-.77.48-.1,0-.2-.02-.3-.08m-5.84.08c-.25-.01-.46-.22-.55-.45-.09-.23-.09-.49-.09-.74,0-7.33,0-14.66,0-21.99,0-.38,0-.77.12-1.14.17-.53,1-1.3,1.4-.5.12.23.12.49.12.75,0,7.21,0,14.42,0,21.63v.44c0,.64-.03,1.35-.49,1.78-.13.12-.3.22-.48.22,0,0-.02,0-.03,0m9.19-30.61c-4.33,0-24.03,0-28.36,0-1.07,0-1.3.37-.83,1.32.12.26.3.52.51.72,1.37,1.28,17.36,2.89,17.36,4.72.01,2.88.04,8.88.03,20.86,0,1.01.01,3.01-1.03,5.21,0,0-.76,1.6-2.13,2.99-2.66,2.71-9.45,5.39-19.11,6.11-4.81.36-9.48-.14-14.04-1.64-5.98-1.96-11.13-5.29-15.57-9.72-7.88-7.87-12.48-17.51-15.08-28.21-.1-.43-.19-1.07-.28-1.63-3.92-.01-15.75-.05-19.89-.07,0,.02,0,.03.01.05.54,2.42,1,4.87,1.77,7.21,2.28,6.92,5.81,13.17,10.65,18.62,9.9,11.14,22.51,17.3,37.04,19.78,4.66.79,9.37.93,14.1.86,4.99-.07,9.95-.49,14.8-1.56,3.87-.85,7.66-2.08,11.43-3.31.69-.23,1.37-.49,2.05-.77,2.49-1.05,4.87-2.35,7.11-3.85l.18-.12c.79-.53,1.32-1.38,1.38-2.33,0,0,0-.01,0-.02,0-.05,0-.1,0-.14v-.81s-.04-.1-.07-.14c-.14-.29-.34-.56-.57-.79-1.28-1.29-1.93-2.87-1.94-4.66-.03-8.63-.04-13.41.01-22.05.01-2.03.83-3.8,2.53-5.05.14-.1.33-.04.32-.35,0-.12,0-.23-.01-.33,0-.05,0-.1-.01-.15,0-.05-.01-.09-.02-.13,0-.04-.02-.08-.02-.11,0-.01,0-.02-.01-.04-.14-.46-.49-.49-1.35-.5-.32.05-.66.03-.98.03"/>
    </clipPath>
    <linearGradient id="Degradado_sin_nombre_28-9" data-name="Degradado sin nombre 28" x1="-8140.55" y1="425.94" x2="-8139.55" y2="425.94" gradientTransform="translate(1262013.97 66206.54) scale(155.01 -155.01)" xlink:href="#Degradado_sin_nombre_28"/>
    <clipPath id="clippath-21">
      <path class="cls-64" d="m292.23,89.15c-.15,1.05-.24,2.03-.45,2.99-.67,3.05-1.75,4.26-4.73,3.82-1.18-.17-2.35-.53-3.47-.95-6.13-2.28-12.36-4.1-18.86-5.05-6.04-.88-12.08-1-18.14-.23-4.77.6-9.39,1.83-13.79,3.73-6.93,2.99-12.93,7.31-18.02,12.89-5.99,6.57-10.42,14.1-13.63,22.39-2.24,5.8-3.56,11.9-3.96,18.1-.07,1.05-.12,2.11-.19,3.21,4.62.06,12.9.1,19.55.1-.55-7.56.23-15.08,2.41-22.45,1.88-6.37,4.77-12.25,8.92-17.46,7.15-8.98,16.07-14.95,27.71-16.35,6.83-.82,13.26.39,19.28,3.7,7.31,4.03,12.47,10.11,16.22,17.44,1.4,2.75,2.46,5.67,3.7,8.5.13.29.4.7.65.73.82.09,1.65.03,2.58.03-.96-11.83-1.92-23.51-2.87-35.14h-2.91Z"/>
    </clipPath>
    <linearGradient id="Degradado_sin_nombre_28-10" data-name="Degradado sin nombre 28" x1="-8140.65" y1="425.94" x2="-8139.65" y2="425.94" gradientTransform="translate(1264352.81 66265.46) scale(155.29 -155.29)" xlink:href="#Degradado_sin_nombre_28"/>
    <clipPath id="clippath-22">
      <path class="cls-64" d="m186.21,53.24c-2.32.03-4.63.01-6.95.01s-4.63,0-6.95,0c-.66,0-1.09.12-1.08.95.02,4.57.01,88.17,0,92.74,0,.65.25.9.9.93.96.04.99-.57.99-1.27,0-3.54,0-86.1,0-89.64,0-.34,0-.69.06-1.03.1-.53.43-.85.97-.88.59-.03.96.3,1.09.86.08.33.06.68.06,1.02,0,3.61.03,86.24,0,89.85-.01,1.1.6,1.1,1.37,1.09.76,0,1.39.02,1.36-1.1-.06-2.16-.02-83.35-.01-85.52,0-1.65,0-3.3,0-4.95,0-.74.36-1.2,1.06-1.26.68-.05,1.02.46,1.17,1.06.08.36.06.75.06,1.13,0,3.47,0,85.97,0,89.44,0,.37-.13.87.26,1.04.66.28,1.41.26,2.07.03.5-.17.35-.76.35-1.19.01-3.51,0-86.03.01-89.54,0-.38,0-.76.07-1.13.12-.51.44-.87.99-.84.55.03.96.32,1.07.91.06.34.04.68.05,1.03,0,3.61.02,86.24,0,89.85,0,.84.37,1.04,1.11,1.04.72,0,1.02-.26,1.01-1.02-.02-4.5-.02-88.03,0-92.53,0-.81-.3-1.07-1.03-1.07-.01,0-.03,0-.04,0"/>
    </clipPath>
    <linearGradient id="Degradado_sin_nombre_23-8" data-name="Degradado sin nombre 23" x1="-7691.84" y1="422.58" x2="-7690.84" y2="422.58" gradientTransform="translate(123609.48 6882.18) scale(16.05 -16.05)" xlink:href="#Degradado_sin_nombre_23"/>
    <clipPath id="clippath-23">
      <path class="cls-64" d="m180.77,46.49h0c-7.65,0-15.3,0-22.95,0-2.17,0-2.47.21-2.19,1.35.37,1.49,1.83,2.15,4.9,2.15,8.74.01,17.49,0,26.23,0,4.82,0,9.64.01,14.46,0,2.68-.01,4.13-.62,4.63-1.85.55-1.34.08-1.66-2.53-1.66-3.22,0-6.45,0-9.67,0-4.3,0-8.6,0-12.89,0"/>
    </clipPath>
    <linearGradient id="Degradado_sin_nombre_23-9" data-name="Degradado sin nombre 23" x1="-8033.4" y1="425.14" x2="-8032.4" y2="425.14" gradientTransform="translate(406051.85 21528.75) scale(50.53 -50.53)" xlink:href="#Degradado_sin_nombre_23"/>
    <clipPath id="clippath-24">
      <path class="cls-64" d="m190.74,50.53c-.12.01-.24.02-.35.02-3.48-.03-6.97-.01-10.45-.01-.96,0-1.93,0-2.89,0-2.7,0-5.4,0-8.1,0-.07,0-.14,0-.2,0-.33-.02-.69-.04-.85.35-.18.42.01.82.27,1.16.43.56,1.06.68,1.75.68,6.64,0,13.27,0,19.91,0,.25,0,.52,0,.76-.07.79-.24,1.26-.78,1.2-1.54-.04-.5-.34-.61-.68-.61-.12,0-.24.01-.36.02"/>
    </clipPath>
    <linearGradient id="Degradado_sin_nombre_23-10" data-name="Degradado sin nombre 23" x1="-7857.19" y1="423.82" x2="-7856.19" y2="423.82" gradientTransform="translate(188464.97 10208.43) scale(23.96 -23.96)" xlink:href="#Degradado_sin_nombre_23"/>
    <clipPath id="clippath-25">
      <path class="cls-64" d="m174.54,18.92c-.18.8-.03,1.41.49,2.05.84,1.03.64,2.98-.26,3.95-1.26,1.36-1.43,3.87-.16,4.96.99.86,1.36,1.56.78,3.1-.16.44-.22.95-.48,1.39-.76,1.31-.42,2.89.73,2.96,2.94.17,5.88.15,8.82.04.93-.03,1.54-1.46,1.05-2.31-.53-.95-.7-2.01-1-3.05-.5-1.7-.46-1.88.88-1.77,2.02.17,4.04.09,6.07.02,3.57-.13,7.14-.26,10.7.92,2.01.66,4.22.14,6.34.09.95-.02,1.76-.58,2.27-1.8,1.08-2.6-.15-5.54-2.39-5.59-3.36-.08-6.7.26-10.05.69-2.77.36-5.58.27-8.38.19-1.23-.04-2.46-.07-3.69-.07-.67,0-1.36-.11-2.09.48.09-1.77.46-3.18,1.05-4.44.31-.65.55-1.23.32-2-.23-.77-.7-1.05-1.26-1.05-2.77-.01-5.54-.02-8.31-.02-.66,0-1.22.31-1.43,1.26"/>
    </clipPath>
    <linearGradient id="Degradado_sin_nombre_23-11" data-name="Degradado sin nombre 23" x1="-7977.86" y1="424.72" x2="-7976.86" y2="424.72" gradientTransform="translate(298902.97 15931.17) scale(37.44 -37.44)" xlink:href="#Degradado_sin_nombre_23"/>
    <clipPath id="clippath-26">
      <path class="cls-64" d="m149.28,39.7c-1.06.08-1.97.97-2.08,2.05-.11,1.08.46,1.98,1.52,2.35.7.25,1.43.23,2.16.23h29.92c8.21,0,16.42,0,24.63,0,1.72,0,3.44,0,5.17,0,.69,0,1.39-.02,2.05-.16,1.23-.27,1.88-1.18,1.8-2.38-.07-1-.9-1.9-1.92-2.06-1.07-.17-2.22.52-2.48,1.68-.19.87-.65.97-1.37.97-18.57,0-37.13-.01-55.7,0-.81,0-1.24-.19-1.41-1.08-.19-.97-1.15-1.6-2.13-1.6-.05,0-.11,0-.16,0"/>
    </clipPath>
    <linearGradient id="Degradado_sin_nombre_23-12" data-name="Degradado sin nombre 23" x1="-8072.96" y1="425.43" x2="-8071.96" y2="425.43" gradientTransform="translate(543199.26 28659.99) scale(67.27 -67.27)" xlink:href="#Degradado_sin_nombre_23"/>
    <clipPath id="clippath-27">
      <path class="cls-64" d="m158.09,70.9c-.57,1.07-1.36,1.18-2.4,1.17-4.3-.03-8.6-.03-12.9,0-.88,0-1.57-.13-1.97-1.04-.26-.58-.78-.95-1.48-.84-.43.07-.73.34-.86.77-.13.42-.07.81.24,1.13.17.18.4.28.66.23.63-.14.08-.71.36-1.01.57.36.55.98.69,1.5,1.17,4.2,4.85,6.94,9.23,6.87,4.11-.06,7.77-3.04,8.77-7.15.11-.46.11-.98.66-1.23.28.29-.31.88.34,1,.31.06.55-.13.72-.37.26-.35.32-.74.11-1.14-.21-.42-.61-.63-1.02-.63s-.88.24-1.14.74"/>
    </clipPath>
    <linearGradient id="Degradado_sin_nombre_28-11" data-name="Degradado sin nombre 28" x1="-7826.58" y1="423.59" x2="-7825.58" y2="423.59" gradientTransform="translate(172004.6 9376.68) scale(21.96 -21.96)" xlink:href="#Degradado_sin_nombre_28"/>
    <clipPath id="clippath-28">
      <path class="cls-64" d="m220.97,70.81c-.56,1.3-1.58,1.27-2.71,1.26-4.05-.03-8.11-.03-12.16,0-1.1,0-2.07.02-2.6-1.24-.24-.58-.88-.83-1.56-.54-.46.19-.72.54-.67,1.04.05.53.31.99.89.96.69-.03.16-.64.38-1.02.57.34.58.86.71,1.32,1.24,4.4,4.75,7.11,9.16,7.08,4.18-.03,7.71-2.88,8.86-7.16.12-.44.14-.95.65-1.22.21.35-.31.97.38,1,.58.02.84-.43.89-.96.05-.5-.2-.87-.65-1.06-.19-.08-.38-.12-.56-.12-.45,0-.83.24-1.01.66"/>
    </clipPath>
    <linearGradient id="Degradado_sin_nombre_28-12" data-name="Degradado sin nombre 28" x1="-7826.12" y1="423.59" x2="-7825.12" y2="423.59" gradientTransform="translate(171840.91 9364.88) scale(21.93 -21.93)" xlink:href="#Degradado_sin_nombre_28"/>
    <clipPath id="clippath-29">
      <path class="cls-64" d="m148.82,45.9c-.07.15-.13.3-.19.45-2.88,7.32-5.76,14.65-8.63,21.97-.09.23-.17.46-.24.69-.07.23-.15.53.11.65.36.15.48-.18.61-.43.08-.14.13-.3.19-.45,2.46-6.31,4.92-12.62,7.4-18.92.38-.96.65-1.98,1.4-3.07.72,1.78,1.38,3.37,2.01,4.97,2.27,5.73,4.53,11.47,6.8,17.2.12.31.19.87.66.69.47-.17.15-.64.04-.95-.53-1.4-1.09-2.8-1.64-4.19-2.44-6.19-4.89-12.37-7.33-18.56-.12-.29-.18-.68-.58-.7-.01,0-.02,0-.03,0-.39,0-.45.38-.58.66"/>
    </clipPath>
    <linearGradient id="Degradado_sin_nombre_28-13" data-name="Degradado sin nombre 28" x1="-7780.42" y1="423.24" x2="-7779.42" y2="423.24" gradientTransform="translate(151849.13 8310.29) scale(19.5 -19.5)" xlink:href="#Degradado_sin_nombre_28"/>
    <clipPath id="clippath-30">
      <path class="cls-64" d="m211.61,46.05c-2.97,7.54-5.94,15.09-8.9,22.64-.12.31-.45.76,0,.96.47.21.52-.36.69-.65.08-.14.12-.3.18-.45,2.34-5.96,4.67-11.92,7.02-17.89.48-1.23.98-2.45,1.47-3.67.12.01.25.02.37.04.24.59.48,1.19.71,1.78,2.64,6.67,5.27,13.35,7.92,20.02.15.36.19,1.05.79.83.38-.14.09-.65-.04-.98-2.98-7.54-5.96-15.08-8.95-22.61-.13-.32-.17-.79-.63-.8-.45,0-.52.46-.64.79"/>
    </clipPath>
    <linearGradient id="Degradado_sin_nombre_28-14" data-name="Degradado sin nombre 28" x1="-7782.01" y1="423.25" x2="-7781.01" y2="423.25" gradientTransform="translate(152527.84 8342.35) scale(19.57 -19.57)" xlink:href="#Degradado_sin_nombre_28"/>
    <clipPath id="clippath-31">
      <path class="cls-64" d="m170.01,38.69c-.52,0-1.04.07-1.54.19-.41.1-.69.44-.64.98.04.46.32.72.68.79.47.08.95.12,1.42.12,3.29,0,6.58,0,9.87,0s6.67,0,10,0c.47,0,.95-.04,1.42-.13.42-.08.72-.39.71-.92,0-.54-.34-.79-.76-.86-.56-.09-1.12-.18-1.68-.18-3.25,0-6.49,0-9.74,0s-6.49,0-9.74,0"/>
    </clipPath>
    <linearGradient id="Degradado_sin_nombre_28-15" data-name="Degradado sin nombre 28" x1="-7859.15" y1="423.83" x2="-7858.15" y2="423.83" gradientTransform="translate(189617.27 10256.51) scale(24.11 -24.11)" xlink:href="#Degradado_sin_nombre_28"/>
    <clipPath id="clippath-32">
      <rect class="cls-64" x="-159.81" y="-137.27" width="793.7" height="623.62"/>
    </clipPath>
    <clipPath id="clippath-33">
      <path class="cls-64" d="m86.73,339.6c-.94,1.53-1.41,3.28-1.41,5.27,0,1.44.25,2.78.77,4.01.48,1.14,1.12,2.09,1.93,2.85,1.43,1.32,3.28,1.98,5.54,1.98,1.13,0,2.13-.16,3-.47.87-.31,1.87-.87,3-1.68.51-.37.84-.56.98-.56.12,0,.27.08.47.26l.29-.26-2.1-3.74-.27.26c.02.26.04.4.04.43,0,.42-.45.92-1.36,1.49-1.17.72-2.33,1.08-3.51,1.08-1.5,0-2.74-.48-3.72-1.44-1.12-1.09-1.67-2.49-1.67-4.2s.56-3.1,1.67-4.19c.98-.97,2.21-1.45,3.72-1.45,1.07,0,2.14.3,3.2.89,1.11.62,1.67,1.18,1.67,1.67,0,.04,0,.11-.01.2,0,.03-.02.11-.02.23l.27.24,2.1-3.71-.29-.27c-.2.17-.35.26-.47.26-.14,0-.47-.19-.98-.56-1.12-.81-2.12-1.37-3.01-1.68-.88-.31-1.88-.47-3.02-.47-3.06,0-5.33,1.19-6.8,3.58"/>
    </clipPath>
    <linearGradient id="Degradado_sin_nombre_47" data-name="Degradado sin nombre 47" x1="-8166.19" y1="426.12" x2="-8165.19" y2="426.12" gradientTransform="translate(2505014.68 131054.44) scale(306.74 -306.74)" gradientUnits="userSpaceOnUse">
      <stop offset="0" stop-color="#ad7913"/>
      <stop offset=".03" stop-color="#b98b26"/>
      <stop offset=".13" stop-color="#d7b754"/>
      <stop offset=".2" stop-color="#ead270"/>
      <stop offset=".24" stop-color="#f1dd7b"/>
      <stop offset=".51" stop-color="#bf9326"/>
      <stop offset=".53" stop-color="#c3982c"/>
      <stop offset=".64" stop-color="#d8b951"/>
      <stop offset=".73" stop-color="#e6cc68"/>
      <stop offset=".79" stop-color="#ebd471"/>
      <stop offset=".92" stop-color="#cba74a"/>
      <stop offset="1" stop-color="#bd9339"/>
    </linearGradient>
    <clipPath id="clippath-34">
      <path class="cls-64" d="m107.64,348.81c-.84-1.05-1.25-2.36-1.25-3.94s.42-2.9,1.25-3.95c.9-1.12,2.07-1.68,3.5-1.68,1.43.02,2.6.58,3.51,1.68.83,1.02,1.25,2.36,1.25,4.03,0,1.54-.42,2.82-1.25,3.86-.9,1.13-2.07,1.7-3.5,1.7s-2.61-.57-3.51-1.7m-1.98-10.73c-1.77,1.63-2.65,3.89-2.65,6.79s.89,5.13,2.65,6.79c1.46,1.37,3.29,2.06,5.5,2.06s4.04-.69,5.49-2.06c1.76-1.66,2.64-3.87,2.64-6.65,0-2.96-.88-5.27-2.64-6.93-1.47-1.37-3.31-2.06-5.52-2.06-2.18.03-4.01.72-5.47,2.06"/>
    </clipPath>
    <linearGradient id="Degradado_sin_nombre_47-2" data-name="Degradado sin nombre 47" x1="-8166.19" x2="-8165.19" xlink:href="#Degradado_sin_nombre_47"/>
    <clipPath id="clippath-35">
      <path class="cls-64" d="m125.53,339.46h5.01c.92,0,1.56.14,1.92.42.36.28.54.78.54,1.5,0,.81-.26,1.35-.77,1.62-.36.2-.93.3-1.69.3h-5.01v-3.85Zm-4.11-3.08v.42c.3.11.5.25.62.41.12.16.17.4.17.71v13.88c0,.31-.06.56-.18.73-.12.17-.33.3-.61.39v.42h4.91v-.42c-.3-.11-.5-.25-.62-.42-.12-.17-.17-.4-.17-.72v-5.41h3.33l2.77,4.85c.27.45.4.79.4,1.01,0,.31-.21.54-.64.68v.42h5.84v-.42c-.36-.08-.69-.27-.97-.57-.29-.3-.67-.86-1.15-1.68l-2.63-4.48c1.37-.34,2.36-.9,2.98-1.67.61-.77.92-1.85.92-3.22,0-1.81-.5-3.11-1.5-3.91-.49-.38-1.04-.65-1.66-.79-.62-.15-1.52-.22-2.7-.22h-9.1Z"/>
    </clipPath>
    <linearGradient id="Degradado_sin_nombre_47-3" data-name="Degradado sin nombre 47" x1="-8166.19" y1="426.12" x2="-8165.19" y2="426.12" xlink:href="#Degradado_sin_nombre_47"/>
    <clipPath id="clippath-36">
      <path class="cls-64" d="m143,339.46h4.74c.88,0,1.48.1,1.81.3.5.29.74.83.74,1.62s-.25,1.33-.74,1.62c-.34.2-.94.3-1.81.3h-4.74v-3.85Zm-4.12-3.08v.42c.3.11.5.25.62.41.12.16.17.4.17.71v13.88c0,.31-.06.56-.18.73s-.32.3-.61.39v.42h4.91v-.42c-.3-.11-.5-.25-.62-.42-.11-.17-.17-.4-.17-.72v-5.41h4.93c1.94,0,3.38-.41,4.33-1.23.94-.82,1.41-2.08,1.41-3.77,0-.88-.15-1.67-.45-2.38s-.71-1.25-1.24-1.64c-.91-.66-2.26-.98-4.05-.98h-9.05Z"/>
    </clipPath>
    <linearGradient id="Degradado_sin_nombre_47-4" data-name="Degradado sin nombre 47" x1="-8166.19" y1="426.12" x2="-8165.19" y2="426.12" xlink:href="#Degradado_sin_nombre_47"/>
    <clipPath id="clippath-37">
      <path class="cls-64" d="m159.76,348.81c-.84-1.05-1.25-2.36-1.25-3.94s.42-2.9,1.25-3.95c.9-1.12,2.07-1.68,3.5-1.68,1.43.02,2.6.58,3.51,1.68.84,1.02,1.25,2.36,1.25,4.03,0,1.54-.42,2.82-1.25,3.86-.9,1.13-2.07,1.7-3.5,1.7s-2.61-.57-3.51-1.7m-1.98-10.73c-1.77,1.63-2.65,3.89-2.65,6.79s.89,5.13,2.65,6.79c1.46,1.37,3.29,2.06,5.49,2.06s4.04-.69,5.49-2.06c1.76-1.66,2.64-3.87,2.64-6.65,0-2.96-.88-5.27-2.64-6.93-1.47-1.37-3.31-2.06-5.52-2.06-2.18.03-4.01.72-5.47,2.06"/>
    </clipPath>
    <linearGradient id="Degradado_sin_nombre_47-5" data-name="Degradado sin nombre 47" x1="-8166.19" x2="-8165.19" xlink:href="#Degradado_sin_nombre_47"/>
    <clipPath id="clippath-38">
      <path class="cls-64" d="m177.65,339.46h5.01c.92,0,1.56.14,1.92.42.36.28.54.78.54,1.5,0,.81-.26,1.35-.77,1.62-.36.2-.93.3-1.69.3h-5.01v-3.85Zm-4.12-3.08v.42c.3.11.5.25.62.41.11.16.17.4.17.71v13.88c0,.31-.06.56-.18.73s-.32.3-.61.39v.42h4.91v-.42c-.3-.11-.5-.25-.62-.42-.11-.17-.17-.4-.17-.72v-5.41h3.32l2.77,4.85c.27.45.4.79.4,1.01,0,.31-.21.54-.64.68v.42h5.84v-.42c-.36-.08-.69-.27-.97-.57-.29-.3-.67-.86-1.15-1.68l-2.63-4.48c1.37-.34,2.37-.9,2.98-1.67.62-.77.92-1.85.92-3.22,0-1.81-.5-3.11-1.5-3.91-.49-.38-1.04-.65-1.66-.79-.62-.15-1.52-.22-2.7-.22h-9.1Z"/>
    </clipPath>
    <linearGradient id="Degradado_sin_nombre_47-6" data-name="Degradado sin nombre 47" x1="-8166.19" y1="426.12" x2="-8165.19" y2="426.12" xlink:href="#Degradado_sin_nombre_47"/>
    <clipPath id="clippath-39">
      <path class="cls-64" d="m198.84,341.27l2.27,5.46h-4.44l2.16-5.46Zm-2.5-4.89v.42c.46.23.69.55.69.97,0,.35-.1.77-.28,1.24l-5.07,12.55c-.21.51-.39.84-.54,1.01-.15.17-.39.29-.7.35v.42h5.1v-.42c-.53-.13-.79-.44-.79-.92,0-.25.09-.6.26-1.05l.72-1.85h6.38l.77,1.74c.21.46.31.85.31,1.16,0,.5-.27.81-.81.92v.42h5.67v-.42c-.34-.08-.59-.22-.76-.41-.16-.2-.39-.62-.68-1.28l-5.26-12.17c-.21-.49-.31-.9-.31-1.23,0-.46.23-.81.68-1.03v-.42h-5.39Z"/>
    </clipPath>
    <linearGradient id="Degradado_sin_nombre_47-7" data-name="Degradado sin nombre 47" x1="-8166.19" y1="426.12" x2="-8165.19" y2="426.12" xlink:href="#Degradado_sin_nombre_47"/>
    <clipPath id="clippath-40">
      <path class="cls-64" d="m210.31,339.6c-.94,1.53-1.41,3.28-1.41,5.27,0,1.44.26,2.78.77,4.01.48,1.14,1.12,2.09,1.93,2.85,1.43,1.32,3.28,1.98,5.54,1.98,1.13,0,2.13-.16,3-.47.87-.31,1.87-.87,3-1.68.51-.37.84-.56.98-.56.12,0,.27.08.47.26l.28-.26-2.09-3.74-.27.26c.03.26.04.4.04.43,0,.42-.45.92-1.36,1.49-1.17.72-2.34,1.08-3.51,1.08-1.5,0-2.74-.48-3.72-1.44-1.11-1.09-1.67-2.49-1.67-4.2s.56-3.1,1.67-4.19c.97-.97,2.21-1.45,3.72-1.45,1.07,0,2.14.3,3.2.89,1.12.62,1.67,1.18,1.67,1.67,0,.04,0,.11-.01.2,0,.03-.02.11-.03.23l.27.24,2.09-3.71-.28-.27c-.2.17-.36.26-.47.26-.14,0-.47-.19-.98-.56-1.12-.81-2.13-1.37-3.01-1.68-.88-.31-1.89-.47-3.02-.47-3.06,0-5.33,1.19-6.81,3.58"/>
    </clipPath>
    <linearGradient id="Degradado_sin_nombre_47-8" data-name="Degradado sin nombre 47" x1="-8166.19" x2="-8165.19" xlink:href="#Degradado_sin_nombre_47"/>
    <clipPath id="clippath-41">
      <path class="cls-64" d="m226.9,336.38v.42c.3.11.5.25.62.41.12.16.17.4.17.71v13.88c0,.31-.06.56-.18.73-.12.17-.32.3-.61.39v.42h4.91v-.42c-.3-.11-.5-.25-.62-.42-.12-.17-.17-.41-.17-.72v-13.87c0-.31.06-.55.17-.72.12-.17.32-.3.62-.4v-.42h-4.91Z"/>
    </clipPath>
    <linearGradient id="Degradado_sin_nombre_47-9" data-name="Degradado sin nombre 47" x1="-8166.19" y1="426.12" x2="-8165.19" y2="426.12" xlink:href="#Degradado_sin_nombre_47"/>
    <clipPath id="clippath-42">
      <path class="cls-64" d="m238.57,348.81c-.84-1.05-1.25-2.36-1.25-3.94s.42-2.9,1.25-3.95c.9-1.12,2.07-1.68,3.5-1.68,1.43.02,2.6.58,3.51,1.68.84,1.02,1.25,2.36,1.25,4.03,0,1.54-.42,2.82-1.25,3.86-.9,1.13-2.07,1.7-3.5,1.7s-2.61-.57-3.51-1.7m-1.98-10.73c-1.77,1.63-2.65,3.89-2.65,6.79s.88,5.13,2.65,6.79c1.46,1.37,3.29,2.06,5.49,2.06s4.04-.69,5.5-2.06c1.76-1.66,2.64-3.87,2.64-6.65,0-2.96-.88-5.27-2.64-6.93-1.47-1.37-3.31-2.06-5.52-2.06-2.18.03-4.01.72-5.47,2.06m5.29-7.96v.41c.23.03.35.13.35.29,0,.06-.02.14-.05.23l-.82,2.47c-.08.22-.15.37-.24.44-.08.07-.22.11-.42.11v.41h2.69v-.41h-.05c-.17,0-.26-.08-.26-.24,0-.09.03-.17.08-.24l1.76-2.64c.16-.26.41-.4.73-.41v-.41h-3.77Z"/>
    </clipPath>
    <linearGradient id="Degradado_sin_nombre_47-10" data-name="Degradado sin nombre 47" x1="-8166.19" y1="426.13" x2="-8165.19" y2="426.13" xlink:href="#Degradado_sin_nombre_47"/>
    <clipPath id="clippath-43">
      <path class="cls-64" d="m264.18,336.38v.42c.3.1.5.24.62.4.11.17.17.41.17.72v9.35l-7.45-9.03c-.27-.32-.4-.61-.4-.85,0-.28.18-.48.54-.59v-.42h-5.33v.42c.3.11.5.25.62.41.11.16.17.4.17.71v13.88c0,.31-.06.56-.18.73-.12.17-.33.3-.61.39v.42h4.61v-.42c-.29-.1-.49-.24-.61-.41-.12-.17-.18-.41-.18-.73v-9.62l7.37,8.88c.35.44.58.74.68.89.1.15.15.3.15.44,0,.28-.18.47-.55.56v.42h4.97v-.42c-.3-.11-.5-.25-.62-.42-.11-.17-.17-.41-.17-.72v-13.87c0-.31.06-.55.17-.72.12-.17.32-.3.62-.4v-.42h-4.61Z"/>
    </clipPath>
    <linearGradient id="Degradado_sin_nombre_47-11" data-name="Degradado sin nombre 47" x1="-8166.19" y1="426.12" x2="-8165.19" y2="426.12" xlink:href="#Degradado_sin_nombre_47"/>
    <clipPath id="clippath-44">
      <path class="cls-64" d="m283.32,336.38v.42c.3.11.5.25.62.41.12.16.17.4.17.71v9.61c0,1.01-.21,1.76-.64,2.24-.43.49-1.08.73-1.96.73-.59,0-1.21-.13-1.88-.38-.67-.25-1.13-.54-1.39-.85-.18-.21-.27-.5-.27-.86l-.32-.14-1.23,4.62.33.12c.18-.26.37-.39.56-.39.1,0,.23.03.38.09,1.7.67,3.13,1,4.29,1,1.05,0,1.99-.18,2.81-.55.83-.37,1.45-.89,1.87-1.55.51-.81.77-2.14.77-4v-9.68c0-.31.06-.55.17-.72.11-.17.32-.3.62-.4v-.42h-4.91Z"/>
    </clipPath>
    <linearGradient id="Degradado_sin_nombre_47-12" data-name="Degradado sin nombre 47" x1="-8166.19" y1="426.12" x2="-8165.19" y2="426.12" xlink:href="#Degradado_sin_nombre_47"/>
    <clipPath id="clippath-45">
      <path class="cls-64" d="m301.13,336.38v.42c.3.11.51.25.62.41.11.16.17.4.17.71v8.17c0,.95-.07,1.68-.2,2.18-.13.51-.36.92-.69,1.24-.68.66-1.66.99-2.94.99s-2.26-.33-2.94-.99c-.34-.32-.58-.74-.71-1.24-.14-.51-.21-1.23-.21-2.18v-8.17c0-.31.06-.55.17-.72.11-.17.32-.3.62-.4v-.42h-4.91v.42c.3.11.5.25.62.41.11.16.17.4.17.71v8.99c0,1.36.15,2.5.45,3.41.32.99.92,1.75,1.8,2.29,1.22.74,2.81,1.11,4.79,1.11,2.95,0,4.96-.76,6.02-2.29.66-.96.99-2.46.99-4.51v-8.99c0-.31.06-.55.17-.72.12-.17.32-.3.62-.4v-.42h-4.62Z"/>
    </clipPath>
    <linearGradient id="Degradado_sin_nombre_47-13" data-name="Degradado sin nombre 47" x1="-8166.19" y1="426.12" x2="-8165.19" y2="426.12" xlink:href="#Degradado_sin_nombre_47"/>
    <clipPath id="clippath-46">
      <path class="cls-64" d="m312.04,339.46h5.01c.92,0,1.55.14,1.91.42.36.28.54.78.54,1.5,0,.81-.26,1.35-.77,1.62-.36.2-.93.3-1.69.3h-5.01v-3.85Zm-4.12-3.08v.42c.3.11.5.25.62.41.11.16.17.4.17.71v13.88c0,.31-.06.56-.18.73-.12.17-.33.3-.61.39v.42h4.91v-.42c-.3-.11-.5-.25-.62-.42-.12-.17-.17-.4-.17-.72v-5.41h3.33l2.77,4.85c.26.45.4.79.4,1.01,0,.31-.21.54-.65.68v.42h5.84v-.42c-.36-.08-.69-.27-.97-.57-.29-.3-.67-.86-1.15-1.68l-2.63-4.48c1.37-.34,2.37-.9,2.98-1.67.62-.77.92-1.85.92-3.22,0-1.81-.5-3.11-1.5-3.91-.49-.38-1.04-.65-1.66-.79-.62-.15-1.52-.22-2.7-.22h-9.1Z"/>
    </clipPath>
    <linearGradient id="Degradado_sin_nombre_47-14" data-name="Degradado sin nombre 47" x1="-8166.19" y1="426.12" x2="-8165.19" y2="426.12" xlink:href="#Degradado_sin_nombre_47"/>
    <clipPath id="clippath-47">
      <path class="cls-64" d="m325.35,336.38v.42c.3.11.5.25.62.41.12.16.17.4.17.71v13.88c0,.31-.06.56-.18.73-.12.17-.33.3-.61.39v.42h4.91v-.42c-.3-.11-.5-.25-.62-.42-.12-.17-.17-.41-.17-.72v-13.87c0-.31.06-.55.17-.72.11-.17.32-.3.62-.4v-.42h-4.91Zm2.17-6.26v.41c.23.03.35.13.35.29,0,.06-.02.14-.05.23l-.82,2.47c-.07.22-.15.37-.24.44-.08.07-.22.11-.42.11v.41h2.69v-.41h-.05c-.17,0-.26-.08-.26-.24,0-.09.02-.17.08-.24l1.76-2.64c.17-.26.41-.4.73-.41v-.41h-3.77Z"/>
    </clipPath>
    <linearGradient id="Degradado_sin_nombre_47-15" data-name="Degradado sin nombre 47" x1="-8166.19" y1="426.13" x2="-8165.19" y2="426.13" xlink:href="#Degradado_sin_nombre_47"/>
    <clipPath id="clippath-48">
      <path class="cls-64" d="m336.82,339.46h3.55c.86,0,1.57.11,2.13.33.56.22,1.03.56,1.41,1.04.77.95,1.15,2.3,1.15,4.05s-.39,3.1-1.15,4.05c-.74.91-1.92,1.36-3.54,1.36h-3.55v-10.82Zm-4.11-3.08v.42c.3.11.5.25.62.41.11.16.17.4.17.71v13.88c0,.31-.06.56-.18.73-.12.17-.32.3-.61.39v.42h8.14c1.29,0,2.36-.15,3.23-.45.86-.3,1.61-.78,2.25-1.45,1.41-1.49,2.12-3.69,2.12-6.59,0-1.57-.21-2.93-.63-4.11-.6-1.68-1.59-2.88-2.96-3.61-.98-.51-2.31-.77-4-.77h-8.14Z"/>
    </clipPath>
    <linearGradient id="Degradado_sin_nombre_47-16" data-name="Degradado sin nombre 47" x1="-8166.19" y1="426.12" x2="-8165.19" y2="426.12" xlink:href="#Degradado_sin_nombre_47"/>
    <clipPath id="clippath-49">
      <path class="cls-64" d="m350.56,336.38v.42c.3.11.5.25.62.41.12.16.17.4.17.71v13.88c0,.31-.06.56-.18.73s-.33.3-.61.39v.42h4.91v-.42c-.3-.11-.5-.25-.62-.42-.12-.17-.17-.41-.17-.72v-13.87c0-.31.06-.55.17-.72.12-.17.32-.3.62-.4v-.42h-4.91Z"/>
    </clipPath>
    <linearGradient id="Degradado_sin_nombre_47-17" data-name="Degradado sin nombre 47" x1="-8166.19" y1="426.12" x2="-8165.19" y2="426.12" xlink:href="#Degradado_sin_nombre_47"/>
    <clipPath id="clippath-50">
      <path class="cls-64" d="m359.02,339.6c-.94,1.53-1.41,3.28-1.41,5.27,0,1.44.26,2.78.77,4.01.48,1.14,1.12,2.09,1.93,2.85,1.43,1.32,3.28,1.98,5.54,1.98,1.13,0,2.13-.16,3-.47.87-.31,1.87-.87,3-1.68.51-.37.84-.56.98-.56.12,0,.27.08.47.26l.28-.26-2.09-3.74-.27.26c.02.26.04.4.04.43,0,.42-.45.92-1.36,1.49-1.16.72-2.33,1.08-3.51,1.08-1.5,0-2.74-.48-3.72-1.44-1.12-1.09-1.67-2.49-1.67-4.2s.56-3.1,1.67-4.19c.97-.97,2.21-1.45,3.72-1.45,1.07,0,2.14.3,3.2.89,1.12.62,1.67,1.18,1.67,1.67,0,.04,0,.11-.01.2,0,.03-.02.11-.02.23l.27.24,2.09-3.71-.28-.27c-.2.17-.36.26-.47.26-.14,0-.47-.19-.98-.56-1.12-.81-2.12-1.37-3.01-1.68-.88-.31-1.89-.47-3.02-.47-3.06,0-5.33,1.19-6.81,3.58"/>
    </clipPath>
    <linearGradient id="Degradado_sin_nombre_47-18" data-name="Degradado sin nombre 47" x1="-8166.19" x2="-8165.19" xlink:href="#Degradado_sin_nombre_47"/>
    <clipPath id="clippath-51">
      <path class="cls-64" d="m382.85,341.27l2.27,5.46h-4.44l2.16-5.46Zm-2.5-4.89v.42c.46.23.69.55.69.97,0,.35-.09.77-.28,1.24l-5.07,12.55c-.21.51-.39.84-.54,1.01-.15.17-.39.29-.7.35v.42h5.1v-.42c-.53-.13-.79-.44-.79-.92,0-.25.09-.6.26-1.05l.72-1.85h6.38l.77,1.74c.21.46.31.85.31,1.16,0,.5-.27.81-.81.92v.42h5.67v-.42c-.34-.08-.59-.22-.76-.41-.16-.2-.39-.62-.68-1.28l-5.26-12.17c-.21-.49-.31-.9-.31-1.23,0-.46.23-.81.68-1.03v-.42h-5.39Z"/>
    </clipPath>
    <linearGradient id="Degradado_sin_nombre_47-19" data-name="Degradado sin nombre 47" x1="-8166.19" y1="426.12" x2="-8165.19" y2="426.12" xlink:href="#Degradado_sin_nombre_47"/>
  </defs>
  <g id="Capa_1-2" data-name="Capa 1">
    <g class="cls-58">
      <g class="cls-37">
        <g class="cls-69">
          <path d="m101.87,319.52c.87,1.8,2.47,2.55,3.8,2.55h.36v.4h-9.73v-.4h.38c1.12,0,2.27-.92,1.64-2.54l-2.76-6.89h-11.64l-2.9,6.92c-.61,1.6.54,2.51,1.65,2.51h.38v.4h-8.7v-.4h.39c1.31,0,2.91-.75,3.79-2.54l9.8-21.77s1.6-3.28,1.6-4.17h.39l11.56,25.93Zm-6.81-8.09l-5.21-12.98-5.44,12.98h10.65Z"/>
          <path d="m130.85,298.21c3.11,0,9,.68,9,6.05,0,2.5-2.38,4.48-4.75,5.01,4.19.48,7.27,3.16,7.27,6.41,0,5.28-5.37,6.79-9.62,6.79h-10.7v-.4h.52c1.45,0,2.55-.99,2.59-2.18v-19.11c-.05-1.31-1.14-2.17-2.59-2.17h-.51v-.4s8.81,0,8.81,0Zm1.85,23.06c3.72,0,6.56-1.72,6.56-5.58,0-5.17-5.38-6.03-10.03-6.03v-.4c3.14,0,7.58-.54,7.58-4.99,0-3.39-2.23-4.84-6.01-4.84h-2.94v21.85h4.85Z"/>
          <path d="m189.96,310.34c0,7.52-6.52,12.7-14.59,12.7s-14.59-5.18-14.59-12.7,6.52-12.7,14.59-12.7,14.59,5.18,14.59,12.7m-3.2,0c0-6.84-5.03-11.49-11.39-11.49s-11.39,4.65-11.39,11.49,5.03,11.49,11.39,11.49,11.39-4.65,11.39-11.49"/>
          <path d="m234.85,317.83c-2.01,2.38-6.23,5.21-12.31,5.21-8.54-.04-14.18-4.86-14.18-12.7s5.65-12.7,14.17-12.7c3.98,0,7.18.78,10.09,2.45l.95,5.71h-.38c-1.26-4.73-4.66-6.95-10.71-6.95-6.6,0-11,4.37-11,11.49s4.42,11.49,11.05,11.49c3.6,0,6.79-1.04,9.5-3.51l.07-5.38c.01-1.02-.75-1.59-2.01-1.59h-.62v-.4h7.93v.4h-.59c-1.26,0-1.98.57-1.97,1.6v4.87Z"/>
          <path d="m277.59,319.71c.88,1.66,2.18,2.36,3.34,2.36h.33v.4h-8.88v-.4h.34c.99,0,2.09-.88,1.53-2.43l-2.36-5.38h-10.94l-2.38,5.27c-.66,1.62.48,2.54,1.49,2.54h.34v.4h-8.24v-.4h.34c1.15,0,2.5-.69,3.39-2.34l8.95-17.93s1.57-3.11,1.66-4.17h.41l10.67,22.08Zm-6.24-6.66l-4.86-11.07-5,11.07h9.86Z"/>
          <path d="m311.94,298.21c8.53,0,13.9,4.62,13.9,12.15s-5.37,12.12-13.9,12.12h-14.42v-.4h.58c1.36,0,2.39-.99,2.43-2.2v-19.09c-.04-1.28-1.11-2.18-2.47-2.18h-.53v-.4s14.41,0,14.41,0Zm-8.6,23.04h8.62c6.64,0,10.75-4.14,10.75-10.89s-4.11-10.93-10.75-10.93h-8.62v21.83Z"/>
          <path d="m373.45,310.34c0,7.52-6.52,12.7-14.59,12.7s-14.59-5.18-14.59-12.7,6.52-12.7,14.59-12.7,14.59,5.18,14.59,12.7m-3.2,0c0-6.84-5.03-11.49-11.39-11.49s-11.38,4.65-11.38,11.49,5.03,11.49,11.38,11.49,11.39-4.65,11.39-11.49"/>
          <path d="m405.35,312.18c1.33,1.05,1.94,2.77,1.96,4.35.03,3.61-3.39,6.51-7.65,6.51-2.56,0-5.88-.58-7.46-1.91-.27-1.08-.16-3.46.43-5.02h.5c-.38,3.64,2.24,5.82,6.05,5.72,3.57-.1,5.76-1.84,5.76-4.47,0-1.26-.46-2.29-1.57-3.2l-8.65-6.24c-1.61-1.29-2.04-2.97-2.07-4.37-.05-3.29,3.15-5.91,7.15-5.91,1.98,0,3.31.17,4.28.38h1.45l.07,4.4h-.49c0-2.24-1.6-3.58-4.99-3.58-2.89,0-5.21,1.71-5.2,3.86,0,1.04.34,2.17,1.7,3.19l8.75,6.3Z"/>
        </g>
        <g class="cls-38">
          <rect class="cls-4" x="74.34" y="293.59" width="31.69" height="28.89"/>
        </g>
        <g class="cls-79">
          <rect class="cls-31" x="122.04" y="298.2" width="20.33" height="24.27"/>
        </g>
        <g class="cls-27">
          <rect class="cls-13" x="160.78" y="297.63" width="29.18" height="25.41"/>
        </g>
        <g class="cls-33">
          <rect class="cls-18" x="208.35" y="297.63" width="29.06" height="25.41"/>
        </g>
        <g class="cls-73">
          <rect class="cls-48" x="252.16" y="297.63" width="29.1" height="24.84"/>
        </g>
        <g class="cls-57">
          <rect class="cls-23" x="297.52" y="298.2" width="28.32" height="24.27"/>
        </g>
        <g class="cls-84">
          <rect class="cls-83" x="344.27" y="297.63" width="29.18" height="25.41"/>
        </g>
        <g class="cls-6">
          <rect class="cls-47" x="391.92" y="297.63" width="15.42" height="25.41"/>
        </g>
        <g class="cls-49">
          <path d="m53.96,269.83h42.45c1.05,0,1.84-.24,2.38-.73.54-.49.98-1.36,1.32-2.62h1.62v18.5h-1.62c-.34-1.26-.78-2.13-1.32-2.62-.54-.49-1.33-.73-2.38-.73h-60.77v-1.68c1.21-.35,2.06-.8,2.53-1.36.47-.56.71-1.38.71-2.46v-60.51c0-1.08-.24-1.9-.71-2.46-.47-.56-1.32-1.01-2.53-1.36v-1.68h21.55v1.68c-1.21.31-2.06.76-2.53,1.34-.47.58-.71,1.41-.71,2.49v54.23Z"/>
          <path d="m124.49,256.68v14.3h35.97c1.04,0,1.85-.24,2.4-.72.56-.48,1-1.36,1.34-2.63h1.42v17.34h-1.42c-.3-1.22-.74-2.09-1.32-2.59-.57-.51-1.38-.76-2.43-.76h-52.77v-1.47c1.18-.32,2.01-.77,2.5-1.36.49-.59.73-1.43.73-2.51v-47.99c0-1.08-.24-1.9-.71-2.46-.47-.56-1.32-1.03-2.53-1.41v-1.47h51.2c1.08,0,1.9-.24,2.45-.73.56-.49,1-1.36,1.34-2.62h1.37v17.34h-1.37c-.34-1.27-.79-2.15-1.34-2.63-.56-.48-1.38-.72-2.45-.72h-34.4v12.89h21.35c1.05,0,1.85-.24,2.4-.73.56-.49,1.02-1.36,1.39-2.62h1.37v16.92h-1.37c-.34-1.24-.78-2.11-1.34-2.61-.56-.5-1.38-.75-2.45-.75h-21.35Z"/>
          <path d="m225.27,258.98h-12.9c-1.08,0-1.9.25-2.45.73-.56.49-1,1.36-1.34,2.62h-1.36v-15.56h1.36c.34,1.24.79,2.11,1.34,2.61.56.5,1.37.74,2.45.74h26.97v1.52c-1.18.35-2.02.86-2.51,1.52-.49.66-.73,1.61-.73,2.83v12.37c0,1.08.24,1.92.73,2.51.49.6,1.32,1.07,2.51,1.42v1.2c-10.93,6.25-21.82,9.38-32.68,9.38-9.38,0-16.97-2.29-22.77-6.86-3.14-2.51-5.67-5.62-7.59-9.33-2.26-4.4-3.39-9.1-3.39-14.09,0-6.92,2.06-13.06,6.17-18.44,6.41-8.31,15.89-12.47,28.43-12.47,5.5,0,11.77,1.26,18.82,3.77,2.8.98,4.43,1.47,4.91,1.47.57,0,1.25-.28,2.02-.84l1.21.68-6.75,14.78-1.21-.63v-.32c0-1.29-1.25-2.62-3.74-3.98-4.62-2.55-9.58-3.83-14.87-3.83-6.1,0-11.11,1.73-15.02,5.19-4.11,3.63-6.17,8.52-6.17,14.67,0,5.76,1.87,10.37,5.62,13.83,3.85,3.53,9.24,5.29,16.19,5.29s12.19-1.27,16.75-3.83v-8.96Z"/>
          <path d="m290.01,266.95h-26.06l-2.94,6.39c-.71,1.54-1.06,2.74-1.06,3.61,0,1.68,1.08,2.74,3.24,3.2v1.47h-20.82v-1.47c1.28-.21,2.23-.61,2.86-1.2.62-.59,1.36-1.76,2.2-3.51l20.69-43.38c.77-1.64,1.16-3.07,1.16-4.3,0-1.43-.94-2.55-2.83-3.35v-1.47h22.01v1.47c-1.86.77-2.78,1.96-2.78,3.56,0,1.15.42,2.57,1.26,4.24l21.45,42.07c1.18,2.29,2.11,3.77,2.78,4.44.67.67,1.7,1.15,3.09,1.43v1.47h-23.15v-1.47c2.19-.38,3.29-1.44,3.29-3.18,0-1.08-.42-2.42-1.27-4.02l-3.13-6Zm-4.08-8.23l-9.28-18.87-8.83,18.87h18.11Z"/>
          <path d="m335.77,270.98h31.72c1.08,0,1.89-.24,2.43-.72.54-.48.99-1.36,1.37-2.63h1.37v17.34h-1.37c-.34-1.26-.78-2.13-1.34-2.62-.56-.49-1.38-.73-2.45-.73h-48.52v-1.47c1.18-.32,2.01-.77,2.5-1.36.49-.59.73-1.43.73-2.51v-47.99c0-1.08-.24-1.9-.71-2.46-.47-.56-1.32-1.03-2.53-1.42v-1.47h20.04v1.47c-1.21.35-2.06.81-2.53,1.39-.47.58-.71,1.41-.71,2.49v42.7Z"/>
          <path d="m395.28,256.68v14.3h35.97c1.04,0,1.85-.24,2.4-.72.56-.48,1-1.36,1.34-2.63h1.42v17.34h-1.42c-.3-1.22-.74-2.09-1.32-2.59-.57-.51-1.38-.76-2.43-.76h-52.77v-1.47c1.18-.32,2.02-.77,2.51-1.36.49-.59.73-1.43.73-2.51v-47.99c0-1.08-.24-1.9-.71-2.46-.47-.56-1.32-1.03-2.53-1.41v-1.47h51.2c1.08,0,1.9-.24,2.45-.73.56-.49,1-1.36,1.34-2.62h1.36v17.34h-1.36c-.34-1.27-.78-2.15-1.34-2.63-.56-.48-1.38-.72-2.45-.72h-34.4v12.89h21.35c1.05,0,1.85-.24,2.4-.73.56-.49,1.02-1.36,1.39-2.62h1.37v16.92h-1.37c-.34-1.24-.78-2.11-1.34-2.61-.56-.5-1.38-.75-2.45-.75h-21.35Z"/>
        </g>
        <g class="cls-19">
          <rect class="cls-91" x="35.64" y="210.1" width="66.08" height="74.87"/>
        </g>
        <g class="cls-76">
          <rect class="cls-92" x="107.69" y="219.58" width="57.93" height="65.39"/>
        </g>
        <g class="cls-25">
          <rect class="cls-90" x="172.91" y="221.68" width="66.43" height="61.2"/>
        </g>
        <g class="cls-7">
          <rect class="cls-78" x="242.38" y="222.94" width="71.9" height="58.68"/>
        </g>
        <g class="cls-77">
          <rect class="cls-96" x="318.98" y="222.94" width="53.68" height="62.03"/>
        </g>
        <g class="cls-75">
          <rect class="cls-87" x="378.48" y="219.58" width="57.93" height="65.39"/>
        </g>
        <g class="cls-66">
          <rect class="cls-17" x="155.52" y="127.63" width="104.57" height="30.9"/>
        </g>
        <g class="cls-5">
          <rect class="cls-16" x="197.92" y="158.84" width="100.84" height="47.29"/>
        </g>
        <g class="cls-34">
          <rect class="cls-10" x="197" y="88.96" width="101.01" height="61.2"/>
        </g>
        <g class="cls-55">
          <rect class="cls-28" x="171.23" y="53.23" width="16.06" height="94.75"/>
        </g>
        <g class="cls-85">
          <rect class="cls-70" x="155.35" y="46.49" width="51.07" height="3.53"/>
        </g>
        <g class="cls-52">
          <rect class="cls-45" x="167.72" y="50.51" width="24.13" height="2.22"/>
        </g>
        <g class="cls-22">
          <rect class="cls-35" x="173.33" y="17.66" width="38.52" height="19.85"/>
        </g>
        <g class="cls-30">
          <rect class="cls-82" x="147.09" y="39.55" width="67.44" height="4.8"/>
        </g>
        <g class="cls-42">
          <rect class="cls-51" x="138.36" y="70.08" width="22.11" height="9.67"/>
        </g>
        <g class="cls-94">
          <rect class="cls-11" x="201.22" y="70" width="22.01" height="9.71"/>
        </g>
        <g class="cls-74">
          <rect class="cls-44" x="139.6" y="45.25" width="19.8" height="24.58"/>
        </g>
        <g class="cls-53">
          <rect class="cls-32" x="202.26" y="45.27" width="19.99" height="24.61"/>
        </g>
        <g class="cls-67">
          <rect class="cls-1" x="167.78" y="38.68" width="24.15" height="2.1"/>
        </g>
        <g class="cls-15">
          <path d="m99.2,347.26l2.09,3.74-.28.26c-.2-.17-.36-.26-.47-.26-.14,0-.47.19-.98.56-1.13.81-2.13,1.37-3,1.68-.87.31-1.87.47-3,.47-2.26,0-4.11-.66-5.54-1.99-.81-.76-1.46-1.71-1.93-2.85-.51-1.23-.77-2.57-.77-4.01,0-1.99.47-3.75,1.41-5.27,1.48-2.38,3.75-3.58,6.8-3.58,1.13,0,2.14.16,3.02.47.88.31,1.88.87,3.01,1.68.51.37.84.56.98.56.11,0,.27-.09.47-.26l.28.27-2.09,3.71-.27-.24c0-.12.02-.2.02-.23,0-.09.01-.16.01-.2,0-.49-.56-1.05-1.67-1.67-1.06-.59-2.12-.89-3.2-.89-1.5,0-2.74.48-3.72,1.45-1.12,1.09-1.67,2.48-1.67,4.19s.56,3.11,1.67,4.2c.98.96,2.22,1.43,3.72,1.43,1.17,0,2.34-.36,3.51-1.07.91-.57,1.36-1.06,1.36-1.49,0-.02-.01-.16-.04-.42l.27-.26Z"/>
          <path d="m111.13,336.02c2.21,0,4.05.69,5.52,2.06,1.76,1.66,2.64,3.96,2.64,6.93,0,2.78-.88,4.99-2.64,6.65-1.46,1.37-3.29,2.06-5.5,2.06s-4.04-.69-5.49-2.06c-1.77-1.66-2.65-3.92-2.65-6.79s.88-5.16,2.65-6.79c1.46-1.34,3.29-2.03,5.47-2.06m.01,3.21c-1.43,0-2.6.56-3.5,1.68-.84,1.05-1.25,2.37-1.25,3.96s.42,2.89,1.25,3.94c.9,1.13,2.07,1.7,3.51,1.7s2.6-.57,3.5-1.7c.84-1.04,1.25-2.33,1.25-3.86,0-1.67-.42-3.01-1.25-4.03-.91-1.1-2.08-1.66-3.51-1.68"/>
          <path d="m125.53,346.38v5.41c0,.31.06.55.17.72.12.17.32.3.62.42v.42h-4.91v-.42c.29-.09.49-.22.61-.39.12-.17.18-.41.18-.73v-13.88c0-.31-.06-.55-.17-.71-.12-.16-.32-.3-.62-.41v-.42h9.1c1.18,0,2.08.07,2.7.22.62.15,1.17.41,1.66.79,1,.8,1.5,2.1,1.5,3.91,0,1.37-.31,2.45-.92,3.22-.62.77-1.61,1.33-2.98,1.67l2.63,4.47c.48.83.86,1.39,1.15,1.69.29.3.61.49.97.57v.42h-5.84v-.42c.43-.14.65-.37.65-.68,0-.22-.13-.56-.4-1.01l-2.77-4.85h-3.32Zm0-3.08h5.01c.76,0,1.32-.1,1.68-.3.51-.27.77-.81.77-1.62,0-.72-.18-1.22-.54-1.5-.36-.28-1-.42-1.91-.42h-5.01v3.85Z"/>
          <path d="m143,346.38v5.41c0,.31.06.55.17.72.12.17.32.3.62.42v.42h-4.91v-.42c.29-.09.49-.22.61-.39.12-.17.18-.41.18-.73v-13.88c0-.31-.06-.55-.17-.71-.12-.16-.32-.3-.62-.41v-.42h9.05c1.79,0,3.14.33,4.05.99.53.38.94.93,1.24,1.64s.45,1.5.45,2.38c0,1.69-.47,2.94-1.41,3.77-.94.82-2.38,1.24-4.33,1.24h-4.93Zm0-3.08h4.73c.87,0,1.47-.1,1.81-.3.49-.29.74-.83.74-1.62s-.25-1.33-.74-1.62c-.33-.2-.93-.3-1.81-.3h-4.73v3.85Z"/>
          <path d="m163.25,336.02c2.21,0,4.05.69,5.52,2.06,1.76,1.66,2.64,3.96,2.64,6.93,0,2.78-.88,4.99-2.64,6.65-1.46,1.37-3.29,2.06-5.5,2.06s-4.04-.69-5.49-2.06c-1.77-1.66-2.65-3.92-2.65-6.79s.88-5.16,2.65-6.79c1.46-1.34,3.29-2.03,5.47-2.06m.01,3.21c-1.43,0-2.6.56-3.5,1.68-.84,1.05-1.25,2.37-1.25,3.96s.42,2.89,1.25,3.94c.9,1.13,2.07,1.7,3.51,1.7s2.6-.57,3.5-1.7c.84-1.04,1.25-2.33,1.25-3.86,0-1.67-.42-3.01-1.25-4.03-.91-1.1-2.08-1.66-3.51-1.68"/>
          <path d="m177.65,346.38v5.41c0,.31.06.55.17.72.12.17.32.3.62.42v.42h-4.91v-.42c.29-.09.49-.22.61-.39.12-.17.18-.41.18-.73v-13.88c0-.31-.06-.55-.17-.71-.12-.16-.32-.3-.62-.41v-.42h9.1c1.18,0,2.08.07,2.7.22.62.15,1.17.41,1.66.79,1,.8,1.5,2.1,1.5,3.91,0,1.37-.31,2.45-.92,3.22-.62.77-1.61,1.33-2.98,1.67l2.63,4.47c.48.83.86,1.39,1.15,1.69.29.3.61.49.97.57v.42h-5.84v-.42c.43-.14.65-.37.65-.68,0-.22-.13-.56-.4-1.01l-2.77-4.85h-3.32Zm0-3.08h5.01c.76,0,1.32-.1,1.68-.3.51-.27.77-.81.77-1.62,0-.72-.18-1.22-.54-1.5-.36-.28-1-.42-1.91-.42h-5.01v3.85Z"/>
          <path d="m202.11,349.11h-6.38l-.72,1.85c-.17.45-.26.79-.26,1.05,0,.49.26.79.79.92v.42h-5.1v-.42c.31-.06.55-.18.7-.35.15-.17.33-.51.54-1.02l5.07-12.55c.19-.47.29-.89.29-1.24,0-.41-.23-.74-.69-.97v-.42h5.39v.42c-.45.22-.68.57-.68,1.03,0,.33.1.74.31,1.23l5.26,12.17c.29.66.52,1.09.68,1.28.17.19.42.33.76.41v.42h-5.67v-.42c.54-.11.8-.42.8-.92,0-.31-.1-.7-.31-1.16l-.77-1.74Zm-1-2.38l-2.27-5.46-2.16,5.46h4.44Z"/>
          <path d="m222.78,347.26l2.09,3.74-.28.26c-.2-.17-.36-.26-.47-.26-.14,0-.47.19-.98.56-1.13.81-2.13,1.37-3,1.68-.87.31-1.87.47-3,.47-2.26,0-4.11-.66-5.54-1.99-.81-.76-1.45-1.71-1.93-2.85-.51-1.23-.77-2.57-.77-4.01,0-1.99.47-3.75,1.41-5.27,1.48-2.38,3.75-3.58,6.8-3.58,1.13,0,2.14.16,3.02.47.88.31,1.88.87,3.01,1.68.51.37.84.56.98.56.11,0,.27-.09.47-.26l.28.27-2.09,3.71-.27-.24c0-.12.02-.2.02-.23,0-.09.01-.16.01-.2,0-.49-.56-1.05-1.67-1.67-1.06-.59-2.12-.89-3.2-.89-1.5,0-2.74.48-3.72,1.45-1.12,1.09-1.67,2.48-1.67,4.19s.56,3.11,1.67,4.2c.98.96,2.22,1.43,3.72,1.43,1.17,0,2.34-.36,3.51-1.07.91-.57,1.36-1.06,1.36-1.49,0-.02-.01-.16-.04-.42l.27-.26Z"/>
          <path d="m231.01,337.93v13.87c0,.31.06.55.17.72.12.17.32.3.62.42v.42h-4.91v-.42c.29-.09.49-.22.61-.39.12-.17.18-.41.18-.73v-13.88c0-.31-.06-.55-.17-.71-.12-.16-.32-.3-.62-.41v-.43h4.91v.43c-.3.1-.5.23-.62.4-.11.17-.17.41-.17.72"/>
          <path d="m242.06,336.02c2.21,0,4.05.69,5.52,2.06,1.76,1.66,2.64,3.97,2.64,6.93,0,2.78-.88,4.99-2.64,6.65-1.46,1.37-3.29,2.06-5.5,2.06s-4.04-.69-5.49-2.06c-1.77-1.66-2.65-3.92-2.65-6.79s.89-5.16,2.65-6.79c1.46-1.34,3.29-2.03,5.47-2.06m.01,3.21c-1.43,0-2.6.56-3.5,1.68-.84,1.05-1.25,2.37-1.25,3.96s.42,2.89,1.25,3.94c.9,1.13,2.07,1.7,3.51,1.7s2.6-.57,3.5-1.7c.84-1.04,1.25-2.33,1.25-3.86,0-1.67-.42-3.01-1.25-4.03-.91-1.1-2.08-1.66-3.51-1.68m3.58-9.11v.41c-.32,0-.57.15-.73.41l-1.76,2.64c-.05.07-.07.15-.07.24,0,.16.09.24.26.24h.05v.41h-2.69v-.41c.2,0,.34-.03.42-.11.08-.07.16-.22.24-.44l.82-2.47c.03-.09.05-.17.05-.23,0-.16-.12-.26-.35-.29v-.41h3.77Z"/>
          <path d="m256.16,342.17v9.62c0,.31.06.55.18.73.12.17.32.31.61.41v.43h-4.61v-.43c.29-.09.49-.22.61-.39.12-.17.18-.41.18-.73v-13.88c0-.31-.06-.55-.17-.71-.12-.16-.32-.3-.62-.41v-.42h5.33v.42c-.36.11-.55.31-.55.59,0,.24.13.53.4.85l7.45,9.03v-9.35c0-.31-.06-.55-.17-.72-.12-.17-.32-.3-.62-.4v-.42h4.61v.42c-.3.1-.5.24-.62.4-.12.17-.17.41-.17.72v13.87c0,.31.06.55.17.72.12.17.32.31.62.42v.43h-4.97v-.43c.36-.09.55-.28.55-.56,0-.14-.05-.29-.15-.44-.1-.15-.33-.45-.68-.89l-7.37-8.88Z"/>
          <path d="m276.41,352.9l1.23-4.62.32.14c0,.36.09.65.27.86.26.31.73.6,1.39.85.67.25,1.29.38,1.88.38.88,0,1.54-.24,1.96-.73s.64-1.23.64-2.24v-9.61c0-.31-.06-.55-.17-.71-.12-.16-.32-.3-.62-.41v-.42h4.91v.42c-.3.1-.51.24-.62.4-.12.17-.17.41-.17.72v9.68c0,1.86-.26,3.19-.77,4-.42.67-1.04,1.18-1.87,1.55-.83.37-1.76.55-2.81.55-1.16,0-2.59-.33-4.29-1-.16-.06-.28-.09-.38-.09-.19,0-.38.13-.56.39l-.33-.12Z"/>
          <path d="m304.96,337.93v8.99c0,2.05-.33,3.56-.99,4.51-1.07,1.53-3.07,2.29-6.02,2.29-1.98,0-3.57-.37-4.78-1.11-.88-.54-1.48-1.3-1.8-2.29-.3-.91-.45-2.05-.45-3.41v-8.99c0-.31-.06-.55-.17-.71-.12-.16-.32-.3-.62-.41v-.42h4.91v.42c-.3.1-.51.24-.62.4-.11.17-.17.41-.17.72v8.17c0,.95.07,1.68.2,2.18.14.51.37.92.71,1.24.68.66,1.66.99,2.94.99s2.26-.33,2.94-.99c.33-.32.56-.74.7-1.24.13-.51.2-1.23.2-2.18v-8.17c0-.31-.06-.55-.17-.71-.11-.16-.32-.3-.63-.41v-.42h4.62v.42c-.3.1-.5.24-.62.4-.12.17-.17.41-.17.72"/>
          <path d="m312.04,346.38v5.41c0,.31.06.55.17.72.11.17.32.3.62.42v.42h-4.91v-.42c.29-.09.49-.22.61-.39.12-.17.18-.41.18-.73v-13.88c0-.31-.06-.55-.17-.71-.12-.16-.32-.3-.62-.41v-.42h9.1c1.18,0,2.08.07,2.7.22.62.15,1.17.41,1.66.79,1,.8,1.5,2.1,1.5,3.91,0,1.37-.31,2.45-.92,3.22-.62.77-1.61,1.33-2.98,1.67l2.63,4.47c.48.83.86,1.39,1.15,1.69.29.3.61.49.97.57v.42h-5.84v-.42c.43-.14.64-.37.64-.68,0-.22-.13-.56-.4-1.01l-2.77-4.85h-3.33Zm0-3.08h5.01c.76,0,1.32-.1,1.69-.3.51-.27.77-.81.77-1.62,0-.72-.18-1.22-.54-1.5-.36-.28-1-.42-1.91-.42h-5.01v3.85Z"/>
          <path d="m329.47,337.93v13.87c0,.31.06.55.17.72.11.17.32.31.62.42v.42h-4.91v-.42c.29-.09.49-.22.61-.39s.18-.41.18-.73v-13.88c0-.31-.06-.55-.17-.71-.12-.16-.32-.3-.62-.41v-.43h4.91v.43c-.3.1-.5.23-.62.4-.12.17-.17.41-.17.72m1.82-7.8v.41c-.32,0-.57.15-.73.41l-1.76,2.64c-.05.07-.07.15-.07.24,0,.16.09.24.26.24h.05v.41h-2.69v-.41c.2,0,.34-.03.42-.11.08-.07.16-.22.24-.44l.82-2.47c.03-.09.05-.17.05-.23,0-.16-.12-.26-.35-.29v-.41h3.77Z"/>
          <path d="m333.49,351.81v-13.88c0-.31-.06-.55-.17-.71-.12-.16-.32-.3-.62-.41v-.43h8.14c1.69,0,3.03.26,4,.77,1.37.73,2.36,1.93,2.96,3.61.42,1.17.63,2.54.63,4.11,0,2.9-.71,5.1-2.12,6.59-.64.67-1.39,1.15-2.25,1.45-.86.3-1.94.45-3.23.45h-8.14v-.42c.29-.09.49-.22.61-.39.12-.17.18-.41.18-.73m3.32-1.53h3.54c1.63,0,2.81-.45,3.55-1.36.77-.95,1.15-2.3,1.15-4.04s-.38-3.1-1.15-4.05c-.38-.48-.85-.82-1.41-1.04-.56-.22-1.27-.33-2.13-.33h-3.54v10.82Z"/>
          <path d="m354.68,337.93v13.87c0,.31.06.55.17.72.11.17.32.3.62.42v.42h-4.91v-.42c.29-.09.49-.22.61-.39.12-.17.18-.41.18-.73v-13.88c0-.31-.06-.55-.17-.71-.12-.16-.32-.3-.62-.41v-.43h4.91v.43c-.3.1-.5.23-.62.4-.12.17-.17.41-.17.72"/>
          <path d="m371.48,347.26l2.09,3.74-.28.26c-.2-.17-.36-.26-.47-.26-.14,0-.47.19-.98.56-1.13.81-2.13,1.37-3,1.68-.87.31-1.87.47-3,.47-2.27,0-4.11-.66-5.54-1.99-.81-.76-1.45-1.71-1.93-2.85-.51-1.23-.77-2.57-.77-4.01,0-1.99.47-3.75,1.41-5.27,1.48-2.38,3.75-3.58,6.8-3.58,1.13,0,2.14.16,3.02.47.88.31,1.88.87,3.01,1.68.51.37.84.56.98.56.12,0,.27-.09.47-.26l.28.27-2.09,3.71-.27-.24c0-.12.02-.2.02-.23,0-.09.01-.16.01-.2,0-.49-.56-1.05-1.67-1.67-1.06-.59-2.12-.89-3.2-.89-1.5,0-2.74.48-3.72,1.45-1.11,1.09-1.67,2.48-1.67,4.19s.56,3.11,1.67,4.2c.98.96,2.22,1.43,3.72,1.43,1.17,0,2.34-.36,3.51-1.07.91-.57,1.36-1.06,1.36-1.49,0-.02-.01-.16-.04-.42l.27-.26Z"/>
          <path d="m386.12,349.11h-6.38l-.72,1.85c-.17.45-.26.79-.26,1.05,0,.49.26.79.79.92v.42h-5.1v-.42c.31-.06.55-.18.7-.35.15-.17.33-.51.54-1.02l5.07-12.55c.19-.47.29-.89.29-1.24,0-.41-.23-.74-.69-.97v-.42h5.39v.42c-.45.22-.68.57-.68,1.03,0,.33.1.74.31,1.23l5.26,12.17c.29.66.52,1.09.68,1.28.16.19.42.33.76.41v.42h-5.67v-.42c.54-.11.8-.42.8-.92,0-.31-.1-.7-.31-1.16l-.77-1.74Zm-1-2.38l-2.27-5.46-2.16,5.46h4.44Z"/>
        </g>
        <g class="cls-8">
          <rect class="cls-12" x="85.32" y="336.02" width="15.98" height="17.7"/>
        </g>
        <g class="cls-36">
          <rect class="cls-71" x="103" y="336.02" width="16.29" height="17.7"/>
        </g>
        <g class="cls-98">
          <rect class="cls-97" x="121.41" y="336.38" width="15.8" height="16.97"/>
        </g>
        <g class="cls-41">
          <rect class="cls-62" x="138.89" y="336.38" width="14.79" height="16.97"/>
        </g>
        <g class="cls-20">
          <rect class="cls-65" x="155.13" y="336.02" width="16.29" height="17.7"/>
        </g>
        <g class="cls-39">
          <rect class="cls-89" x="173.53" y="336.38" width="15.8" height="16.97"/>
        </g>
        <g class="cls-63">
          <rect class="cls-24" x="190.44" y="336.38" width="17.61" height="16.97"/>
        </g>
        <g class="cls-29">
          <rect class="cls-54" x="208.9" y="336.02" width="15.98" height="17.7"/>
        </g>
        <g class="cls-14">
          <rect class="cls-56" x="226.9" y="336.38" width="4.91" height="16.97"/>
        </g>
        <g class="cls-80">
          <rect class="cls-50" x="233.94" y="330.12" width="16.29" height="23.59"/>
        </g>
        <g class="cls-72">
          <rect class="cls-26" x="252.34" y="336.38" width="16.45" height="16.97"/>
        </g>
        <g class="cls-46">
          <rect class="cls-86" x="276.41" y="336.38" width="11.81" height="17.33"/>
        </g>
        <g class="cls-3">
          <rect class="cls-61" x="290.12" y="336.38" width="15.63" height="17.33"/>
        </g>
        <g class="cls-21">
          <rect class="cls-40" x="307.92" y="336.38" width="15.8" height="16.97"/>
        </g>
        <g class="cls-9">
          <rect class="cls-2" x="325.35" y="330.12" width="5.94" height="23.23"/>
        </g>
        <g class="cls-60">
          <rect class="cls-68" x="332.7" y="336.38" width="15.74" height="16.97"/>
        </g>
        <g class="cls-88">
          <rect class="cls-43" x="350.56" y="336.38" width="4.91" height="16.97"/>
        </g>
        <g class="cls-59">
          <rect class="cls-81" x="357.6" y="336.02" width="15.98" height="17.7"/>
        </g>
        <g class="cls-93">
          <rect class="cls-95" x="374.45" y="336.38" width="17.61" height="16.97"/>
        </g>
      </g>
    </g>
  </g>
</svg>