<?xml version="1.0" encoding="UTF-8"?>
<svg id="Capa_2" data-name="Capa 2" xmlns="http://www.w3.org/2000/svg" xmlns:xlink="http://www.w3.org/1999/xlink" viewBox="0 0 42.41 37.96">
  <defs>
    <style>
      .cls-1 {
        fill: url(#Degradado_sin_nombre_52);
      }

      .cls-2 {
        clip-path: url(#clippath-1);
      }

      .cls-3 {
        fill: url(#Degradado_sin_nombre_52-2);
      }

      .cls-4 {
        clip-path: url(#clippath);
      }

      .cls-5 {
        fill: none;
      }
    </style>
    <clipPath id="clippath">
      <path class="cls-5" d="m20.05,9.58c-.23.1-.41.24-.55.45-2.33,2.61-4.65,5.22-6.99,7.83-.07.11-.16.2-.26.27-.11.07-.22.12-.35.14-.13.02-.25.02-.38,0-.13-.03-.24-.08-.35-.16-.1-.08-.18-.17-.24-.28-.06-.11-.1-.22-.11-.35-.01-.12,0-.24.04-.36.04-.12.1-.22.18-.32.22-.37.46-.73.66-1.11.12-.21.18-.44.15-.69-.02-.25-.11-.46-.27-.65-.14-.21-.33-.35-.57-.43-.24-.08-.47-.08-.71,0-.32.12-.59.32-.8.59-1.55,2.05-3.09,4.11-4.61,6.18-.35.49-.64,1-.87,1.55-.84,2.08-1.03,4.22-.55,6.41.11.47,0,.87-.36,1.21-.49.51-.95,1.06-1.43,1.6l7.37,6.48c.63-.71,1.26-1.39,1.85-2.09.27-.34.62-.49,1.06-.46,1.49.07,2.92-.18,4.28-.78,1.36-.59,2.53-1.46,3.48-2.6,3.16-3.56,6.33-7.12,9.51-10.66.61-.68.64-1.35.09-1.84-.55-.49-1.23-.38-1.83.3l-.15.17-4.46,5c-.06.07-.12.13-.18.2-.16.2-.36.31-.62.33-.25.02-.47-.05-.67-.21-.1-.08-.17-.18-.23-.29-.06-.11-.09-.23-.09-.35,0-.12.02-.24.06-.36.05-.12.12-.22.21-.3,1.09-1.24,2.2-2.47,3.29-3.7.98-1.1,1.97-2.19,2.94-3.3.34-.33.45-.72.32-1.17-.13-.45-.42-.73-.88-.84-.25-.05-.49-.03-.73.06-.24.09-.43.24-.57.45-1.92,2.16-3.84,4.31-5.76,6.46-.17.21-.35.4-.55.58-.12.13-.28.21-.45.23-.18.02-.35-.02-.49-.12-.26-.2-.42-.46-.48-.77.01-.29.12-.53.33-.73,2.04-2.31,2.47-2.99,4.52-5.28.58-.65,1.18-1.3,1.74-1.97.1-.12.18-.25.22-.4.05-.15.06-.3.05-.45-.02-.15-.06-.3-.14-.43-.07-.14-.17-.25-.29-.35-.11-.11-.24-.18-.39-.24-.14-.05-.29-.08-.45-.07-.15,0-.3.04-.45.1-.14.06-.27.15-.38.26-.11.1-.2.22-.3.33-2.54,2.84-3.44,4.07-5.99,6.9-.16.18-.35.31-.57.39-.19.06-.37.06-.55-.01-.18-.07-.32-.19-.42-.36-.11-.18-.16-.38-.13-.6.03-.21.12-.4.28-.54.98-1.1,1.96-2.2,2.94-3.3,1.1-1.23,2.21-2.46,3.3-3.7.33-.32.43-.71.29-1.15-.14-.44-.43-.71-.89-.8-.07-.01-.14-.02-.21-.02,0,0,0,0,0,0-.17,0-.33.04-.48.1M11.93,0c-.52,0-1.04.04-1.55.12-.52.07-1.02.18-1.53.31-.5.14-.99.31-1.47.51-.48.2-.94.43-1.39.69-.45.26-.88.55-1.29.87-.41.32-.8.66-1.17,1.02-.37.37-.71.76-1.02,1.17-.32.41-.6.84-.86,1.29-.26.45-.49.91-.68,1.39-.2.48-.36.97-.5,1.47-.27.93-.41,1.88-.44,2.84-.03.97.07,1.92.28,2.86.21.94.54,1.84.99,2.71.44.86.99,1.65,1.63,2.38.08.1.16.21.27.35.3-.4.55-.73.8-1.06,1.32-1.78,2.7-3.51,3.95-5.34,1.03-1.51,2.02-1.39,2.27-1.42.68-.07,1.33.06,1.93.39.6.33,1.06.8,1.37,1.41.71-.82,4.08-4.67,5.61-5.74.19-.14.4-.24.63-.32.53-.17,1.06-.19,1.59-.06.54.14.99.4,1.37.8.38.45.59.97.62,1.55.42-.09.84-.09,1.26,0,.42.1.8.29,1.13.56.36.32.62.71.77,1.17.15.46.17.92.07,1.39.5-.04.99.04,1.45.23.47.19.86.48,1.19.86.35.46.55.98.6,1.55.04.58-.07,1.12-.35,1.63.12.06.21.1.3.15.22.09.42.21.61.35.19.14.36.3.51.48.15.18.28.38.38.59.1.21.18.43.23.66.05.23.07.46.06.7,0,.23-.04.47-.11.69-.06.23-.15.44-.27.65-.12.21-.26.39-.42.56-1.85,2.08-3.7,4.15-5.56,6.23-1.31,1.47-2.6,2.95-3.93,4.39-.77.82-1.61,1.58-2.43,2.37.66.66,1.36,1.39,2.09,2.08.27.26.58.15.83-.1.56-.56,1.12-1.11,1.68-1.67l5.08-5.03c.07-.06.13-.13.2-.19,1.89-1.89,8.76-8.69,10.13-10.05,1.57-1.53,2.64-3.36,3.2-5.47.11-.41.19-.82.26-1.23.06-.41.1-.83.12-1.25.02-.42.02-.84-.01-1.25-.03-.42-.07-.83-.15-1.25-.07-.41-.16-.82-.28-1.22-.11-.4-.25-.8-.4-1.19-.16-.39-.33-.77-.53-1.14-.2-.37-.41-.73-.65-1.08-.24-.35-.49-.68-.76-1-.27-.32-.56-.63-.86-.92-.3-.29-.62-.57-.95-.82-.33-.26-.68-.5-1.04-.72-.36-.22-.73-.42-1.11-.61-.38-.18-.77-.35-1.17-.49-.4-.14-.8-.26-1.21-.36-.41-.1-.82-.18-1.24-.23-.89-.13-1.79-.16-2.7-.09-.9.07-1.78.25-2.64.53-.86.28-1.68.65-2.45,1.11-.77.46-1.49,1.01-2.13,1.64-.68.63-1.03.63-1.71-.01-.37-.36-.77-.7-1.18-1.01-.42-.31-.85-.59-1.31-.84-.45-.25-.92-.48-1.41-.67-.48-.19-.98-.35-1.48-.48-.5-.13-1.02-.22-1.53-.29-.48-.06-.96-.09-1.44-.09h-.11"/>
    </clipPath>
    <linearGradient id="Degradado_sin_nombre_52" data-name="Degradado sin nombre 52" x1="-268.31" y1="137.82" x2="-267.31" y2="137.82" gradientTransform="translate(11371.29 5859.77) scale(42.38 -42.38)" gradientUnits="userSpaceOnUse">
      <stop offset="0" stop-color="#b9873d"/>
      <stop offset=".24" stop-color="#bc893d"/>
      <stop offset=".4" stop-color="#ddbe65"/>
      <stop offset=".53" stop-color="#f5e582"/>
      <stop offset=".77" stop-color="#f5e368"/>
      <stop offset=".8" stop-color="#edd963"/>
      <stop offset=".86" stop-color="#dac058"/>
      <stop offset=".93" stop-color="#ba9746"/>
      <stop offset="1" stop-color="#996d33"/>
    </linearGradient>
    <clipPath id="clippath-1">
      <path class="cls-5" d="m20.54,9.48c-.17,0-.33.03-.48.1-.23.1-.41.24-.55.45-2.33,2.61-4.65,5.22-6.99,7.83-.07.11-.16.2-.26.27-.11.07-.22.12-.35.14-.13.02-.25.02-.38,0-.13-.03-.24-.08-.35-.16-.1-.08-.18-.17-.24-.28-.06-.11-.1-.22-.11-.35-.01-.12,0-.24.04-.36.04-.12.1-.22.18-.32.22-.37.46-.73.66-1.11.12-.21.18-.44.15-.69-.02-.25-.11-.46-.27-.65-.14-.21-.33-.35-.57-.43-.24-.08-.47-.08-.71,0-.32.12-.59.32-.8.59-1.55,2.05-3.09,4.11-4.61,6.18-.35.49-.64,1-.87,1.55-.84,2.08-1.03,4.22-.55,6.41.11.47,0,.87-.36,1.21-.49.51-.95,1.06-1.43,1.6l7.37,6.48c.63-.71,1.26-1.39,1.85-2.09.27-.34.62-.49,1.06-.46,1.49.07,2.92-.18,4.28-.78,1.36-.59,2.53-1.46,3.48-2.6,3.16-3.56,6.33-7.12,9.51-10.66.61-.68.64-1.35.09-1.84-.55-.49-1.23-.38-1.83.3l-.15.17-4.46,5c-.06.07-.12.13-.18.2-.16.2-.36.31-.62.33-.25.02-.47-.05-.67-.21-.1-.08-.17-.18-.23-.29-.06-.11-.09-.23-.09-.35,0-.12.02-.24.06-.36.05-.12.12-.22.21-.3,1.09-1.24,2.2-2.47,3.29-3.7.98-1.1,1.97-2.19,2.94-3.3.34-.33.45-.72.32-1.17-.13-.45-.42-.73-.88-.84-.25-.05-.49-.03-.73.06-.24.09-.43.24-.57.45-1.92,2.16-3.84,4.31-5.76,6.46-.17.21-.35.4-.55.58-.12.13-.28.21-.45.23-.18.02-.35-.02-.49-.12-.26-.2-.42-.46-.48-.77.01-.29.12-.53.33-.73,2.04-2.31,2.47-2.99,4.52-5.28.58-.65,1.18-1.3,1.74-1.97.1-.12.18-.25.22-.4.05-.15.06-.3.05-.45-.02-.15-.06-.3-.14-.43-.07-.14-.17-.25-.29-.35-.11-.11-.24-.18-.39-.24-.14-.05-.29-.08-.45-.07-.15,0-.3.04-.45.1-.14.06-.27.15-.38.26-.11.1-.2.22-.3.33-2.54,2.84-3.44,4.07-5.99,6.9-.16.18-.35.31-.57.39-.19.06-.37.06-.55-.01-.18-.07-.32-.19-.42-.36-.11-.18-.16-.38-.13-.6.03-.21.12-.4.28-.54.98-1.1,1.96-2.2,2.94-3.3,1.1-1.23,2.21-2.46,3.3-3.7.33-.32.43-.71.29-1.15-.14-.44-.43-.71-.89-.8-.07-.01-.14-.02-.21-.02h0M11.93,0c-.52,0-1.04.04-1.55.11-.52.07-1.02.18-1.53.31-.5.14-.99.31-1.47.51-.48.2-.94.43-1.39.69-.45.26-.88.55-1.29.87-.41.32-.8.66-1.17,1.02-.37.37-.71.76-1.02,1.17-.32.41-.6.84-.86,1.29-.26.45-.49.91-.68,1.39-.2.48-.36.97-.5,1.47-.27.93-.41,1.88-.44,2.84-.03.97.07,1.92.28,2.86.21.94.54,1.84.99,2.71.44.86.99,1.65,1.63,2.38.08.1.16.21.27.35.3-.4.55-.73.8-1.06,1.32-1.78,2.7-3.51,3.95-5.34,1.03-1.51,2.02-1.39,2.27-1.42.68-.07,1.33.06,1.93.39.6.33,1.06.8,1.37,1.41.71-.82,4.08-4.67,5.61-5.74.19-.14.4-.24.63-.32.53-.17,1.06-.19,1.59-.06.54.14.99.4,1.37.8.38.45.59.97.62,1.55.42-.09.84-.09,1.26,0,.42.1.8.29,1.13.56.36.32.62.71.77,1.17.15.46.17.92.07,1.39.5-.04.99.04,1.45.23.47.19.86.48,1.19.86.35.46.55.98.6,1.55.04.58-.07,1.12-.35,1.63.12.06.21.1.3.15.22.09.42.21.61.35.19.14.36.3.51.48.15.18.28.38.38.59.1.21.18.43.23.66.05.23.07.46.06.7,0,.23-.04.47-.11.69-.06.23-.15.44-.27.65-.12.21-.26.39-.42.56-1.85,2.08-3.7,4.15-5.56,6.23-1.31,1.47-2.6,2.95-3.93,4.39-.77.82-1.61,1.58-2.43,2.37.66.66,1.36,1.39,2.09,2.08.27.26.58.15.83-.1.56-.56,1.12-1.11,1.68-1.67l5.08-5.03c.07-.06.13-.13.2-.19,1.89-1.89,8.76-8.69,10.13-10.05,1.57-1.53,2.64-3.36,3.2-5.47.11-.41.19-.82.26-1.23.06-.41.1-.83.12-1.25.02-.42.02-.84-.01-1.25-.03-.42-.07-.83-.15-1.25-.07-.41-.16-.82-.28-1.22-.11-.4-.25-.8-.4-1.19-.16-.39-.33-.77-.53-1.14-.2-.37-.41-.73-.65-1.08-.24-.35-.49-.68-.76-1-.27-.32-.56-.63-.86-.92-.3-.29-.62-.57-.95-.82-.33-.26-.68-.5-1.04-.72-.36-.22-.73-.42-1.11-.61-.38-.18-.77-.35-1.17-.49-.4-.14-.8-.26-1.21-.36-.41-.1-.82-.18-1.24-.23-.89-.13-1.79-.16-2.7-.09-.9.07-1.78.25-2.64.53-.86.28-1.68.65-2.45,1.11-.77.46-1.49,1.01-2.13,1.64-.68.63-1.03.63-1.71-.01-.37-.36-.77-.7-1.18-1.01-.42-.31-.85-.59-1.31-.84-.45-.25-.92-.48-1.41-.67-.48-.19-.98-.35-1.48-.48-.5-.13-1.02-.22-1.53-.29-.48-.06-.96-.09-1.44-.09-.04,0-.08,0-.11,0"/>
    </clipPath>
    <linearGradient id="Degradado_sin_nombre_52-2" data-name="Degradado sin nombre 52" x1="-268.31" y1="137.82" x2="-267.31" y2="137.82" gradientTransform="translate(11379.12 5863.81) scale(42.41 -42.41)" xlink:href="#Degradado_sin_nombre_52"/>
  </defs>
  <g id="Capa_1-2" data-name="Capa 1">
    <g>
      <g class="cls-4">
        <rect class="cls-1" y="0" width="42.41" height="37.96"/>
      </g>
      <g class="cls-2">
        <rect class="cls-3" x="0" y="0" width="42.41" height="37.96"/>
      </g>
    </g>
  </g>
</svg>