<?xml version="1.0" encoding="UTF-8"?>
<svg id="Capa_2" data-name="Capa 2" xmlns="http://www.w3.org/2000/svg" xmlns:xlink="http://www.w3.org/1999/xlink" viewBox="0 0 45.01 44.02">
  <defs>
    <style>
      .cls-1 {
        fill: url(#Degradado_sin_nombre_62);
      }

      .cls-2 {
        clip-path: url(#clippath-1);
      }

      .cls-3 {
        clip-path: url(#clippath);
      }

      .cls-4 {
        fill: none;
      }

      .cls-5 {
        fill: url(#Degradado_sin_nombre_62-2);
      }
    </style>
    <clipPath id="clippath">
      <path class="cls-4" d="m2.82,26.26s-.09-.05-.13-.08c-.03-.03-.06-.05-.1-.07-.02-.01-.04-.03-.06-.05-.04-.03-.07-.07-.11-.1-.02-.03-.05-.06-.07-.08-.01-.02-.03-.04-.05-.07-.02-.04-.04-.09-.07-.13-.01-.01-.01-.03-.02-.03,0-.01,0-.03-.01-.04-.01-.06-.03-.13-.05-.19,0-.07,0-.15,0-.23.01-.04.02-.09.04-.14,0-.01,0-.02,0-.02h0s.04-.07.06-.11c0,0,0,0,0,0,0,0,.03-.03.06-.06.02-.01.03-.02.04-.03.03-.02.07-.04.1-.06h0s.08-.02.12-.04c.01,0,0,0,.01,0,.02,0,.05,0,.07,0,.01,0,.04,0,.07.01h.01s.01.02.02.02l.03.03s.04.04.06.07c.02.04.04.08.06.12h0s0,.02,0,.02c.01.06.03.12.04.17,0,.02.01.05.01.07,0,.02,0,.04,0,.06,0,.06,0,.12,0,.18,0,.09-.01.18-.02.27-.01.06-.03.13-.04.19-.03.1-.07.21-.1.32,0,0-.01-.01-.02-.01m32.5-2.6c.07,0,.14-.01.21-.02.04-.01.08-.02.11-.04.04-.01.07-.03.1-.04.05-.05.13-.08.19-.12l.03-.02s.04-.03.05-.05c.05-.06.1-.11.14-.17.02-.04.04-.08.06-.12.01-.03.03-.06.04-.09,0-.01.01-.03.02-.04.06-.22.18-.4.38-.52.2-.12.41-.15.64-.1.23.06.4.18.52.38.12.2.16.41.11.64h0c-.07.28-.18.54-.34.79-.15.24-.34.46-.57.64-.22.18-.47.32-.74.43-.27.1-.55.16-.84.17-.29.01-.57-.02-.85-.1-.28-.08-.53-.2-.77-.36-.24-.16-.44-.36-.62-.59-.17-.23-.31-.48-.4-.75-.08-.22-.07-.44.04-.65.1-.21.26-.36.49-.44.22-.08.44-.07.65.04.21.1.36.26.44.49.01.04.03.08.04.12.04.07.09.14.13.2.02.02.03.04.05.05.06.04.12.09.17.14.03.02.06.03.09.05.04.02.08.04.12.06.07.02.13.04.2.05h0s.02,0,.03,0c.03,0,.06,0,.09.01-.02,0-.02,0-.04-.01m-3.46-9.52c-.09.08-.18.15-.3.19-.47.79-1.03,1.51-1.68,2.17-.18.18-.35.34-.54.5-.05.17-.14.32-.28.43-.14.11-.3.17-.48.18-.08,0-.17,0-.25-.02-.72-.17-1.45-.3-2.19-.38-3.08-.36-6.1-.04-9.03.97-.02,0-.04.01-.06.02-.11.03-.21.04-.32.02-.11-.02-.21-.06-.3-.12-.09-.06-.17-.14-.22-.23-.06-.09-.09-.19-.11-.3-.38-.28-.73-.57-1.07-.89-.05-.05-.1-.1-.17-.17-.47-.47-.89-.98-1.27-1.53-1.13.49-2.18,1.12-3.13,1.91-.95.78-1.78,1.69-2.47,2.7-.7,1.02-1.24,2.11-1.62,3.29-.38,1.17-.6,2.38-.64,3.61l-1,.02-.15.02c.21-.7.19-1.39-.04-2.08-.11-.33-.29-.62-.55-.86-.26-.24-.56-.4-.9-.49-.72-.14-1.35.03-1.89.51-1.09.95-.86,2.71.11,3.65.16.15.33.28.52.4-.02.02-.03.03-.04.03-.1.07-.2.13-.29.18-.04.02-.08.04-.12.06-.03.01-.06.03-.09.04-.21.08-.42.14-.64.18-.22.06-.39.2-.51.4-.11.2-.14.42-.08.64.07.22.2.39.41.5.2.12.42.14.64.09,1.05-.21,1.9-.74,2.57-1.57.27.02,1.25,0,2.11-.03.06.53.15,1.06.29,1.58.24.93.58,1.82,1.01,2.68.43.86.95,1.65,1.56,2.4.61.74,1.29,1.41,2.04,2,.75.59,1.56,1.1,2.42,1.52.21.03.39.12.53.28.14.16.22.35.22.56.04.61.08,1.23.13,1.84.04.56.05,1.14.13,1.7,0,0,.05.22.06.25.03.11.06.23.1.33,0,0,.08.14.11.19h0s.08.08.12.12c.01,0,.15.11.18.13.04.02.08.04.12.06.01,0,.02,0,.04.01.1.03.2.07.31.09.08,0,.15.02.22.04.43.04.86.05,1.3.02.11,0,.22-.01.34-.02.02,0,.03,0,.05,0,.05,0,.1-.02.14-.02.03,0,.21-.07.22-.07.05-.02.09-.05.13-.07.03-.03.04-.04.05-.05.02-.03.04-.07.06-.1,0-.02.06-.21.06-.24,0-.02,0-.05.01-.07v.02s0-.03,0-.04c0-.05,0-.09.01-.14.02-.14.02-.29.04-.43.05-.6.1-1.21.16-1.82,0-.05.01-.1.02-.15.02-.22.11-.41.27-.56.16-.15.36-.22.57-.22,3.26.43,6.54.52,9.83.26.02,0,.05,0,.07,0,.22.03.41.11.57.26.57.54.11,1.64.54,2.69.2.49.43.58.49.59.08.02.3.07.41.09.06.01.12.02.18.03h.06c.26.03.52.04.78.03.14,0,.28-.02.42-.03h.01c.06,0,.12-.02.18-.03.4-.12.6-.18.72-.31.07-.18.13-.36.17-.54.05-.18.09-.37.13-.55.02-.08.03-.16.05-.24,0-.02.02-.16.03-.21,0-.02.02-.19.02-.21,0-.08.01-.16.02-.25.02-.26.02-.53.02-.57,0-.54-.04-1.34-.05-1.38-.03-.47.07-.9.32-1.3.16-.23.35-.43.59-.58.01,0,.02-.01.03-.01,1.29-.47,2.43-1.17,3.42-2.11.5-.46.94-.97,1.33-1.53.39-.55.72-1.14.99-1.76.06-.18.17-.32.32-.44.15-.11.32-.17.51-.18,1.06-.32,2.15-.58,3.19-.98.34-.08.58-.28.73-.59.08-.49.07-.98-.05-1.46-.08-.62-.16-1.26-.24-1.89-.02-.45-.11-.89-.26-1.32-.33-.73-1.32-.75-2.01-.79-.15,0-.29-.05-.42-.13-.37-.28-.59-.65-.63-1.11-.32-1.52-.48-3.18-3.15-4.68-.16-.1-.28-.24-.35-.42-.07-.18-.08-.36-.04-.54.38-1.63,1.26-5-.85-5.88-.34-.14-.67-.2-1-.2-1.56,0-3,1.38-4.07,2.38M21.59.03c-.52.04-1.04.13-1.54.27-.51.14-1,.31-1.47.53-.47.22-.93.48-1.35.78-.43.3-.83.64-1.21,1.01-.04.05-.08.09-.13.14-.22.23-.43.47-.62.72-.35.45-.65.92-.91,1.42-.54,1.06-.86,2.19-.94,3.38-.02.19-.03.4-.03.6,0,.05,0,.11,0,.16,0,.51.04,1.01.13,1.51.1.59.25,1.17.47,1.73.45,1.19,1.13,2.23,2.03,3.12.06.05.1.1.15.14.31.3.64.58,1,.83,1.5-.48,3.04-.79,4.61-.92-.14-.16-.22-.35-.22-.56v-.92c-.71-.06-1.32-.34-1.83-.84-.57-.57-.86-1.25-.85-2.06,0-.03,0-.06.01-.09.01-.19.09-.35.22-.49.26-.26.56-.33.9-.19.34.14.51.39.52.76,0,.04,0,.08,0,.12.03.3.15.55.37.76.24.26.54.38.89.38h1.2c.33,0,.61-.11.84-.33.02-.01.03-.03.04-.04.18-.18.29-.39.34-.64.01-.06.02-.12.02-.18,0-.02,0-.04,0-.07,0-.34-.11-.63-.35-.87,0,0,0-.01-.01-.02-.19-.19-.42-.31-.68-.35-.07-.01-.14-.02-.21-.02h-1.2c-.12,0-.23,0-.35-.02-.67-.08-1.23-.36-1.71-.84-.58-.57-.86-1.25-.86-2.06v-.02s0-.04,0-.07c0-.06,0-.12.01-.18,0-.02,0-.04,0-.07.05-.48.21-.92.49-1.32.1-.15.22-.28.35-.41.5-.51,1.11-.79,1.82-.85h0v-.93s0-.07.01-.1c0,0,0-.02,0-.02,0,0,0-.01,0-.02.03-.2.12-.36.28-.49.15-.13.33-.19.53-.19.23,0,.42.08.58.24.16.16.24.35.24.58v.93c.36.03.71.13,1.04.29.33.16.62.38.87.64.25.27.44.57.57.91.13.34.21.69.21,1.06,0,.02,0,.04,0,.05,0,.04,0,.08-.01.12-.04.17-.12.31-.25.43-.16.15-.35.22-.57.22-.23,0-.43-.08-.59-.25-.16-.16-.25-.36-.25-.59,0-.17-.03-.32-.09-.48-.06-.15-.15-.29-.27-.41-.12-.12-.25-.21-.41-.27-.15-.06-.31-.09-.48-.09h-1.2c-.35,0-.64.12-.89.37-.09.09-.16.18-.21.3-.1.16-.15.33-.15.51,0,.02,0,.05,0,.07,0,.04,0,.09,0,.13.03.3.15.55.37.76,0,0,0,.01.01.01.24.24.53.37.87.37h1.2c.36,0,.71.07,1.04.2.34.13.64.32.9.56.27.24.48.52.64.85.16.32.26.66.29,1.02l.02.13c0,.05.01.1.01.15,0,.08,0,.16-.01.25,0,.04,0,.08-.01.13-.02.16-.06.31-.1.47-.14.46-.39.87-.73,1.21-.31.31-.68.54-1.09.69-.24.08-.48.13-.73.15v.92c0,.18-.05.34-.16.48,1.76-.06,3.5.1,5.22.46.16-.13.31-.27.46-.42,1.31-1.29,2.14-2.85,2.48-4.66.03-.14.05-.28.07-.43.04-.27.07-.54.08-.81.01-.17.02-.35.02-.52,0-1.19-.23-2.34-.68-3.44-.46-1.1-1.11-2.07-1.96-2.91-.37-.37-.77-.71-1.2-1.01-.43-.3-.88-.56-1.36-.78-.47-.22-.96-.4-1.47-.53-.51-.13-1.02-.22-1.54-.27-.26-.02-.52-.04-.79-.04s-.52.01-.78.03"/>
    </clipPath>
    <linearGradient id="Degradado_sin_nombre_62" data-name="Degradado sin nombre 62" x1="-110.04" y1="140.74" x2="-109.04" y2="140.74" gradientTransform="translate(4946.42 6348.29) scale(44.95 -44.95)" gradientUnits="userSpaceOnUse">
      <stop offset="0" stop-color="#b9873d"/>
      <stop offset=".24" stop-color="#bc893d"/>
      <stop offset=".4" stop-color="#ddbe65"/>
      <stop offset=".53" stop-color="#f5e582"/>
      <stop offset=".77" stop-color="#f5e368"/>
      <stop offset=".8" stop-color="#edd963"/>
      <stop offset=".86" stop-color="#dac058"/>
      <stop offset=".93" stop-color="#ba9746"/>
      <stop offset="1" stop-color="#996d33"/>
    </linearGradient>
    <clipPath id="clippath-1">
      <path class="cls-4" d="m2.82,26.26s-.09-.05-.13-.08c-.03-.03-.06-.05-.1-.07-.02-.01-.04-.03-.06-.05-.04-.03-.07-.07-.11-.1-.02-.03-.05-.06-.07-.08-.01-.02-.03-.04-.05-.07-.02-.04-.04-.09-.07-.13-.01-.01-.01-.03-.02-.03,0-.01,0-.03-.01-.04-.01-.06-.03-.13-.05-.19,0-.07,0-.15,0-.23.01-.04.02-.09.04-.14,0-.01,0-.02,0-.02h0s.04-.07.06-.11c0,0,0,0,0,0,0,0,.03-.03.06-.06.02-.01.03-.02.04-.03.03-.02.07-.04.1-.06h0s.08-.02.12-.04c.01,0,0,0,.01,0,.02,0,.05,0,.07,0,.01,0,.04,0,.07.01h.01s.01.02.02.02l.03.03s.04.04.06.07c.02.04.04.08.06.12h0s0,.02,0,.02c.01.06.03.12.04.17,0,.02.01.05.01.07,0,.02,0,.04,0,.06,0,.06,0,.12,0,.18,0,.09-.01.18-.02.27-.01.06-.03.13-.04.19-.03.1-.07.21-.1.32,0,0-.01-.01-.02-.01m32.5-2.6c.07,0,.14-.01.21-.02.04-.01.08-.02.11-.04.04-.01.07-.03.1-.04.05-.05.13-.08.19-.12l.03-.02s.04-.03.05-.05c.05-.06.1-.11.14-.17.02-.04.04-.08.06-.12.01-.03.03-.06.04-.09,0-.01.01-.03.02-.04.06-.22.18-.4.38-.52.2-.12.41-.15.64-.1.23.06.4.18.52.38.12.2.16.41.11.64h0c-.07.28-.18.54-.34.79-.15.24-.34.46-.57.64-.22.18-.47.32-.74.43-.27.1-.55.16-.84.17-.29.01-.57-.02-.85-.1-.28-.08-.53-.2-.77-.36-.24-.16-.44-.36-.62-.59-.17-.23-.31-.48-.4-.75-.08-.22-.07-.44.04-.65.1-.21.26-.36.49-.44.22-.08.44-.07.65.04.21.1.36.26.44.49.01.04.03.08.04.12.04.07.09.14.13.2.02.02.03.04.05.05.06.04.12.09.17.14.03.02.06.03.09.05.04.02.08.04.12.06.07.02.13.04.2.05h0s.02,0,.03,0c.03,0,.06,0,.09.01-.02,0-.02,0-.04-.01m-3.46-9.52c-.09.08-.18.15-.3.19-.47.79-1.03,1.51-1.68,2.17-.18.18-.35.34-.54.5-.05.17-.14.32-.28.43-.14.11-.3.17-.48.18-.08,0-.17,0-.25-.02-.72-.17-1.45-.3-2.19-.38-3.08-.36-6.1-.04-9.03.97-.02,0-.04.01-.06.02-.11.03-.21.04-.32.02-.11-.02-.21-.06-.3-.12-.09-.06-.17-.14-.22-.23-.06-.09-.09-.19-.11-.3-.38-.28-.73-.57-1.07-.89-.05-.05-.1-.1-.17-.17-.47-.47-.89-.98-1.27-1.53-1.13.49-2.18,1.12-3.13,1.91-.95.78-1.78,1.69-2.47,2.7-.7,1.02-1.24,2.11-1.62,3.29-.38,1.17-.6,2.38-.64,3.61l-1,.02-.15.02c.21-.7.19-1.39-.04-2.08-.11-.33-.29-.62-.55-.86-.26-.24-.56-.4-.9-.49-.72-.14-1.35.03-1.89.51-1.09.95-.86,2.71.11,3.65.16.15.33.28.52.4-.02.02-.03.03-.04.03-.1.07-.2.13-.29.18-.04.02-.08.04-.12.06-.03.01-.06.03-.09.04-.21.08-.42.14-.64.18-.22.06-.39.2-.51.4-.11.2-.14.42-.08.64.07.22.2.39.41.5.2.12.42.14.64.09,1.05-.21,1.9-.74,2.57-1.57.27.02,1.25,0,2.11-.03.06.53.15,1.06.29,1.58.24.93.58,1.82,1.01,2.68.43.86.95,1.65,1.56,2.4.61.74,1.29,1.41,2.04,2,.75.59,1.56,1.1,2.42,1.52.21.03.39.12.53.28.14.16.22.35.22.56.04.61.08,1.23.13,1.84.04.56.05,1.14.13,1.7,0,0,.05.22.06.25.03.11.06.23.1.33,0,0,.08.14.11.19h0s.08.08.12.12c.01,0,.15.11.18.13.04.02.08.04.12.06.01,0,.02,0,.04.01.1.03.2.07.31.09.08,0,.15.02.22.04.43.04.86.05,1.3.02.11,0,.22-.01.34-.02.02,0,.03,0,.05,0,.05,0,.1-.02.14-.02.03,0,.21-.07.22-.07.05-.02.09-.05.13-.07.03-.03.04-.04.05-.05.02-.03.04-.07.06-.1,0-.02.06-.21.06-.24,0-.02,0-.05.01-.07v.02s0-.03,0-.04c0-.05,0-.09.01-.14.02-.14.02-.29.04-.43.05-.6.1-1.21.16-1.82,0-.05.01-.1.02-.15.02-.22.11-.41.27-.56.16-.15.36-.22.57-.22,3.26.43,6.54.52,9.83.26.02,0,.05,0,.07,0,.22.03.41.11.57.26.57.54.11,1.64.54,2.69.2.49.43.58.49.59.08.02.3.07.41.09.06.01.12.02.18.03h.06c.26.03.52.04.78.03.14,0,.28-.02.42-.03h.01c.06,0,.12-.02.18-.03.4-.12.6-.18.72-.31.07-.18.13-.36.17-.54.05-.18.09-.37.13-.55.02-.08.03-.16.05-.24,0-.02.02-.16.03-.21,0-.02.02-.19.02-.21,0-.08.01-.16.02-.25.02-.26.02-.53.02-.57,0-.54-.04-1.34-.05-1.38-.03-.47.07-.9.32-1.3.16-.23.35-.43.59-.58.01,0,.02-.01.03-.01,1.29-.47,2.43-1.17,3.42-2.11.5-.46.94-.97,1.33-1.53.39-.55.72-1.14.99-1.76.06-.18.17-.32.32-.44.15-.11.32-.17.51-.18,1.06-.32,2.15-.58,3.19-.98.34-.08.58-.28.73-.59.08-.49.07-.98-.05-1.46-.08-.62-.16-1.26-.24-1.89-.02-.45-.11-.89-.26-1.32-.33-.73-1.32-.75-2.01-.79-.15,0-.29-.05-.42-.13-.37-.28-.59-.65-.64-1.11-.32-1.52-.48-3.18-3.14-4.68-.16-.1-.28-.24-.35-.42-.07-.18-.08-.36-.04-.54.38-1.63,1.26-5-.85-5.88-.34-.14-.67-.2-1-.2-1.56,0-3,1.38-4.07,2.38M21.59.03c-.52.04-1.04.13-1.54.27-.51.14-1,.31-1.47.53-.47.22-.93.48-1.35.78-.43.3-.83.64-1.21,1.01-.04.05-.08.09-.13.14-.22.23-.43.47-.62.72-.35.45-.65.92-.91,1.42-.54,1.06-.86,2.19-.94,3.38-.02.19-.03.4-.03.6,0,.05,0,.11,0,.16,0,.51.04,1.01.13,1.51.1.59.25,1.17.47,1.73.45,1.19,1.13,2.23,2.03,3.12.06.05.1.1.15.14.31.3.64.58,1,.83,1.5-.48,3.04-.79,4.61-.92-.14-.16-.22-.35-.22-.56v-.92c-.71-.06-1.32-.34-1.83-.84-.57-.57-.86-1.25-.85-2.06,0-.03,0-.06.01-.09.01-.19.09-.35.22-.49.26-.26.56-.33.9-.19.34.14.51.39.52.76,0,.04,0,.08,0,.12.03.3.15.55.37.76.24.26.54.38.89.38h1.2c.33,0,.61-.11.84-.33.02-.01.03-.03.04-.04.18-.18.29-.39.34-.64.01-.06.02-.12.02-.18,0-.02,0-.04,0-.07,0-.34-.11-.63-.35-.87,0,0,0-.01-.01-.02-.19-.19-.42-.31-.68-.35-.07-.01-.14-.02-.21-.02h-1.2c-.12,0-.23,0-.35-.02-.67-.08-1.23-.36-1.71-.84-.57-.57-.86-1.25-.85-2.06v-.02s0-.04,0-.07c0-.06,0-.12.01-.18,0-.02,0-.04,0-.07.05-.48.21-.92.49-1.32.1-.15.22-.28.35-.41.5-.51,1.11-.79,1.82-.85h0v-.93s0-.07.01-.1c0,0,0-.02,0-.02,0,0,0-.01,0-.02.03-.2.12-.36.28-.49.15-.13.33-.19.53-.19.23,0,.42.08.58.24.16.16.24.35.24.58v.93c.36.03.71.13,1.04.29.33.16.62.38.87.64.25.27.44.57.57.91.13.34.21.69.21,1.06,0,.02,0,.04,0,.05,0,.04,0,.08-.01.12-.04.17-.12.31-.25.43-.16.15-.35.22-.57.22-.23,0-.43-.08-.59-.25-.16-.16-.25-.36-.25-.59,0-.17-.03-.32-.09-.48-.06-.15-.15-.29-.27-.41-.12-.12-.25-.21-.41-.27-.15-.06-.31-.09-.48-.09h-1.2c-.35,0-.64.12-.89.37-.09.09-.16.18-.21.3-.1.16-.15.33-.15.51,0,.02,0,.05,0,.07,0,.04,0,.09,0,.13.03.3.15.55.37.76,0,0,0,.01.01.01.24.24.53.37.87.37h1.2c.36,0,.71.07,1.04.2.34.13.64.32.9.56.27.24.48.52.64.85.16.32.26.66.29,1.02l.02.13c0,.05.01.1.01.15,0,.08,0,.16-.01.25,0,.04,0,.08-.01.13-.02.16-.06.31-.1.47-.14.46-.39.87-.73,1.21-.31.31-.68.54-1.09.69-.24.08-.48.13-.73.15v.92c0,.18-.05.34-.16.48,1.76-.06,3.5.1,5.22.46.16-.13.31-.27.46-.42,1.31-1.29,2.14-2.85,2.48-4.66.03-.14.05-.28.07-.43.04-.27.07-.54.08-.81.01-.17.02-.35.02-.52,0-1.19-.23-2.34-.68-3.44-.46-1.1-1.11-2.07-1.96-2.91-.37-.37-.77-.71-1.2-1.01-.43-.3-.88-.56-1.36-.78-.47-.22-.96-.4-1.47-.53-.51-.13-1.02-.22-1.54-.27-.26-.02-.52-.04-.79-.04s-.52.01-.78.03"/>
    </clipPath>
    <linearGradient id="Degradado_sin_nombre_62-2" data-name="Degradado sin nombre 62" x1="-110.04" y1="140.74" x2="-109.04" y2="140.74" gradientTransform="translate(4953.11 6356.9) scale(45.01 -45.01)" xlink:href="#Degradado_sin_nombre_62"/>
  </defs>
  <g id="Capa_1-2" data-name="Capa 1">
    <g>
      <g class="cls-3">
        <rect class="cls-1" x="0" width="45.01" height="44.02"/>
      </g>
      <g class="cls-2">
        <rect class="cls-5" width="45.01" height="44.02"/>
      </g>
    </g>
  </g>
</svg>