<?xml version="1.0" encoding="UTF-8"?>
<svg id="Capa_2" data-name="Capa 2" xmlns="http://www.w3.org/2000/svg" xmlns:xlink="http://www.w3.org/1999/xlink" viewBox="0 0 50.93 40.91">
  <defs>
    <style>
      .cls-1 {
        fill: url(#Degradado_sin_nombre_54-2);
      }

      .cls-2 {
        fill: url(#Degradado_sin_nombre_54);
      }

      .cls-3 {
        clip-path: url(#clippath-1);
      }

      .cls-4 {
        clip-path: url(#clippath);
      }

      .cls-5 {
        fill: none;
      }
    </style>
    <clipPath id="clippath">
      <path class="cls-5" d="m21.35,34.87c-.23.07-.43.19-.62.34-.79.68-1.53,1.41-2.22,2.2-.23.27-.37.58-.39.94-.03.35.05.69.23.99.19.35.45.62.8.81.35.19.72.27,1.12.23.38-.13.73-.32,1.05-.54.68-.59,1.32-1.22,1.93-1.88.17-.17.29-.37.38-.58.09-.22.14-.45.14-.68,0-.24-.04-.46-.12-.69-.09-.22-.21-.42-.37-.59-.16-.18-.34-.32-.55-.43-.21-.11-.44-.17-.68-.19-.05,0-.1,0-.15,0-.19,0-.37.03-.55.09m-1.75-2.09s0,0,0,0h0s0,0,0,0Zm-2.26-2.12c-.39.07-.72.24-.99.52-.63.58-1.24,1.19-1.83,1.8-.19.17-.33.38-.43.61-.1.23-.16.47-.16.73,0,.25.04.49.14.73.1.23.23.44.42.62.18.18.39.31.63.41.24.1.49.14.74.14.26,0,.5-.05.74-.15.24-.1.44-.24.62-.42.62-.56,1.21-1.15,1.77-1.77.25-.34.46-.7.62-1.09-.07-1.02-.4-1.63-1.15-1.96-.25-.12-.51-.18-.78-.18-.11,0-.22.01-.33.03m-3.89-4.16c-.24,0-.48.05-.71.14-.23.09-.43.22-.6.39-.67.6-1.3,1.24-1.9,1.9-.22.3-.39.63-.52.98-.05.4.03.78.23,1.14.2.36.48.63.85.81.34.18.69.25,1.07.2.38-.05.71-.2.99-.46.7-.63,1.37-1.28,2.01-1.97.18-.18.31-.38.4-.61.09-.23.13-.47.12-.72,0-.25-.07-.48-.17-.71-.11-.22-.25-.42-.44-.58h0c-.18-.16-.38-.29-.61-.37-.22-.08-.45-.12-.68-.12h-.02Zm-5.43-3.67c-.71.62-1.38,1.28-2.01,1.97-.17.17-.3.37-.39.6-.09.23-.13.46-.12.7,0,.24.06.48.16.69.1.22.24.41.42.58.17.17.36.3.58.39.22.1.45.14.69.15.24,0,.47-.03.7-.12.22-.08.42-.21.6-.37.72-.64,1.4-1.32,2.05-2.03.26-.26.42-.58.47-.94.05-.37-.01-.71-.19-1.03h0c-.17-.35-.41-.63-.74-.84-.33-.21-.69-.32-1.08-.33-.41.14-.79.32-1.15.56M29.34,1.86c-1.69.99-3.2,2.22-4.51,3.67-1.99,1.98-4,3.92-5.98,5.9-.13.12-.25.26-.36.41-.1.15-.19.31-.26.48-.07.17-.12.34-.14.52-.03.18-.04.36-.02.54.01.18.04.36.1.53.05.17.12.34.21.5.09.16.2.3.32.44.12.13.26.25.41.36.23.17.48.29.76.37.28.08.56.11.84.09.29-.02.56-.09.82-.2.26-.11.5-.27.7-.47.93-.86,5.6-5.36,6.94-6.7,7.05,6.9,12.21,12,13.45,13.26.86.88,1.66,1.69,1.66,1.69.56.58,1.12,1.17,1.71,1.78.4-.5.85-1,1.28-1.52.44-.52.84-1.07,1.22-1.63,1.29-2.04,2.06-4.26,2.28-6.66.16-2.64-.39-5.13-1.65-7.46-.34-.67-.72-1.31-1.14-1.92-.38-.54-.8-1.05-1.26-1.52-.46-.49-.95-.94-1.48-1.35-.69-.53-1.43-.96-2.22-1.32-2.16-1-4.44-1.53-6.82-1.6-2.43.06-4.72.67-6.86,1.83M13.68.03c-1.23.07-2.43.3-3.6.69C4.22,2.69.82,6.83.13,12.93c-.12.98-.13,1.96-.03,2.95.1.98.31,1.94.62,2.88.32.94.73,1.83,1.24,2.68.51.85,1.12,1.63,1.81,2.34.95-.86,1.83-1.67,2.72-2.46.23-.22.49-.41.76-.56.28-.16.57-.28.88-.37.31-.09.62-.14.94-.15.32-.01.64,0,.95.07.31.06.61.16.9.29.29.13.56.3.81.49.25.2.47.42.67.67.19.25.36.52.49.81.22.58.39,1.17.51,1.78,2.53.22,3.91,1.62,4.13,4.14,2.6.23,3.99,1.62,4.2,4.13.07.02.15.04.22.05.31,0,.61.05.91.13.3.08.58.19.86.33.27.14.53.31.76.51.23.2.44.42.62.67.18.25.33.51.46.79.12.28.21.57.26.87.06.3.07.61.06.91-.02.3-.07.6-.15.9-.04.18,0,.35.11.5.75.76,1.5,1.52,2.3,2.23.33.26.72.39,1.14.39.43,0,.81-.14,1.13-.41.23-.17.41-.39.54-.64.13-.26.2-.53.2-.81,0-.29-.05-.56-.18-.82-.12-.26-.29-.48-.51-.66-1.89-1.87-3.78-3.73-5.67-5.6-.08-.08-.16-.17-.23-.27l-3.28-3.25c-.2-.2-.29-.44-.29-.72,0-.28.1-.52.3-.71.2-.2.44-.3.72-.3.28,0,.52.09.73.29l3.3,3.26c.09.06.17.13.25.2.59.56,1.19,1.12,1.77,1.68,1.36,1.33,2.7,2.68,4.08,4,.18.19.4.33.65.43.25.1.51.14.77.13s.52-.07.76-.19c.24-.12.45-.28.62-.48.16-.19.27-.41.35-.64.08-.24.1-.48.08-.72-.02-.25-.09-.48-.2-.7-.11-.22-.26-.41-.45-.58-1.93-1.92-3.87-3.82-5.8-5.73-.92-.91-1.86-1.81-2.75-2.74-.1-.09-.18-.2-.24-.33-.06-.12-.08-.26-.09-.4,0-.14.03-.27.08-.4.06-.13.13-.24.23-.33.2-.2.45-.3.74-.31.29,0,.54.09.75.29.13.11.25.22.37.34,2.74,2.7,5.47,5.41,8.23,8.09.3.29.65.5,1.06.61.4.1.79.07,1.18-.09.38-.16.67-.43.87-.79.21-.36.29-.76.23-1.17-.06-.42-.24-.77-.54-1.07-2.1-2.1-4.22-4.18-6.33-6.26-.76-.75-1.53-1.49-2.27-2.25-.11-.09-.2-.21-.26-.33-.06-.13-.1-.26-.11-.41,0-.14.01-.28.06-.42.05-.13.12-.26.22-.36.11-.1.23-.18.37-.24.14-.06.28-.08.43-.08.15,0,.29.03.43.09.14.06.26.14.36.25.09.08.18.18.27.26,2.72,2.69,5.45,5.37,8.18,8.06.27.31.6.52.99.63.39.11.79.11,1.18,0l.05-.02c.15-.06.3-.14.43-.24.13-.1.25-.21.35-.34.1-.13.19-.27.26-.42.07-.15.11-.31.14-.47.03-.16.03-.33.01-.49-.02-.16-.06-.32-.11-.47-.06-.15-.14-.3-.24-.43-.1-.13-.21-.25-.34-.36-3.09-3.05-10.05-9.93-13.99-13.8-1.95,1.87-4.97,4.8-5.72,5.45-.44.36-.93.63-1.46.81-.54.18-1.09.26-1.66.24-.57-.02-1.11-.15-1.64-.37-.52-.22-.99-.53-1.39-.92-.41-.39-.73-.85-.96-1.36-.24-.51-.37-1.05-.4-1.61-.03-.56.04-1.11.22-1.64.18-.53.45-1.02.81-1.45.59-.7,1.27-1.33,1.92-1.98,1.63-1.62,3.27-3.23,4.94-4.88-.92-.82-1.92-1.5-3.02-2.05-1.1-.55-2.25-.95-3.46-1.2-.93-.19-1.87-.29-2.82-.29-.28,0-.56,0-.84.03"/>
    </clipPath>
    <linearGradient id="Degradado_sin_nombre_54" data-name="Degradado sin nombre 54" x1="-182.44" y1="210.94" x2="-181.44" y2="210.94" gradientTransform="translate(9260.57 10728) scale(50.76 -50.76)" gradientUnits="userSpaceOnUse">
      <stop offset="0" stop-color="#b9873d"/>
      <stop offset=".24" stop-color="#bc893d"/>
      <stop offset=".4" stop-color="#ddbe65"/>
      <stop offset=".53" stop-color="#f5e582"/>
      <stop offset=".77" stop-color="#f5e368"/>
      <stop offset=".8" stop-color="#edd963"/>
      <stop offset=".86" stop-color="#dac058"/>
      <stop offset=".93" stop-color="#ba9746"/>
      <stop offset="1" stop-color="#996d33"/>
    </linearGradient>
    <clipPath id="clippath-1">
      <path class="cls-5" d="m21.35,34.87c-.23.07-.43.19-.62.34-.79.68-1.53,1.41-2.22,2.2-.23.27-.37.58-.39.94-.03.35.05.69.23.99.19.35.45.62.8.81.35.19.72.27,1.12.23.38-.13.73-.32,1.05-.54.68-.59,1.32-1.22,1.93-1.88.17-.17.29-.37.38-.58.09-.22.14-.45.14-.68,0-.24-.04-.46-.12-.69-.09-.22-.21-.42-.37-.59-.16-.18-.34-.32-.55-.43-.21-.11-.44-.17-.68-.19-.05,0-.1,0-.15,0-.19,0-.37.03-.55.09m-1.75-2.09s0,0,0,0h0s0,0,0,0Zm-2.26-2.12c-.39.07-.72.24-.99.52-.63.58-1.24,1.19-1.83,1.8-.19.17-.33.38-.43.61-.1.23-.16.47-.16.73,0,.25.04.49.14.73.1.23.23.44.42.62.18.18.39.31.63.41.24.1.49.14.74.14.26,0,.5-.05.74-.15.24-.1.44-.24.62-.42.62-.56,1.21-1.15,1.77-1.77.25-.34.46-.7.62-1.09-.07-1.02-.4-1.63-1.15-1.96-.25-.12-.51-.18-.78-.18-.11,0-.22.01-.33.03m-3.89-4.16c-.24,0-.48.05-.71.14-.23.09-.43.22-.6.39-.67.6-1.3,1.24-1.9,1.9-.22.3-.39.63-.52.98-.05.4.03.78.23,1.14.2.36.48.63.85.81.34.18.69.25,1.07.2.38-.05.71-.2.99-.46.7-.63,1.37-1.28,2.01-1.97.18-.18.31-.38.4-.61.09-.23.13-.47.12-.72,0-.25-.07-.48-.17-.71-.11-.22-.25-.42-.44-.58h0c-.18-.16-.38-.29-.61-.37-.22-.08-.45-.12-.68-.12h-.02Zm-5.43-3.67c-.71.62-1.38,1.28-2.01,1.97-.17.17-.3.37-.39.6-.09.23-.13.46-.12.7,0,.24.06.48.16.69.1.22.24.41.42.58.17.17.36.3.58.39.22.1.45.14.69.15.24,0,.47-.03.7-.12.22-.08.42-.21.6-.37.72-.64,1.4-1.32,2.05-2.03.26-.26.42-.58.47-.94.05-.37-.01-.71-.19-1.03h0c-.17-.35-.41-.63-.74-.84-.33-.21-.69-.32-1.08-.33-.41.14-.79.32-1.15.56M29.34,1.86c-1.69.99-3.2,2.22-4.51,3.67-1.99,1.98-4,3.92-5.98,5.9-.13.12-.25.26-.36.41-.1.15-.19.31-.26.47-.07.17-.12.34-.14.52-.03.18-.04.36-.02.54.01.18.04.36.1.53.05.17.12.34.21.5.09.16.2.3.32.44.12.13.26.25.41.36.23.17.48.29.76.37.28.08.56.11.84.09.29-.02.56-.09.82-.2.26-.11.5-.27.7-.47.93-.86,5.6-5.36,6.94-6.7,7.05,6.9,12.21,12,13.45,13.26.86.88,1.66,1.69,1.66,1.69.56.58,1.12,1.17,1.71,1.78.4-.5.85-1,1.28-1.52.44-.52.84-1.07,1.22-1.63,1.29-2.04,2.06-4.26,2.28-6.66.16-2.64-.39-5.13-1.65-7.46-.34-.67-.72-1.31-1.14-1.92-.38-.54-.8-1.05-1.26-1.52-.46-.49-.95-.94-1.48-1.35-.69-.53-1.43-.96-2.22-1.32-2.16-1-4.44-1.53-6.82-1.6-2.43.06-4.72.67-6.86,1.83M13.68.03c-1.23.07-2.43.3-3.6.69C4.22,2.69.82,6.83.13,12.93c-.12.98-.13,1.96-.03,2.95.1.98.31,1.94.62,2.88.32.94.73,1.83,1.24,2.68.51.85,1.12,1.63,1.81,2.34.95-.86,1.83-1.67,2.72-2.46.23-.22.49-.41.76-.56.28-.16.57-.28.88-.37.31-.09.62-.14.94-.15.32-.01.64,0,.95.07.31.06.61.16.9.29.29.13.56.3.81.49.25.2.47.42.67.67.19.25.36.52.49.81.22.58.39,1.17.51,1.78,2.53.22,3.91,1.62,4.13,4.14,2.6.23,3.99,1.62,4.2,4.13.07.02.15.04.22.05.31,0,.61.05.91.13.3.08.58.19.86.33.27.14.53.31.76.51.23.2.44.42.62.67.18.24.33.51.46.79.12.28.21.57.26.87.06.3.07.61.06.91-.02.3-.07.6-.15.9-.04.18,0,.35.11.5.75.76,1.5,1.52,2.3,2.23.33.26.72.39,1.14.39.43,0,.81-.14,1.13-.41.23-.17.41-.39.54-.64.13-.26.2-.53.2-.81,0-.29-.05-.56-.18-.82-.12-.26-.29-.48-.51-.66-1.89-1.87-3.78-3.73-5.67-5.6-.08-.08-.16-.17-.23-.27l-3.28-3.25c-.2-.2-.29-.44-.29-.72,0-.28.1-.52.3-.71.2-.2.44-.3.72-.3.28,0,.52.09.73.29l3.3,3.26c.09.06.17.13.25.2.59.56,1.19,1.12,1.77,1.68,1.36,1.33,2.7,2.68,4.08,4,.18.19.4.33.65.43.25.1.51.14.77.13s.52-.07.76-.19c.24-.12.45-.28.62-.48.16-.19.27-.41.35-.64.08-.24.1-.48.08-.72-.02-.25-.09-.48-.2-.7-.11-.22-.26-.41-.45-.58-1.93-1.92-3.87-3.82-5.8-5.73-.92-.91-1.86-1.81-2.75-2.75-.1-.09-.18-.2-.24-.33-.06-.12-.08-.26-.09-.4,0-.14.03-.27.08-.4.06-.13.13-.24.23-.33.2-.2.45-.3.74-.31.29,0,.54.09.75.29.13.11.25.22.37.34,2.74,2.7,5.47,5.41,8.23,8.09.3.29.65.5,1.06.61.4.1.79.07,1.18-.09.38-.16.67-.43.87-.79.21-.36.29-.76.23-1.17-.06-.42-.24-.77-.54-1.07-2.1-2.1-4.22-4.18-6.33-6.26-.76-.75-1.53-1.49-2.27-2.25-.11-.09-.2-.21-.26-.33-.06-.13-.1-.26-.11-.41,0-.14.01-.28.06-.42.05-.13.12-.26.22-.36.11-.1.23-.18.37-.24.14-.06.28-.08.43-.08.15,0,.29.03.43.09.14.06.26.14.36.25.09.08.18.18.27.26,2.72,2.69,5.45,5.37,8.18,8.06.27.31.6.52.99.63.39.11.79.11,1.18,0l.05-.02c.15-.06.3-.14.43-.24.13-.1.25-.21.35-.34.1-.13.19-.27.26-.42.07-.15.11-.31.14-.47.03-.16.03-.33.01-.49-.02-.16-.06-.32-.11-.47-.06-.15-.14-.3-.24-.43-.1-.13-.21-.25-.34-.36-3.09-3.05-10.05-9.93-13.99-13.8-1.95,1.87-4.97,4.8-5.72,5.45-.44.36-.93.63-1.46.81-.54.18-1.09.26-1.66.24-.57-.02-1.11-.15-1.64-.37-.52-.22-.99-.53-1.39-.92-.41-.39-.73-.85-.96-1.36-.24-.51-.37-1.05-.4-1.61-.03-.56.04-1.11.22-1.64.18-.53.45-1.02.81-1.45.59-.7,1.27-1.33,1.92-1.98,1.63-1.62,3.27-3.23,4.94-4.88-.92-.82-1.92-1.5-3.02-2.05-1.1-.55-2.25-.95-3.46-1.2-.93-.19-1.87-.29-2.82-.29-.28,0-.56,0-.84.03"/>
    </clipPath>
    <linearGradient id="Degradado_sin_nombre_54-2" data-name="Degradado sin nombre 54" x1="-182.44" y1="210.95" x2="-181.44" y2="210.95" gradientTransform="translate(9291.06 10763.3) scale(50.93 -50.93)" xlink:href="#Degradado_sin_nombre_54"/>
  </defs>
  <g id="Capa_1-2" data-name="Capa 1">
    <g>
      <g class="cls-4">
        <rect class="cls-2" x="0" y="0" width="50.93" height="40.91"/>
      </g>
      <g class="cls-3">
        <rect class="cls-1" width="50.93" height="40.91"/>
      </g>
    </g>
  </g>
</svg>