<?xml version="1.0" encoding="UTF-8"?>
<svg id="Capa_2" data-name="Capa 2" xmlns="http://www.w3.org/2000/svg" xmlns:xlink="http://www.w3.org/1999/xlink" viewBox="0 0 47.02 53.6">
  <defs>
    <style>
      .cls-1 {
        fill: url(#Degradado_sin_nombre_60-2);
      }

      .cls-2 {
        clip-path: url(#clippath-1);
      }

      .cls-3 {
        clip-path: url(#clippath);
      }

      .cls-4 {
        fill: url(#Degradado_sin_nombre_60);
      }

      .cls-5 {
        fill: none;
      }
    </style>
    <clipPath id="clippath">
      <path class="cls-5" d="m33.52,42.46c4.93,1.04,7.77,2.66,7.77,3.93,0,2.04-7.35,4.99-18.86,4.99s-18.85-2.95-18.85-4.99c0-1.26,2.81-2.87,7.69-3.92v3.38h22.33v-2.22h-.07v-1.17Zm-15.67-21.01c-.76,0-1.5.14-2.22.4-.72.26-1.37.64-1.95,1.13-.58.49-1.07,1.06-1.46,1.72-.39.66-.65,1.37-.8,2.12-.12,1.02-.17,2.04-.16,3.06v10.3c-5.71,1.14-9.9,3.22-9.9,6.2,0,4.74,10.59,7.21,21.06,7.21s21.07-2.47,21.07-7.21c0-2.98-4.23-5.08-9.98-6.21v-5.35c0-.24.03-.49.07-.73v-3.81l-.07.04v-2.23c0-.44-.05-.87-.14-1.3-.09-.43-.22-.84-.38-1.24-.17-.4-.37-.79-.61-1.15-.24-.36-.51-.7-.82-1.01-.31-.31-.64-.59-1-.83-.36-.24-.74-.45-1.14-.62-.4-.17-.81-.3-1.24-.39-.42-.09-.85-.14-1.29-.14-.76,0-1.53,0-2.29,0-2.26,0-4.51,0-6.77,0m23.65-6.89c-.14.06-.26.14-.36.24-.1.1-.18.22-.24.36-.06.13-.08.28-.08.42v2.75h-2.73c-.15,0-.29.03-.42.09-.14.06-.26.14-.36.24-.1.1-.18.22-.24.36-.06.14-.08.28-.08.43s.03.29.08.43c.06.14.14.26.24.36.1.1.22.18.36.24.14.06.28.08.42.08h2.73v2.74c0,.15.03.29.08.43.06.14.14.26.24.36.1.1.22.18.36.24.13.06.28.08.42.08s.29-.03.42-.08c.14-.06.26-.14.36-.24.1-.1.18-.22.24-.36.06-.14.08-.28.08-.43v-2.74h2.89c.15,0,.29-.03.42-.08.13-.06.25-.14.36-.24.1-.1.18-.22.24-.36.06-.14.08-.28.08-.43s-.03-.29-.08-.43c-.05-.14-.14-.26-.24-.36-.1-.1-.22-.18-.36-.24-.14-.06-.28-.09-.42-.09h-2.89v-2.75c0-.15-.03-.29-.08-.42-.06-.14-.14-.26-.24-.36-.1-.1-.22-.18-.36-.24-.14-.06-.28-.09-.42-.09s-.29.03-.42.09M21.32,5.85c-.43.07-.86.19-1.27.35-.41.16-.8.36-1.18.59-.37.24-.72.51-1.04.81-.32.3-.6.64-.86,1-.26.36-.47.75-.65,1.15-.18.41-.32.82-.41,1.26-.1.43-.15.87-.16,1.31-.01.44.02.88.1,1.32.08.44.2.86.35,1.27.16.41.36.8.6,1.18.24.37.51.72.81,1.04.31.32.64.61,1,.86.36.25.74.47,1.15.64.4.18.82.31,1.25.41.43.1.87.15,1.31.15.43,0,.86-.04,1.29-.12.42-.08.84-.2,1.24-.36.4-.16.79-.36,1.15-.59.36-.23.7-.5,1.02-.8.31-.3.6-.62.85-.98.25-.35.47-.73.65-1.12.18-.4.32-.8.42-1.23.1-.42.16-.85.18-1.29.02-.44-.01-.88-.08-1.32-.07-.44-.18-.86-.34-1.28-.15-.42-.35-.81-.58-1.19-.23-.38-.5-.73-.8-1.05-.3-.32-.63-.62-.99-.87-.36-.26-.74-.48-1.14-.66-.4-.18-.82-.32-1.25-.42-.43-.1-.86-.16-1.3-.17-.07,0-.13,0-.2,0-.37,0-.75.03-1.12.1M4.51.09c-.14.05-.26.13-.36.24-.1.1-.18.22-.24.36-.06.14-.08.28-.08.43v2.75H1.1c-.15,0-.29.03-.42.09-.14.06-.25.14-.36.24-.11.1-.18.22-.24.36S0,4.82,0,4.97s.03.29.08.43.14.26.24.36c.1.1.22.18.36.24.14.06.28.08.42.08h2.73v2.74c0,.15.03.29.08.43.06.14.14.26.24.36.1.1.22.18.36.24.14.06.27.09.42.09s.29-.03.42-.09c.14-.06.25-.14.36-.24.1-.1.18-.22.24-.36.06-.14.08-.28.08-.43v-2.74h2.89c.15,0,.29-.03.42-.08.14-.06.26-.14.36-.24.11-.1.18-.22.24-.36s.08-.28.08-.43-.03-.29-.08-.43-.13-.26-.24-.36c-.1-.1-.22-.18-.36-.24-.14-.06-.28-.09-.42-.09h-2.89V1.11c0-.15-.03-.29-.08-.43-.06-.14-.14-.26-.24-.36-.1-.1-.22-.18-.36-.24-.14-.06-.28-.09-.42-.09s-.29.03-.42.09"/>
    </clipPath>
    <linearGradient id="Degradado_sin_nombre_60" data-name="Degradado sin nombre 60" x1="-260.99" y1="217.46" x2="-259.99" y2="217.46" gradientTransform="translate(12270.66 10250.64) scale(47.02 -47.02)" gradientUnits="userSpaceOnUse">
      <stop offset="0" stop-color="#b9873d"/>
      <stop offset=".24" stop-color="#bc893d"/>
      <stop offset=".4" stop-color="#ddbe65"/>
      <stop offset=".53" stop-color="#f5e582"/>
      <stop offset=".77" stop-color="#f5e368"/>
      <stop offset=".8" stop-color="#edd963"/>
      <stop offset=".86" stop-color="#dac058"/>
      <stop offset=".93" stop-color="#ba9746"/>
      <stop offset="1" stop-color="#996d33"/>
    </linearGradient>
    <clipPath id="clippath-1">
      <path class="cls-5" d="m33.52,42.46c4.93,1.04,7.77,2.66,7.77,3.93,0,2.04-7.35,4.99-18.86,4.99s-18.85-2.95-18.85-4.99c0-1.26,2.81-2.87,7.69-3.92v3.38h22.33v-2.22h-.07v-1.17Zm-15.67-21.01c-.76,0-1.5.14-2.22.4-.72.26-1.37.64-1.95,1.13-.58.49-1.07,1.06-1.46,1.72-.39.66-.65,1.37-.8,2.12-.12,1.02-.17,2.04-.16,3.06v10.3c-5.71,1.14-9.9,3.22-9.9,6.2,0,4.74,10.59,7.21,21.06,7.21s21.07-2.47,21.07-7.21c0-2.98-4.23-5.08-9.98-6.21v-5.35c0-.24.03-.49.07-.73v-3.81l-.07.04v-2.23c0-.44-.05-.87-.14-1.3-.09-.43-.22-.84-.38-1.24-.17-.4-.37-.79-.61-1.15-.24-.36-.51-.7-.82-1.01-.31-.31-.64-.59-1-.83-.36-.24-.74-.45-1.14-.62-.4-.17-.81-.3-1.24-.39-.42-.09-.85-.14-1.29-.14-.76,0-1.53,0-2.29,0-2.26,0-4.51,0-6.77,0m23.65-6.89c-.14.06-.26.14-.36.24-.1.1-.18.22-.24.36-.06.13-.08.28-.08.42v2.75h-2.73c-.15,0-.29.03-.42.09-.14.06-.26.14-.36.24-.1.1-.18.22-.24.36-.06.14-.08.28-.08.43s.03.29.08.43c.06.14.14.26.24.36.1.1.22.18.36.24.14.06.28.08.42.08h2.73v2.74c0,.15.03.29.08.43.06.14.14.26.24.36.1.1.22.18.36.24.13.06.28.08.42.08s.29-.03.42-.08c.14-.06.26-.14.36-.24.1-.1.18-.22.24-.36.06-.14.08-.28.08-.43v-2.74h2.89c.15,0,.29-.03.42-.08.13-.06.25-.14.36-.24.1-.1.18-.22.24-.36.06-.14.08-.28.08-.43s-.03-.29-.08-.43c-.05-.14-.14-.26-.24-.36-.1-.1-.22-.18-.36-.24-.14-.06-.28-.09-.42-.09h-2.89v-2.75c0-.15-.03-.29-.08-.42-.06-.14-.14-.26-.24-.36-.1-.1-.22-.18-.36-.24-.14-.06-.28-.09-.42-.09s-.29.03-.42.09M21.32,5.85c-.43.07-.86.19-1.27.35-.41.16-.8.36-1.18.59-.37.24-.72.51-1.04.81-.32.3-.6.64-.86,1-.26.36-.47.75-.65,1.15-.18.41-.32.82-.41,1.26-.1.43-.15.87-.16,1.31-.01.44.02.88.1,1.32.08.44.2.86.35,1.27.16.41.36.8.6,1.18.24.37.51.72.81,1.04.31.32.64.61,1,.86.36.25.74.47,1.15.64.4.18.82.31,1.25.41.43.1.87.15,1.31.15.43,0,.86-.04,1.29-.12.42-.08.84-.2,1.24-.36.4-.16.79-.36,1.15-.59.36-.23.7-.5,1.02-.8.31-.3.6-.62.85-.98.25-.35.47-.73.65-1.12.18-.4.32-.8.42-1.23.1-.42.16-.85.18-1.29.02-.44-.01-.88-.08-1.32-.07-.44-.18-.86-.34-1.28-.15-.42-.35-.81-.58-1.19-.23-.38-.5-.73-.8-1.05-.3-.32-.63-.62-.99-.87-.36-.26-.74-.48-1.14-.66-.4-.18-.82-.32-1.25-.42-.43-.1-.86-.16-1.3-.17-.07,0-.13,0-.2,0-.37,0-.75.03-1.12.1M4.51.09c-.14.05-.26.13-.36.24-.1.1-.18.22-.24.36-.06.14-.08.28-.08.43v2.75H1.1c-.15,0-.29.03-.42.09-.14.06-.25.14-.36.24-.11.1-.18.22-.24.36S0,4.82,0,4.97s.03.29.08.43.14.26.24.36c.1.1.22.18.36.24.14.06.28.08.42.08h2.73v2.74c0,.15.03.29.08.43.06.14.14.26.24.36.1.1.22.18.36.24.14.06.27.09.42.09s.29-.03.42-.09c.14-.06.25-.14.36-.24.1-.1.18-.22.24-.36.06-.14.08-.28.08-.43v-2.74h2.89c.15,0,.29-.03.42-.08.14-.06.26-.14.36-.24.11-.1.18-.22.24-.36s.08-.28.08-.43-.03-.29-.08-.43-.13-.26-.24-.36c-.1-.1-.22-.18-.36-.24-.14-.06-.28-.09-.42-.09h-2.89V1.11c0-.15-.03-.29-.08-.43-.06-.14-.14-.26-.24-.36-.1-.1-.22-.18-.36-.24-.14-.06-.28-.09-.42-.09s-.29.03-.42.09"/>
    </clipPath>
    <linearGradient id="Degradado_sin_nombre_60-2" data-name="Degradado sin nombre 60" x1="-260.99" y1="217.46" x2="-259.99" y2="217.46" gradientTransform="translate(12270.65 10250.63) scale(47.02 -47.02)" xlink:href="#Degradado_sin_nombre_60"/>
  </defs>
  <g id="Capa_1-2" data-name="Capa 1">
    <g>
      <g class="cls-3">
        <rect class="cls-4" y="0" width="47.02" height="53.6"/>
      </g>
      <g class="cls-2">
        <rect class="cls-1" width="47.01" height="53.6"/>
      </g>
    </g>
  </g>
</svg>