<?xml version="1.0" encoding="UTF-8"?>
<svg id="Capa_2" data-name="Capa 2" xmlns="http://www.w3.org/2000/svg" xmlns:xlink="http://www.w3.org/1999/xlink" viewBox="0 0 51.26 51.96">
  <defs>
    <style>
      .cls-1 {
        fill: url(#Degradado_sin_nombre_64-2);
      }

      .cls-2 {
        clip-path: url(#clippath-1);
      }

      .cls-3 {
        clip-path: url(#clippath);
      }

      .cls-4 {
        fill: none;
      }

      .cls-5 {
        fill: url(#Degradado_sin_nombre_64);
      }
    </style>
    <clipPath id="clippath">
      <path class="cls-4" d="m23.25,31.39c.62,2.99,0,4.92-1.97,6.24-.43.29-.9.51-1.4.66-.5.15-1.01.22-1.54.22-.52,0-1.03-.09-1.53-.25-.5-.16-.96-.39-1.39-.69-1.93-1.34-2.53-3.3-1.89-6.17h-5.43v19.11c0,1.18.27,1.44,1.45,1.44h19.1s.02-.1.02-.14v-1.25c0-1.86,0-3.71,0-5.57-.04-.23-.01-.46.08-.68.1-.22.25-.39.46-.51.22-.1.45-.13.68-.07.24.05.43.18.58.36.46.43,1,.69,1.62.78.62.09,1.21,0,1.78-.26.22-.09.42-.21.61-.35.19-.14.36-.29.52-.47.15-.17.29-.36.4-.57.11-.2.21-.42.27-.64.07-.22.11-.45.13-.68.02-.23.01-.47-.02-.7-.03-.23-.09-.46-.17-.68-.08-.22-.18-.43-.31-.62-.12-.2-.27-.38-.44-.54-.16-.16-.35-.31-.54-.44-.2-.13-.4-.23-.62-.31-.22-.08-.44-.14-.68-.17-.23-.03-.46-.04-.7-.02-.23.02-.46.06-.68.13-.22.07-.44.16-.64.27-.2.11-.39.25-.57.4-.18.15-.71.61-1.24.25-.33-.25-.51-.57-.54-.98-.02-1.66,0-3.35,0-4.99v-1.83c0-.09,0-.19-.01-.28h-5.4Zm17.49-7.19c-.41.02-.79.12-1.16.29-.37.17-.7.4-.98.69-.29.29-.51.62-.67,1-.16.38-.24.76-.25,1.17,0,.41.06.8.19,1.18.14.38.35.72.62,1.03.17.15.28.34.34.57.05.22.04.44-.05.66-.1.2-.26.36-.46.46-.2.1-.42.14-.64.1h-.03c-1.89-.01-3.79-.01-5.68-.01h-1.14c-.06,0-.12,0-.18.02v5.44c2.43-.78,4.45-.23,6,1.63.33.4.6.83.79,1.31.2.48.32.97.36,1.49.04.51,0,1.02-.11,1.53-.12.5-.31.97-.57,1.42-1.45,2.39-3.62,3.18-6.45,2.35v5.45h19.16c1.11,0,1.42-.31,1.42-1.43v-18.73c0-.13,0-.26-.02-.4v-.04h-1.69c-1.79,0-3.55,0-5.31.01-.24.04-.46.01-.68-.09-.21-.1-.38-.26-.49-.47-.1-.21-.12-.43-.07-.66.06-.23.17-.42.36-.56.29-.33.51-.7.65-1.12.14-.42.19-.84.16-1.28-.04-.44-.16-.85-.36-1.24-.2-.39-.48-.72-.82-1-.32-.26-.67-.45-1.05-.58-.33-.11-.66-.16-1-.16-.06,0-.13,0-.19,0m-9.66-15.39c-.13,0-.26.01-.4.02h-.04v1.67c0,1.8,0,3.51.02,5.26.03.22,0,.44-.09.65-.09.21-.24.37-.43.49-.21.11-.43.15-.66.11-.23-.04-.43-.15-.58-.33-.31-.28-.66-.49-1.05-.64-.39-.15-.79-.21-1.21-.2-.42.01-.81.1-1.2.27-.38.17-.72.4-1.01.7-.29.3-.52.64-.68,1.02-.16.38-.24.78-.25,1.2,0,.42.06.82.21,1.21.15.39.36.74.64,1.05.28.31.61.56.98.74.37.18.77.29,1.18.31.42.03.82-.02,1.22-.15.39-.13.75-.33,1.07-.6.15-.2.34-.33.58-.38.24-.06.47-.03.69.07s.38.28.49.5c.1.23.12.46.06.69v6.89h5.46c-.79-2.43-.24-4.45,1.63-6,.4-.33.84-.6,1.32-.8.48-.19.98-.31,1.5-.35.52-.04,1.03,0,1.54.13.51.12.98.32,1.42.59,2.36,1.45,3.13,3.61,2.29,6.43h5.46V10.23c0-1.1-.3-1.41-1.39-1.41h-18.79ZM5.48.63C3.82,4.8,2.16,8.97.51,13.14l-.31.77c-.06.14-.11.29-.17.45L0,14.43l4.52,1.79c.06.02.12.05.18.07.39.14.89.32.97.93.08.61-.35.88-.7,1.09-.07.04-.14.08-.2.13-.21.14-.4.32-.55.52-.15.21-.27.43-.35.67s-.12.5-.12.75c0,.26.05.51.13.75.08.24.21.46.36.67.16.2.35.37.56.51.21.14.45.24.7.31.25.06.5.08.76.06.25-.01.5-.07.73-.17.23-.1.45-.23.64-.4.19-.17.34-.37.47-.59.12-.22.21-.46.25-.71.02-.25.01-.49-.03-.73-.03-.2-.04-.39-.05-.59v-.06c0-.35,0-.79.25-1,.27-.16.56-.22.87-.17h.23c.12,0,.23.04.34.11.03.02.07.04.11.05l4.53,1.8,1.39-3.5c-2.17-.32-3.48-1.49-3.9-3.47-.09-.39-.13-.78-.11-1.18.02-.4.11-.78.24-1.16.14-.37.33-.72.57-1.03.24-.32.53-.59.85-.82,1.7-1.28,3.5-1.27,5.37.04l1.38-3.49c-.06-.03-.11-.06-.16-.08l-1.95-.77C14.38,3.22,10.48,1.67,6.57.12c-.2-.08-.36-.12-.49-.12-.27,0-.43.19-.61.63"/>
    </clipPath>
    <linearGradient id="Degradado_sin_nombre_64" data-name="Degradado sin nombre 64" x1="-103.35" y1="216.52" x2="-102.35" y2="216.52" gradientTransform="translate(5298.02 11125.31) scale(51.26 -51.26)" gradientUnits="userSpaceOnUse">
      <stop offset="0" stop-color="#b9873d"/>
      <stop offset=".24" stop-color="#bc893d"/>
      <stop offset=".4" stop-color="#ddbe65"/>
      <stop offset=".53" stop-color="#f5e582"/>
      <stop offset=".77" stop-color="#f5e368"/>
      <stop offset=".8" stop-color="#edd963"/>
      <stop offset=".86" stop-color="#dac058"/>
      <stop offset=".93" stop-color="#ba9746"/>
      <stop offset="1" stop-color="#996d33"/>
    </linearGradient>
    <clipPath id="clippath-1">
      <path class="cls-4" d="m23.25,31.39c.62,2.99,0,4.92-1.97,6.24-.43.29-.9.51-1.4.66-.5.15-1.01.22-1.54.22-.52,0-1.03-.09-1.53-.25-.5-.16-.96-.39-1.39-.69-1.93-1.34-2.53-3.3-1.89-6.17h-5.43v19.11c0,1.18.27,1.44,1.45,1.44h19.1s.02-.1.02-.14v-1.25c0-1.86,0-3.71,0-5.57-.04-.23-.01-.46.08-.68.1-.22.25-.39.46-.51.22-.1.45-.13.68-.07.24.05.43.18.58.36.46.43,1,.69,1.62.78.62.09,1.21,0,1.78-.26.22-.09.42-.21.61-.35.19-.14.36-.29.52-.47.15-.17.29-.36.4-.57.11-.2.21-.42.27-.64.07-.22.11-.45.13-.68.02-.23.01-.47-.02-.7-.03-.23-.09-.46-.17-.68-.08-.22-.18-.43-.31-.62-.12-.2-.27-.38-.44-.54-.16-.16-.35-.31-.54-.44-.2-.13-.4-.23-.62-.31-.22-.08-.44-.14-.68-.17-.23-.03-.46-.04-.7-.02-.23.02-.46.06-.68.13-.22.07-.44.16-.64.27-.2.11-.39.25-.57.4-.18.15-.71.61-1.24.25-.33-.25-.51-.57-.54-.98-.02-1.66,0-3.35,0-4.99v-1.83c0-.09,0-.19-.01-.28h-5.4Zm17.49-7.19c-.41.02-.79.12-1.16.29-.37.17-.7.4-.98.69-.29.29-.51.62-.67,1-.16.38-.24.76-.25,1.17,0,.41.06.8.19,1.18.14.38.35.72.62,1.03.17.15.28.34.34.57.05.22.04.44-.05.66-.1.2-.26.36-.46.46-.2.1-.42.14-.64.1h-.03c-1.89-.01-3.79-.01-5.68-.01h-1.14c-.06,0-.12,0-.18.02v5.44c2.43-.78,4.45-.23,6,1.63.33.4.6.83.79,1.31.2.48.32.97.36,1.49.04.51,0,1.02-.11,1.53-.12.5-.31.97-.57,1.42-1.45,2.39-3.62,3.18-6.45,2.35v5.45h19.16c1.11,0,1.42-.31,1.42-1.43v-18.73c0-.13,0-.26-.02-.4v-.04h-1.69c-1.79,0-3.55,0-5.31.01-.24.04-.46.01-.68-.09-.21-.1-.38-.26-.49-.47-.1-.21-.12-.43-.07-.66.06-.23.17-.42.36-.56.29-.33.51-.7.65-1.12.14-.42.19-.84.16-1.28-.04-.44-.16-.85-.36-1.24-.2-.39-.48-.72-.82-1-.32-.26-.67-.45-1.05-.58-.33-.11-.66-.16-1-.16-.06,0-.13,0-.19,0m-9.66-15.39c-.13,0-.26.01-.4.02h-.04v1.67c0,1.8,0,3.51.02,5.26.03.22,0,.44-.09.65-.09.21-.24.37-.43.49-.21.11-.43.15-.66.11-.23-.04-.43-.15-.58-.33-.31-.28-.66-.49-1.05-.64-.39-.15-.79-.21-1.21-.2-.42.01-.81.1-1.2.27-.38.17-.72.4-1.01.7-.29.3-.52.64-.68,1.02-.16.38-.24.78-.25,1.2,0,.42.06.82.21,1.21.15.39.36.74.64,1.05.28.31.61.56.98.74.37.18.77.29,1.18.31.42.03.82-.02,1.22-.15.39-.13.75-.33,1.07-.6.15-.2.34-.33.58-.38.24-.06.47-.03.69.07s.38.28.49.5c.1.23.12.46.06.69v6.89h5.46c-.79-2.43-.24-4.45,1.63-6,.4-.33.84-.6,1.32-.8.48-.19.98-.31,1.5-.35.52-.04,1.03,0,1.54.13.51.12.98.32,1.42.59,2.36,1.45,3.13,3.61,2.29,6.43h5.46V10.23c0-1.1-.3-1.41-1.39-1.41h-18.79ZM5.48.63C3.82,4.8,2.16,8.97.51,13.14l-.31.77c-.06.14-.11.29-.17.45L0,14.43l4.52,1.79c.06.02.12.05.18.07.39.14.89.32.97.93.08.61-.35.88-.7,1.09-.07.04-.14.08-.2.13-.21.14-.4.32-.55.52-.15.21-.27.43-.35.67s-.12.5-.12.75c0,.26.05.51.13.75.08.24.21.46.36.67.16.2.35.37.56.51.21.14.45.24.7.31.25.06.5.08.76.06.25-.01.5-.07.73-.17.23-.1.45-.23.64-.4.19-.17.34-.37.47-.59.12-.22.21-.46.25-.71.02-.25.01-.49-.03-.73-.03-.2-.04-.39-.05-.59v-.06c0-.35,0-.79.25-1,.27-.16.56-.22.87-.17h.23c.12,0,.23.04.34.11.03.02.07.04.11.05l4.53,1.8,1.39-3.5c-2.17-.32-3.48-1.49-3.9-3.47-.09-.39-.13-.78-.11-1.18.02-.4.11-.78.24-1.16.14-.37.33-.72.57-1.03.24-.32.53-.59.85-.82,1.7-1.28,3.5-1.27,5.37.04l1.38-3.49c-.06-.03-.11-.06-.16-.08l-1.95-.77C14.38,3.22,10.48,1.67,6.57.12c-.2-.08-.36-.12-.49-.12-.27,0-.43.19-.61.63"/>
    </clipPath>
    <linearGradient id="Degradado_sin_nombre_64-2" data-name="Degradado sin nombre 64" y1="216.52" x2="-102.35" y2="216.52" gradientTransform="translate(5298.02 11125.31) scale(51.26 -51.26)" xlink:href="#Degradado_sin_nombre_64"/>
  </defs>
  <g id="Capa_1-2" data-name="Capa 1">
    <g>
      <g class="cls-3">
        <rect class="cls-5" width="51.26" height="51.96"/>
      </g>
      <g class="cls-2">
        <rect class="cls-1" y="0" width="51.26" height="51.96"/>
      </g>
    </g>
  </g>
</svg>