<?xml version="1.0" encoding="UTF-8"?>
<svg id="Capa_2" data-name="Capa 2" xmlns="http://www.w3.org/2000/svg" xmlns:xlink="http://www.w3.org/1999/xlink" viewBox="0 0 45.3 45.3">
  <defs>
    <style>
      .cls-1 {
        fill: url(#Degradado_sin_nombre_50-2);
      }

      .cls-2 {
        clip-path: url(#clippath-1);
      }

      .cls-3 {
        clip-path: url(#clippath);
      }

      .cls-4 {
        fill: none;
      }

      .cls-5 {
        fill: url(#Degradado_sin_nombre_50);
      }
    </style>
    <clipPath id="clippath">
      <path class="cls-4" d="m9.45,36.01c1.82,2.83,3.61,5.58,5.38,8.35.4.62.88.94,1.6.63.62-.27.72-.9.32-1.74-1.27-2.7-2.54-5.41-3.82-8.11-.09-.2-.22-.39-.34-.61h0s-3.14,1.48-3.14,1.48Zm4.72-2.03c.36.7.91,1.69,1.16,2.17,3.19-.98,3.12-1.75,2.14-3.64l-3.3,1.46Zm26.27-6.37c-.12.12-.2.27-.26.44-.11.38-.03.7.25.98.13.13.29.22.47.26.97.27,2.02.56,3.04.81.21.03.41.02.62-.04.07-.02.13-.03.19-.04h.13s.07-.12.07-.12c.26-.31.34-.67.21-1.06-.13-.37-.38-.6-.77-.7-.98-.28-1.98-.53-2.97-.79-.1-.03-.2-.04-.3-.04-.26,0-.49.1-.7.3M2.48,25.61c-.53.33-.99.75-1.37,1.24-.38.5-.66,1.04-.85,1.64C.08,29.09,0,29.7.03,30.32c.04.62.18,1.22.43,1.8.22.58.54,1.11.96,1.58.42.47.9.84,1.46,1.13.56.29,1.14.47,1.77.54.62.07,1.24.03,1.85-.12,1.85-.64,3.66-1.39,5.43-2.24l-4.61-9.79c-1.68.82-3.32,1.49-4.84,2.4m27.01-9.19l1.97,4.17c1.4-1.01,1.71-2,1.13-3.15-.4-.79-1.02-1.2-1.92-1.2-.35,0-.73.06-1.17.18m10.66-4.57c-.88.52-1.76,1.05-2.63,1.59-.34.2-.51.5-.5.9,0,.17.05.33.14.49.19.34.48.51.88.5.19,0,.36-.05.52-.16.88-.51,1.8-1.06,2.69-1.64.17-.13.3-.28.4-.47.04-.06.07-.12.1-.17l.08-.1-.02-.12c-.04-.41-.25-.71-.62-.89-.16-.07-.31-.11-.46-.11-.19,0-.38.06-.57.18m-18.28-6.43c-.62.2-.45.74-.45,1.25.03.93-.04,1.85-.21,2.77-.82,3.69-3.04,6.53-5.88,8.85-1.97,1.61-4.16,2.95-6.34,4.46l4.44,9.43c.92-.36,1.75-.72,2.59-1.01,3.79-1.32,7.65-2,11.67-1.33,2.38.33,4.45,1.32,6.19,2.99.23.22.7.19,1.06.27.13-.07.22-.17.28-.3.02-.06.07-.22-.16-.8-.07-.17-.11-.26-.18-.39-1.7-3.6-3.39-7.21-5.09-10.81-2.28-4.84-4.56-9.68-6.83-14.52-.19-.4-.33-.9-.81-.9-.08,0-.18.01-.28.05M31.85,0c-.39,0-.69.16-.91.49-.58.83-1.16,1.68-1.73,2.53-.23.32-.26.66-.09,1.02.12.25.31.42.56.51.26.1.51.09.76-.03.17-.09.3-.21.41-.36.58-.83,1.19-1.71,1.77-2.6.1-.18.16-.38.17-.59,0-.07.02-.13.03-.2l.02-.12-.07-.1c-.21-.36-.51-.54-.93-.56h-.01Z"/>
    </clipPath>
    <linearGradient id="Degradado_sin_nombre_50" data-name="Degradado sin nombre 50" x1="-189" y1="141.84" x2="-188" y2="141.84" gradientTransform="translate(8544.45 6435.09) scale(45.21 -45.21)" gradientUnits="userSpaceOnUse">
      <stop offset="0" stop-color="#b9873d"/>
      <stop offset=".24" stop-color="#bc893d"/>
      <stop offset=".4" stop-color="#ddbe65"/>
      <stop offset=".53" stop-color="#f5e582"/>
      <stop offset=".77" stop-color="#f5e368"/>
      <stop offset=".8" stop-color="#edd963"/>
      <stop offset=".86" stop-color="#dac058"/>
      <stop offset=".93" stop-color="#ba9746"/>
      <stop offset="1" stop-color="#996d33"/>
    </linearGradient>
    <clipPath id="clippath-1">
      <path class="cls-4" d="m9.45,36.01c1.82,2.83,3.61,5.58,5.38,8.35.4.62.88.94,1.6.63.62-.27.72-.9.32-1.74-1.27-2.7-2.54-5.41-3.82-8.11-.09-.2-.22-.39-.34-.61h0s-3.14,1.48-3.14,1.48Zm4.72-2.03c.36.7.91,1.69,1.16,2.17,3.19-.98,3.12-1.75,2.14-3.64l-3.3,1.46Zm26.27-6.37c-.12.12-.2.27-.26.44-.11.38-.03.7.25.98.13.13.29.22.47.26.97.27,2.02.56,3.04.81.21.03.41.02.62-.04.07-.02.13-.03.19-.04h.13s.07-.12.07-.12c.26-.31.34-.67.21-1.06-.13-.37-.38-.6-.77-.7-.98-.28-1.98-.53-2.97-.79-.1-.03-.2-.04-.3-.04-.26,0-.49.1-.7.3M2.48,25.61c-.53.33-.99.75-1.37,1.24-.38.5-.66,1.04-.85,1.64C.08,29.09,0,29.7.03,30.32c.04.62.18,1.22.43,1.8.22.58.54,1.11.96,1.58.42.47.9.84,1.46,1.13.56.29,1.14.47,1.77.54.62.07,1.24.03,1.85-.12,1.85-.64,3.66-1.39,5.43-2.24l-4.61-9.79c-1.68.82-3.32,1.49-4.84,2.4m27.01-9.19l1.97,4.17c1.4-1.01,1.71-2,1.13-3.15-.4-.79-1.02-1.2-1.92-1.2-.35,0-.73.06-1.17.18m10.66-4.57c-.88.52-1.76,1.05-2.63,1.59-.34.2-.51.5-.5.9,0,.17.05.33.14.49.19.34.48.51.88.5.19,0,.36-.05.52-.16.88-.51,1.8-1.06,2.69-1.64.17-.13.3-.28.4-.47.04-.06.07-.12.1-.17l.08-.1-.02-.12c-.04-.41-.25-.71-.62-.89-.16-.07-.31-.11-.46-.11-.19,0-.38.06-.57.18m-18.28-6.43c-.62.2-.45.74-.45,1.25.03.93-.04,1.85-.21,2.77-.82,3.69-3.04,6.53-5.88,8.85-1.97,1.61-4.16,2.95-6.34,4.46l4.44,9.43c.92-.36,1.75-.72,2.59-1.01,3.79-1.32,7.65-2,11.67-1.33,2.38.33,4.45,1.32,6.19,2.99.23.22.7.19,1.06.27.13-.07.22-.17.28-.3.02-.06.07-.22-.16-.8-.07-.17-.11-.26-.18-.39-1.7-3.6-3.39-7.21-5.09-10.81-2.28-4.84-4.56-9.68-6.83-14.52-.19-.4-.33-.9-.81-.9-.08,0-.18.01-.28.05M31.85,0c-.39,0-.69.16-.91.49-.58.83-1.16,1.68-1.73,2.53-.23.32-.26.66-.09,1.02.12.25.31.42.56.51.26.1.51.09.76-.03.17-.09.3-.21.41-.36.58-.83,1.19-1.71,1.77-2.6.1-.18.16-.38.17-.59,0-.07.02-.13.03-.2l.02-.12-.07-.1c-.21-.36-.51-.54-.93-.56h-.01Z"/>
    </clipPath>
    <linearGradient id="Degradado_sin_nombre_50-2" data-name="Degradado sin nombre 50" x1="-189" y1="141.84" x2="-188" y2="141.84" gradientTransform="translate(8561.6 6448.08) scale(45.3 -45.3)" xlink:href="#Degradado_sin_nombre_50"/>
  </defs>
  <g id="Capa_1-2" data-name="Capa 1">
    <g>
      <g class="cls-3">
        <rect class="cls-5" width="45.3" height="45.3"/>
      </g>
      <g class="cls-2">
        <rect class="cls-1" width="45.3" height="45.3"/>
      </g>
    </g>
  </g>
</svg>