<?xml version="1.0" encoding="UTF-8"?>
<svg id="Capa_2" data-name="Capa 2" xmlns="http://www.w3.org/2000/svg" xmlns:xlink="http://www.w3.org/1999/xlink" viewBox="0 0 51.08 52.06">
  <defs>
    <style>
      .cls-1 {
        clip-path: url(#clippath-1);
      }

      .cls-2 {
        fill: url(#Degradado_sin_nombre_74);
      }

      .cls-3 {
        clip-path: url(#clippath);
      }

      .cls-4 {
        fill: none;
      }

      .cls-5 {
        fill: url(#Degradado_sin_nombre_74-2);
      }
    </style>
    <clipPath id="clippath">
      <path class="cls-4" d="m21.95,36.96c-.92.09-1.8.34-2.65.72-1.34.73-2.34,1.78-3.02,3.14,1.56,1.23,3.29,2.14,5.18,2.73,1.89.59,3.83.83,5.81.72,1.39-.12,2.73-.43,4.03-.94.02-1.81.51-3.48,1.48-5.01-.47-.38-.99-.68-1.55-.91-.67-.26-1.36-.42-2.08-.46-1.68-.14-2.95-.25-4.15-.25-1,0-1.95.07-3.05.27m24.08,3.58c.26-.26.58-.39.94-.39.3.03.54.17.73.41.32.37.54.96-.25,1.65-.64.56-1.27,1.12-1.9,1.68l-1.89,1.65c-.96.84-1.92,1.68-2.88,2.53-.26.27-.58.42-.95.44h-.08c-.39-.05-.7-.24-.93-.56-.74-.89-1.48-1.78-2.22-2.67l-.47-.57c-.12-.1-.22-.23-.28-.38-.07-.15-.1-.3-.09-.46,0-.16.04-.31.11-.46.07-.15.17-.27.3-.37.21-.2.47-.29.76-.28.37.06.67.24.89.55.56.66,1.12,1.32,1.7,2.01l.45.54,6.07-5.32Zm-4.09-4.96h-.09c-.81,0-1.6.12-2.37.35-.78.24-1.51.58-2.19,1.03-.68.45-1.28.99-1.8,1.62-.52.63-.93,1.32-1.25,2.08-.31.75-.51,1.54-.58,2.35-.08.81-.04,1.62.13,2.42.16.8.44,1.56.82,2.28.39.72.87,1.36,1.45,1.94.76.77,1.65,1.37,2.65,1.79,1,.42,2.05.63,3.14.63h.05c.54,0,1.07-.06,1.6-.17.53-.11,1.04-.26,1.54-.47.5-.21.97-.46,1.41-.76.45-.3.86-.64,1.24-1.02.38-.38.72-.79,1.02-1.24.3-.45.55-.92.76-1.41s.37-1.01.47-1.53c.11-.53.16-1.06.17-1.6h0c0-.54-.04-1.07-.14-1.6-.1-.53-.25-1.05-.45-1.55s-.45-.98-.75-1.43c-.3-.45-.64-.87-1.02-1.26-.38-.39-.79-.73-1.24-1.03-.45-.3-.92-.56-1.42-.77-.5-.21-1.01-.37-1.55-.47-.53-.11-1.06-.16-1.6-.16h-.01m-16.44-13.86h-.02c-.68,0-1.33.13-1.96.4-.63.26-1.18.64-1.65,1.12-.23.23-.44.48-.62.75s-.33.56-.45.86c-.12.3-.21.61-.28.93-.06.32-.09.64-.08.97,0,.32.04.65.11.96.07.32.17.63.3.92.13.3.29.58.48.85.19.26.4.51.64.73,1.02.96,2.22,1.43,3.62,1.43.33,0,.65-.04.97-.1s.63-.16.93-.29c.3-.13.59-.28.86-.46.27-.18.52-.39.75-.62.23-.23.44-.48.62-.75.18-.27.34-.56.46-.86.13-.3.22-.61.29-.93.07-.32.1-.64.1-.97,0-.65-.13-1.28-.38-1.88-.25-.6-.61-1.13-1.08-1.58-.48-.48-1.03-.85-1.66-1.11-.62-.26-1.27-.38-1.94-.38h-.02Zm-7.07,3.52c.09-.46.23-.91.42-1.35.18-.44.41-.85.68-1.24.27-.39.57-.75.91-1.08.34-.33.71-.63,1.1-.88.4-.26.82-.47,1.26-.65.44-.18.89-.3,1.36-.39.47-.08.94-.12,1.41-.11h.01c.97.01,1.9.21,2.8.6s1.68.93,2.35,1.63c.66.66,1.17,1.43,1.53,2.3.35.87.52,1.77.5,2.71,0,.47-.06.93-.16,1.39-.1.46-.24.9-.43,1.33-.19.43-.41.84-.68,1.22-.27.39-.57.74-.9,1.07-.34.33-.7.62-1.09.88-.39.26-.81.47-1.24.65-.43.18-.88.31-1.34.4-.46.09-.93.13-1.4.13h-.02c-.48,0-.95-.04-1.41-.13-.46-.09-.92-.23-1.35-.4-.44-.18-.86-.4-1.25-.66-.39-.26-.76-.56-1.1-.9-.34-.33-.63-.7-.9-1.09-.26-.39-.48-.81-.66-1.25s-.31-.89-.4-1.35c-.09-.46-.13-.93-.13-1.41h0c0-.47.05-.94.14-1.4m-.68-6.08c-.64.43-1.24.9-1.81,1.43-.56.53-1.07,1.1-1.54,1.71-.46.61-.88,1.26-1.24,1.94-.36.68-.66,1.39-.89,2.12-.24.73-.42,1.48-.53,2.24-.12.76-.16,1.53-.15,2.29.01.77.09,1.53.23,2.29s.35,1.49.61,2.22c.49,1.4,1.22,2.67,2.2,3.79.06-.09.11-.16.16-.23h0c.43-.67.94-1.27,1.53-1.81.59-.54,1.23-.99,1.94-1.36.7-.37,1.45-.65,2.22-.83.78-.18,1.56-.26,2.36-.24h.06c.35,0,.71.01,1.06.01.98.01,1.98.02,2.97-.02,3.07-.13,5.36.49,7.19,1.96,1.4-1.44,3.05-2.5,4.95-3.17l.05-.24c.28-1.42.32-2.86.12-4.29-.13-1.17-.41-2.31-.84-3.41-.43-1.1-.99-2.13-1.69-3.08-.7-.96-1.5-1.8-2.42-2.55-.92-.74-1.92-1.36-2.99-1.84-1.86-.86-3.82-1.29-5.87-1.3-2.81,0-5.38.8-7.7,2.38M5.29,7.11c-.34.67-.66,1.3-.95,1.95-.12.33-.33.59-.61.8-.28.21-.6.32-.95.34-.7.08-1.4.2-2.15.32L0,10.61c.16.15.31.29.46.43.57.52,1.12,1.07,1.63,1.64.35.44.51.94.49,1.51-.07.77-.18,1.53-.33,2.28-.04.2-.07.41-.11.62.19-.1.38-.2.56-.3.65-.37,1.33-.71,2.02-1,.56-.2,1.11-.2,1.67,0,.7.3,1.39.63,2.05,1.01l.54.29c-.03-.21-.06-.42-.08-.63-.07-.69-.19-1.38-.35-2.06-.11-.35-.1-.7.01-1.04.12-.35.33-.62.63-.83.52-.46,1.04-.94,1.59-1.46.15-.14.31-.29.47-.45-.24-.04-.46-.08-.67-.11-.7-.12-1.31-.22-1.92-.27-.46,0-.88-.14-1.25-.41-.37-.27-.63-.63-.77-1.07-.24-.58-.52-1.15-.82-1.71-.08-.16-.17-.32-.25-.49-.09.18-.18.36-.27.54m39.9-.02c-.35.69-.66,1.34-.97,1.99-.12.31-.32.56-.58.76-.27.2-.57.31-.9.34-.71.08-1.41.19-2.22.33-.24.04-.49.08-.75.12.18.17.36.33.53.49.67.61,1.25,1.15,1.8,1.73.3.38.43.8.38,1.28-.08.78-.21,1.55-.35,2.37-.04.2-.07.4-.1.6l.56-.28c.68-.35,1.32-.67,1.94-1.03.28-.17.58-.26.91-.27.33,0,.65.1.93.28.61.35,1.24.67,1.92,1.01.19.1.39.2.6.3-.03-.2-.06-.39-.09-.57-.11-.67-.2-1.24-.34-1.82-.15-.44-.16-.88-.02-1.32.14-.44.4-.8.78-1.07.49-.39.95-.84,1.44-1.31.14-.13.27-.27.42-.41l-.72-.11c-.8-.11-1.48-.23-2.18-.31-.33-.02-.63-.13-.9-.34-.27-.2-.46-.46-.57-.77-.28-.65-.61-1.28-.96-1.95-.1-.18-.19-.37-.29-.56l-.26.53ZM25.22.55c-.33.64-.64,1.24-.9,1.84-.12.36-.34.65-.65.88-.31.22-.66.34-1.04.34-.67.05-1.33.17-2.04.3-.19.04-.39.07-.6.1.14.14.27.28.4.41.41.45.85.87,1.32,1.27.38.27.65.62.79,1.06.15.44.15.88.01,1.32-.15.59-.24,1.22-.35,1.88-.03.18-.06.37-.09.56l.6-.31c.69-.36,1.29-.66,1.88-1.01.29-.18.61-.27.95-.28.35,0,.68.1.98.29.59.34,1.19.65,1.89,1,.19.1.38.2.58.3-.03-.22-.07-.43-.1-.64-.11-.74-.21-1.38-.36-2.01-.11-.38-.1-.76.02-1.14.13-.38.35-.68.67-.92.49-.42.95-.89,1.45-1.38l.42-.42-.67-.11c-.77-.13-1.43-.24-2.11-.31-.33,0-.64-.11-.91-.3-.27-.19-.47-.44-.59-.76-.29-.65-.63-1.3-.98-1.98-.1-.19-.2-.38-.3-.57-.1.19-.19.37-.29.55"/>
    </clipPath>
    <linearGradient id="Degradado_sin_nombre_74" data-name="Degradado sin nombre 74" x1="-414.74" y1="216.71" x2="-413.74" y2="216.71" gradientTransform="translate(21183.21 11094.77) scale(51.08 -51.08)" gradientUnits="userSpaceOnUse">
      <stop offset="0" stop-color="#002b6a"/>
      <stop offset=".01" stop-color="#002b6a"/>
      <stop offset=".47" stop-color="#027cc6"/>
      <stop offset="1" stop-color="#002b6a"/>
    </linearGradient>
    <clipPath id="clippath-1">
      <path class="cls-4" d="m21.95,36.96c-.92.09-1.8.34-2.65.72-1.34.73-2.34,1.78-3.02,3.14,1.56,1.23,3.29,2.14,5.18,2.73,1.89.59,3.83.83,5.81.72,1.39-.12,2.73-.43,4.03-.94.02-1.81.51-3.48,1.48-5.01-.47-.38-.99-.68-1.55-.91-.67-.26-1.36-.42-2.08-.46-1.68-.14-2.95-.25-4.15-.25-1,0-1.95.07-3.05.27m24.08,3.58c.26-.26.58-.39.94-.39.3.03.54.17.73.41.32.37.54.96-.25,1.65-.64.56-1.27,1.12-1.9,1.68l-1.89,1.65c-.96.84-1.92,1.68-2.88,2.53-.26.27-.58.42-.95.44h-.08c-.39-.05-.7-.24-.93-.56-.74-.89-1.48-1.78-2.22-2.67l-.47-.57c-.12-.1-.22-.23-.28-.38-.07-.15-.1-.3-.09-.46,0-.16.04-.31.11-.46.07-.15.17-.27.3-.37.21-.2.47-.29.76-.28.37.06.67.24.89.55.56.66,1.12,1.32,1.7,2.01l.45.54,6.07-5.32Zm-4.09-4.96h-.09c-.81,0-1.6.12-2.37.35-.78.24-1.51.58-2.19,1.03-.68.45-1.28.99-1.8,1.62-.52.63-.93,1.32-1.25,2.08-.31.75-.51,1.54-.58,2.35-.08.81-.04,1.62.13,2.42.16.8.44,1.56.82,2.28.39.72.87,1.36,1.45,1.94.76.77,1.65,1.37,2.65,1.79,1,.42,2.05.63,3.14.63h.05c.54,0,1.07-.06,1.6-.17.53-.11,1.04-.26,1.54-.47.5-.21.97-.46,1.41-.76.45-.3.86-.64,1.24-1.02.38-.38.72-.79,1.02-1.24.3-.45.55-.92.76-1.41s.37-1.01.47-1.53c.11-.53.16-1.06.17-1.6h0c0-.54-.04-1.07-.14-1.6-.1-.53-.25-1.05-.45-1.55s-.45-.98-.75-1.43c-.3-.45-.64-.87-1.02-1.26-.38-.39-.79-.73-1.24-1.03-.45-.3-.92-.56-1.42-.77-.5-.21-1.01-.37-1.55-.47-.53-.11-1.06-.16-1.6-.16h-.01m-16.44-13.86h-.02c-.68,0-1.33.13-1.96.4-.63.26-1.18.64-1.65,1.12-.23.23-.44.48-.62.75s-.33.56-.45.86c-.12.3-.21.61-.28.93-.06.32-.09.64-.08.97,0,.32.04.65.11.96.07.32.17.63.3.92.13.3.29.58.48.85.19.26.4.51.64.73,1.02.96,2.22,1.43,3.62,1.43.33,0,.65-.04.97-.1s.63-.16.93-.29c.3-.13.59-.28.86-.46.27-.18.52-.39.75-.62.23-.23.44-.48.62-.75.18-.27.34-.56.46-.86.13-.3.22-.61.29-.93.07-.32.1-.64.1-.97,0-.65-.13-1.28-.38-1.88-.25-.6-.61-1.13-1.08-1.58-.48-.48-1.03-.85-1.66-1.11-.62-.26-1.27-.38-1.94-.38h-.02Zm-7.07,3.52c.09-.46.23-.91.42-1.35.18-.44.41-.85.68-1.24.27-.39.57-.75.91-1.08.34-.33.71-.63,1.1-.88.4-.26.82-.47,1.26-.65.44-.18.89-.3,1.36-.39.47-.08.94-.12,1.41-.11h.01c.97.01,1.9.21,2.8.6s1.68.93,2.35,1.63c.66.66,1.17,1.43,1.53,2.3.35.87.52,1.77.5,2.71,0,.47-.06.93-.16,1.39-.1.46-.24.9-.43,1.33-.19.43-.41.84-.68,1.22-.27.39-.57.74-.9,1.07-.34.33-.7.62-1.09.88-.39.26-.81.47-1.24.65-.43.18-.88.31-1.34.4-.46.09-.93.13-1.4.13h-.02c-.48,0-.95-.04-1.41-.13-.46-.09-.92-.23-1.35-.4-.44-.18-.86-.4-1.25-.66-.39-.26-.76-.56-1.1-.9-.34-.33-.63-.7-.9-1.09-.26-.39-.48-.81-.66-1.25s-.31-.89-.4-1.35c-.09-.46-.13-.93-.13-1.41h0c0-.47.05-.94.14-1.4m-.68-6.08c-.64.43-1.24.9-1.81,1.43-.56.53-1.07,1.1-1.54,1.71-.46.61-.88,1.26-1.24,1.94-.36.68-.66,1.39-.89,2.12-.24.73-.42,1.48-.53,2.24-.12.76-.16,1.53-.15,2.29.01.77.09,1.53.23,2.29s.35,1.49.61,2.22c.49,1.4,1.22,2.67,2.2,3.79.06-.09.11-.16.16-.23h0c.43-.67.94-1.27,1.53-1.81.59-.54,1.23-.99,1.94-1.36.7-.37,1.45-.65,2.22-.83.78-.18,1.56-.26,2.36-.24h.06c.35,0,.71.01,1.06.01.98.01,1.98.02,2.97-.02,3.07-.13,5.36.49,7.19,1.96,1.4-1.44,3.05-2.5,4.95-3.17l.05-.24c.28-1.42.32-2.86.12-4.29-.13-1.17-.41-2.31-.84-3.41-.43-1.1-.99-2.13-1.69-3.08-.7-.96-1.5-1.8-2.42-2.55-.92-.74-1.92-1.36-2.99-1.84-1.86-.86-3.82-1.29-5.87-1.3-2.81,0-5.38.8-7.7,2.38M5.29,7.11c-.34.67-.66,1.3-.95,1.95-.12.33-.33.59-.61.8-.28.21-.6.32-.95.34-.7.08-1.4.2-2.15.32L0,10.61c.16.15.31.29.46.43.57.52,1.12,1.07,1.63,1.64.35.44.51.94.49,1.51-.07.77-.18,1.53-.33,2.28-.04.2-.07.41-.11.62.19-.1.38-.2.56-.3.65-.37,1.33-.71,2.02-1,.56-.2,1.11-.2,1.67,0,.7.3,1.39.63,2.05,1.01l.54.29c-.03-.21-.06-.42-.08-.63-.07-.69-.19-1.38-.35-2.06-.11-.35-.1-.7.01-1.04.12-.35.33-.62.63-.83.52-.46,1.04-.94,1.59-1.46.15-.14.31-.29.47-.45-.24-.04-.46-.08-.67-.11-.7-.12-1.31-.22-1.92-.27-.46,0-.88-.14-1.25-.41-.37-.27-.63-.63-.77-1.07-.24-.58-.52-1.15-.82-1.71-.08-.16-.17-.32-.25-.49-.09.18-.18.36-.27.54m39.9-.02c-.35.69-.66,1.34-.97,1.99-.12.31-.32.56-.58.76-.27.2-.57.31-.9.34-.71.08-1.41.19-2.22.33-.24.04-.49.08-.75.12.18.17.36.33.53.49.67.61,1.25,1.15,1.8,1.73.3.38.43.8.38,1.28-.08.78-.21,1.55-.35,2.37-.04.2-.07.4-.1.6l.56-.28c.68-.35,1.32-.67,1.94-1.03.28-.17.58-.26.91-.27.33,0,.65.1.93.28.61.35,1.24.67,1.92,1.01.19.1.39.2.6.3-.03-.2-.06-.39-.09-.57-.11-.67-.2-1.24-.34-1.82-.15-.44-.16-.88-.02-1.32.14-.44.4-.8.78-1.07.49-.39.95-.84,1.44-1.31.14-.13.27-.27.42-.41l-.72-.11c-.8-.11-1.48-.23-2.18-.31-.33-.02-.63-.13-.9-.34-.27-.2-.46-.46-.57-.77-.28-.65-.61-1.28-.96-1.95-.1-.18-.19-.37-.29-.56l-.26.53ZM25.22.55c-.33.64-.64,1.24-.9,1.84-.12.36-.34.65-.65.88-.31.22-.66.34-1.04.34-.67.05-1.33.17-2.04.3-.19.04-.39.07-.6.1.14.14.27.28.4.41.41.45.85.87,1.32,1.27.38.27.65.62.79,1.06.15.44.15.88.01,1.32-.15.59-.24,1.22-.35,1.88-.03.18-.06.37-.09.56l.6-.31c.69-.36,1.29-.66,1.88-1.01.29-.18.61-.27.95-.28.35,0,.68.1.98.29.59.34,1.19.65,1.89,1,.19.1.38.2.58.3-.03-.22-.07-.43-.1-.64-.11-.74-.21-1.38-.36-2.01-.11-.38-.1-.76.02-1.14.13-.38.35-.68.67-.92.49-.42.95-.89,1.45-1.38l.42-.42-.67-.11c-.77-.13-1.43-.24-2.11-.31-.33,0-.64-.11-.91-.3-.27-.19-.47-.44-.59-.76-.29-.65-.63-1.3-.98-1.98-.1-.19-.2-.38-.3-.57-.1.19-.19.37-.29.55"/>
    </clipPath>
    <linearGradient id="Degradado_sin_nombre_74-2" data-name="Degradado sin nombre 74" x1="-414.74" y1="216.71" x2="-413.74" y2="216.71" gradientTransform="translate(21183.23 11094.77) scale(51.08 -51.08)" xlink:href="#Degradado_sin_nombre_74"/>
  </defs>
  <g id="Capa_1-2" data-name="Capa 1">
    <g>
      <g class="cls-3">
        <rect class="cls-2" x="0" width="51.08" height="52.06"/>
      </g>
      <g class="cls-1">
        <rect class="cls-5" y="0" width="51.08" height="52.06"/>
      </g>
    </g>
  </g>
</svg>