<?xml version="1.0" encoding="UTF-8"?>
<svg id="Capa_2" data-name="Capa 2" xmlns="http://www.w3.org/2000/svg" xmlns:xlink="http://www.w3.org/1999/xlink" viewBox="0 0 44.23 52.86">
  <defs>
    <style>
      .cls-1 {
        fill: url(#Degradado_sin_nombre_56-2);
      }

      .cls-2 {
        clip-path: url(#clippath-1);
      }

      .cls-3 {
        clip-path: url(#clippath);
      }

      .cls-4 {
        fill: none;
      }

      .cls-5 {
        fill: url(#Degradado_sin_nombre_56);
      }
    </style>
    <clipPath id="clippath">
      <path class="cls-4" d="m31.48,23.06c.23-.21.49-.32.8-.32.31,0,.58.1.81.32h0c.11.1.19.23.24.36.06.14.09.28.09.43,0,.15-.03.29-.08.43-.06.14-.14.26-.24.37l-11.28,11.21c-.22.22-.49.33-.8.33-.31,0-.58-.11-.8-.33-.05-.04-.09-.09-.13-.15l-4.64-5.48c-.1-.12-.17-.26-.21-.41-.04-.15-.05-.3-.03-.46.02-.15.07-.3.15-.43.08-.13.18-.25.31-.34.13-.09.27-.15.42-.19.15-.03.31-.04.46,0,.15.03.3.09.42.18.13.09.24.2.32.33l3.86,4.42,10.33-10.28Zm-8.82-5.83c0,.28-.1.51-.29.7-.2.19-.43.29-.71.29s-.51-.1-.71-.29c-.2-.19-.29-.43-.29-.7v-3.13c-1.03.09-2.04.27-3.04.55-.99.27-1.96.63-2.88,1.08-.93.45-1.81.98-2.64,1.58-.83.61-1.6,1.29-2.31,2.04-.71.75-1.34,1.55-1.9,2.42-.56.86-1.03,1.77-1.43,2.72-.39.95-.69,1.92-.91,2.93-.21,1-.33,2.02-.36,3.04.08-.02.16-.03.24-.03h2.32c.2,0,.39.06.56.17.17.11.29.26.37.45.08.19.1.38.06.58-.04.2-.13.37-.27.51-.2.19-.43.29-.71.29h-2.32c-.06,0-.11,0-.17-.02.09.98.27,1.95.53,2.9.26.95.61,1.87,1.03,2.76.43.89.93,1.74,1.5,2.54.58.8,1.22,1.55,1.93,2.24.71.69,1.47,1.32,2.29,1.88.82.56,1.68,1.04,2.58,1.45.9.41,1.84.73,2.8.98.96.25,1.94.4,2.93.48,0-.03,0-.06,0-.08v-3.07c0-.27.1-.51.3-.7.19-.19.43-.29.71-.29s.51.1.71.29c.2.19.29.43.29.7v3.07s0,.08-.01.12c1.04-.04,2.06-.18,3.08-.42,1.01-.23,2-.55,2.95-.96.95-.41,1.86-.91,2.72-1.49.86-.58,1.66-1.23,2.4-1.95.74-.72,1.41-1.51,2-2.35.6-.85,1.11-1.74,1.54-2.68.43-.94.77-1.91,1.02-2.91s.41-2.02.47-3.05h-2.49c-.27,0-.51-.1-.7-.3-.19-.19-.29-.43-.3-.7,0-.28.1-.51.3-.7.2-.19.43-.29.71-.3h2.49c-.06-1.04-.22-2.06-.48-3.07-.25-1.01-.6-1.98-1.04-2.93-.44-.94-.95-1.84-1.56-2.69-.6-.85-1.28-1.64-2.03-2.36-.75-.73-1.56-1.38-2.43-1.95-.87-.58-1.79-1.07-2.75-1.47-.96-.41-1.95-.72-2.98-.95-1.02-.23-2.06-.35-3.1-.39v3.18Zm-15.47-7.27c-.41.03-.8.12-1.18.26-.38.15-.74.34-1.06.59-.32.28-.6.6-.83.96-.23.36-.39.75-.5,1.16-.11.41-.15.83-.13,1.25.02.42.1.84.25,1.24,1.67-1.95,3.6-3.6,5.8-4.94-.36-.2-.74-.34-1.14-.43-.3-.06-.6-.1-.9-.1-.1,0-.21,0-.31.01m28.49.03c-.39.07-.77.21-1.12.39,2.16,1.29,4.06,2.89,5.72,4.77.12-.38.19-.77.19-1.17,0-.4-.05-.79-.16-1.17s-.28-.74-.49-1.07c-.22-.33-.48-.63-.79-.88-.31-.26-.64-.46-1.01-.62-.37-.16-.75-.26-1.15-.3-.14-.02-.29-.02-.43-.02-.25,0-.5.02-.76.07m-15.42,39.64c-.62-.06-1.23-.15-1.84-.27-.61-.12-1.21-.27-1.81-.45-.6-.18-1.18-.39-1.76-.62s-1.14-.5-1.68-.79c-.55-.29-1.08-.61-1.6-.95-.52-.34-1.02-.71-1.5-1.1-.48-.39-.94-.81-1.38-1.24-.44-.44-.86-.89-1.25-1.37-.4-.48-.77-.97-1.11-1.49-.35-.51-.67-1.04-.96-1.59-.29-.55-.56-1.1-.8-1.67-.24-.57-.45-1.15-.63-1.74-.18-.59-.33-1.19-.45-1.8-.12-.61-.21-1.22-.27-1.83-.06-.61-.09-1.23-.09-1.85s.03-1.23.09-1.85c.06-.61.15-1.22.27-1.83.12-.6.27-1.2.45-1.79.18-.59.39-1.17.63-1.74.24-.57.5-1.13.8-1.67.29-.55.61-1.07.96-1.59.35-.51.72-1.01,1.11-1.49.39-.48.81-.93,1.25-1.37.44-.44.9-.85,1.38-1.24.48-.39.98-.76,1.5-1.1s1.05-.66,1.6-.95c.55-.29,1.11-.55,1.68-.79.58-.24,1.16-.44,1.76-.62.59-.18,1.2-.33,1.81-.45.61-.12,1.22-.21,1.84-.27.62-.06,1.24-.09,1.86-.09s1.24.03,1.86.09c.62.06,1.23.15,1.84.27.61.12,1.21.27,1.81.45.6.18,1.18.39,1.76.62.57.24,1.14.5,1.68.79.55.29,1.08.61,1.6.95.52.34,1.01.71,1.49,1.1.48.39.94.81,1.38,1.24.44.44.86.89,1.25,1.37.4.48.76.97,1.11,1.49.35.51.66,1.04.96,1.59.29.54.56,1.1.8,1.67.24.57.45,1.15.63,1.74.18.59.33,1.19.45,1.8.12.61.21,1.22.27,1.83.06.62.09,1.23.09,1.85s-.03,1.23-.09,1.85c-.06.62-.15,1.23-.27,1.83-.12.61-.27,1.2-.45,1.79-.18.59-.39,1.17-.63,1.74-.24.57-.5,1.13-.8,1.67-.29.54-.61,1.07-.96,1.59-.35.51-.72,1.01-1.11,1.49-.39.48-.81.93-1.25,1.37-.44.44-.9.85-1.38,1.24-.48.39-.98.76-1.5,1.1-.52.34-1.05.66-1.6.95-.55.29-1.11.56-1.68.79-.58.24-1.16.44-1.75.62-.6.18-1.2.33-1.81.45-.61.12-1.22.21-1.84.27-.62.06-1.24.09-1.86.09-.62,0-1.24-.03-1.86-.09m-.31-40.6c-.72.07-1.44.18-2.15.32-.71.14-1.41.31-2.11.52-.69.21-1.37.45-2.04.73-.67.27-1.32.58-1.96.92-.64.34-1.26.71-1.86,1.11-.6.4-1.18.83-1.74,1.28-.56.46-1.1.94-1.61,1.45-.51.51-1,1.04-1.46,1.6-.46.56-.89,1.13-1.29,1.73-.4.6-.77,1.21-1.12,1.85-.34.64-.65,1.28-.93,1.95-.28.66-.52,1.34-.73,2.03-.21.69-.39,1.39-.53,2.09-.14.71-.25,1.42-.32,2.13C.04,29.45,0,30.17,0,30.89s.04,1.44.11,2.15c.07.72.18,1.43.32,2.13.14.71.32,1.4.53,2.09.21.69.45,1.37.73,2.03.28.67.58,1.31.93,1.95.34.64.71,1.25,1.12,1.85.4.6.83,1.18,1.29,1.73.46.56.95,1.09,1.46,1.6.51.51,1.05.99,1.61,1.45.56.46,1.14.89,1.74,1.29.6.4,1.22.77,1.86,1.11.64.34,1.29.65,1.96.92.67.28,1.35.52,2.04.73.69.21,1.4.38,2.11.52s1.43.24,2.15.32c.72.07,1.44.11,2.17.11s1.45-.04,2.17-.11,1.44-.18,2.15-.32c.71-.14,1.41-.32,2.11-.52.69-.21,1.38-.45,2.04-.73.67-.28,1.32-.58,1.96-.92.64-.34,1.26-.71,1.86-1.11.6-.4,1.18-.83,1.74-1.29.56-.46,1.1-.94,1.61-1.45.51-.51,1-1.04,1.46-1.6.46-.56.89-1.13,1.29-1.73.4-.6.78-1.21,1.12-1.85.34-.63.65-1.28.93-1.95s.52-1.34.73-2.03c.21-.69.39-1.39.53-2.09.14-.71.25-1.42.32-2.13.07-.72.11-1.43.11-2.15s-.04-1.44-.11-2.15c-.07-.72-.18-1.43-.32-2.13-.14-.71-.32-1.4-.53-2.09-.21-.69-.45-1.36-.73-2.03-.28-.67-.59-1.31-.93-1.95-.34-.63-.71-1.25-1.12-1.85-.4-.6-.83-1.18-1.29-1.73-.46-.56-.95-1.09-1.46-1.6-.51-.51-1.05-.99-1.61-1.45-.56-.46-1.14-.88-1.74-1.28-.6-.4-1.22-.77-1.86-1.11-.64-.34-1.29-.65-1.96-.92-.67-.28-1.35-.52-2.04-.73-.69-.21-1.4-.39-2.11-.53-.71-.14-1.43-.25-2.15-.32-.72-.07-1.44-.11-2.17-.11s-1.45.04-2.17.11m1.16-5.58v3.51c.34-.01.67-.02,1.01-.02.29,0,.57.01.85.02v-3.5h-1.86Zm-3.86-1.99h9.58V0h-9.58v1.46Z"/>
    </clipPath>
    <linearGradient id="Degradado_sin_nombre_56" data-name="Degradado sin nombre 56" x1="-344.24" y1="145.59" x2="-343.24" y2="145.59" gradientTransform="translate(15227.38 6466.52) scale(44.23 -44.23)" gradientUnits="userSpaceOnUse">
      <stop offset="0" stop-color="#b9873d"/>
      <stop offset=".24" stop-color="#bc893d"/>
      <stop offset=".4" stop-color="#ddbe65"/>
      <stop offset=".53" stop-color="#f5e582"/>
      <stop offset=".77" stop-color="#f5e368"/>
      <stop offset=".8" stop-color="#edd963"/>
      <stop offset=".86" stop-color="#dac058"/>
      <stop offset=".93" stop-color="#ba9746"/>
      <stop offset="1" stop-color="#996d33"/>
    </linearGradient>
    <clipPath id="clippath-1">
      <path class="cls-4" d="m31.48,23.06c.23-.21.49-.32.8-.32.31,0,.58.1.81.32h0c.11.1.19.23.24.36.06.14.09.28.09.43,0,.15-.03.29-.08.43-.06.14-.14.26-.24.37l-11.28,11.21c-.22.22-.49.33-.8.33-.31,0-.58-.11-.8-.33-.05-.04-.09-.09-.13-.15l-4.64-5.48c-.1-.12-.17-.26-.21-.41-.04-.15-.05-.3-.03-.46.02-.15.07-.3.15-.43.08-.13.18-.25.31-.34.13-.09.27-.15.42-.19.15-.03.31-.04.46,0,.15.03.3.09.42.18.13.09.24.2.32.33l3.86,4.42,10.33-10.28Zm-8.82-5.83c0,.28-.1.51-.29.7-.2.19-.43.29-.71.29s-.51-.1-.71-.29c-.2-.19-.29-.43-.29-.7v-3.13c-1.03.09-2.04.27-3.04.55-.99.27-1.96.63-2.88,1.08-.93.45-1.81.98-2.64,1.58-.83.61-1.6,1.29-2.31,2.04-.71.75-1.34,1.55-1.9,2.42-.56.86-1.03,1.77-1.43,2.72-.39.95-.69,1.92-.91,2.93-.21,1-.33,2.02-.36,3.04.08-.02.16-.03.24-.03h2.32c.2,0,.39.06.56.17.17.11.29.26.37.45.08.19.1.38.06.58-.04.2-.13.37-.27.51-.2.19-.43.29-.71.29h-2.32c-.06,0-.11,0-.17-.02.09.98.27,1.95.53,2.9.26.95.61,1.87,1.03,2.76.43.89.93,1.74,1.5,2.54.58.8,1.22,1.55,1.93,2.24.71.69,1.47,1.32,2.29,1.88.82.56,1.68,1.04,2.58,1.45.9.41,1.84.73,2.8.98.96.25,1.94.4,2.93.48,0-.03,0-.06,0-.08v-3.07c0-.27.1-.51.3-.7.19-.19.43-.29.71-.29s.51.1.71.29c.2.19.29.43.29.7v3.07s0,.08-.01.12c1.04-.04,2.06-.18,3.08-.42,1.01-.23,2-.55,2.95-.96.95-.41,1.86-.91,2.72-1.49.86-.58,1.66-1.23,2.4-1.95.74-.72,1.41-1.51,2-2.35.6-.85,1.11-1.74,1.54-2.68.43-.94.77-1.91,1.02-2.91s.41-2.02.47-3.05h-2.49c-.27,0-.51-.1-.7-.3-.19-.19-.29-.43-.3-.7,0-.28.1-.51.3-.7.2-.19.43-.29.71-.3h2.49c-.06-1.04-.22-2.06-.48-3.07-.25-1.01-.6-1.98-1.04-2.93-.44-.94-.95-1.84-1.56-2.69-.6-.85-1.28-1.64-2.03-2.36-.75-.73-1.56-1.38-2.43-1.95-.87-.58-1.79-1.07-2.75-1.47-.96-.41-1.95-.72-2.98-.95-1.02-.23-2.06-.35-3.1-.39v3.18Zm-15.47-7.27c-.41.03-.8.12-1.18.26-.38.15-.74.34-1.06.59-.32.28-.6.6-.83.96-.23.36-.39.75-.5,1.16-.11.41-.15.83-.13,1.25.02.42.1.84.25,1.24,1.67-1.95,3.6-3.6,5.8-4.94-.36-.2-.74-.34-1.14-.43-.3-.06-.6-.1-.9-.1-.1,0-.21,0-.31.01m28.49.03c-.39.07-.77.21-1.12.39,2.16,1.29,4.06,2.89,5.72,4.77.12-.38.19-.77.19-1.17,0-.4-.05-.79-.16-1.17s-.28-.74-.49-1.07c-.22-.33-.48-.63-.79-.88-.31-.26-.64-.46-1.01-.62-.37-.16-.75-.26-1.15-.3-.14-.02-.29-.02-.43-.02-.25,0-.5.02-.76.07m-15.42,39.64c-.62-.06-1.23-.15-1.84-.27-.61-.12-1.21-.27-1.81-.45-.6-.18-1.18-.39-1.76-.62s-1.14-.5-1.68-.79c-.55-.29-1.08-.61-1.6-.95-.52-.34-1.02-.71-1.5-1.1-.48-.39-.94-.81-1.38-1.24-.44-.44-.86-.89-1.25-1.37-.4-.48-.77-.97-1.11-1.49-.35-.51-.67-1.04-.96-1.59-.29-.55-.56-1.1-.8-1.67-.24-.57-.45-1.15-.63-1.74-.18-.59-.33-1.19-.45-1.8-.12-.61-.21-1.22-.27-1.83-.06-.61-.09-1.23-.09-1.85s.03-1.23.09-1.85c.06-.61.15-1.22.27-1.83.12-.6.27-1.2.45-1.79.18-.59.39-1.17.63-1.74.24-.57.5-1.13.8-1.67.29-.55.61-1.07.96-1.59.35-.51.72-1.01,1.11-1.49.39-.48.81-.93,1.25-1.37.44-.44.9-.85,1.38-1.24.48-.39.98-.76,1.5-1.1s1.05-.66,1.6-.95c.55-.29,1.11-.55,1.68-.79.58-.24,1.16-.44,1.76-.62.59-.18,1.2-.33,1.81-.45.61-.12,1.22-.21,1.84-.27.62-.06,1.24-.09,1.86-.09s1.24.03,1.86.09c.62.06,1.23.15,1.84.27.61.12,1.21.27,1.81.45.6.18,1.18.39,1.76.62.57.24,1.14.5,1.68.79.55.29,1.08.61,1.6.95.52.34,1.01.71,1.49,1.1.48.39.94.81,1.38,1.24.44.44.86.89,1.25,1.37.4.48.76.97,1.11,1.49.35.51.66,1.04.96,1.59.29.54.56,1.1.8,1.67.24.57.45,1.15.63,1.74.18.59.33,1.19.45,1.8.12.61.21,1.22.27,1.83.06.62.09,1.23.09,1.85s-.03,1.23-.09,1.85c-.06.62-.15,1.23-.27,1.83-.12.61-.27,1.2-.45,1.79-.18.59-.39,1.17-.63,1.74-.24.57-.5,1.13-.8,1.67-.29.54-.61,1.07-.96,1.59-.35.51-.72,1.01-1.11,1.49-.39.48-.81.93-1.25,1.37-.44.44-.9.85-1.38,1.24-.48.39-.98.76-1.5,1.1-.52.34-1.05.66-1.6.95-.55.29-1.11.56-1.68.79-.58.24-1.16.44-1.75.62-.6.18-1.2.33-1.81.45-.61.12-1.22.21-1.84.27-.62.06-1.24.09-1.86.09-.62,0-1.24-.03-1.86-.09m-.31-40.6c-.72.07-1.44.18-2.15.32-.71.14-1.41.31-2.11.52-.69.21-1.37.45-2.04.73-.67.27-1.32.58-1.96.92-.64.34-1.26.71-1.86,1.11-.6.4-1.18.83-1.74,1.28-.56.46-1.1.94-1.61,1.45-.51.51-1,1.04-1.46,1.6-.46.56-.89,1.13-1.29,1.73-.4.6-.77,1.21-1.12,1.85-.34.64-.65,1.28-.93,1.95-.28.66-.52,1.34-.73,2.03-.21.69-.39,1.39-.53,2.09-.14.71-.25,1.42-.32,2.13C.04,29.45,0,30.17,0,30.89s.04,1.44.11,2.15c.07.72.18,1.43.32,2.13.14.71.32,1.4.53,2.09.21.69.45,1.37.73,2.03.28.67.58,1.31.93,1.95.34.64.71,1.25,1.12,1.85.4.6.83,1.18,1.29,1.73.46.56.95,1.09,1.46,1.6.51.51,1.05.99,1.61,1.45.56.46,1.14.89,1.74,1.29.6.4,1.22.77,1.86,1.11.64.34,1.29.65,1.96.92.67.28,1.35.52,2.04.73.69.21,1.4.38,2.11.52s1.43.24,2.15.32c.72.07,1.44.11,2.17.11s1.45-.04,2.17-.11,1.44-.18,2.15-.32c.71-.14,1.41-.32,2.11-.52.69-.21,1.38-.45,2.04-.73.67-.28,1.32-.58,1.96-.92.64-.34,1.26-.71,1.86-1.11.6-.4,1.18-.83,1.74-1.29.56-.46,1.1-.94,1.61-1.45.51-.51,1-1.04,1.46-1.6.46-.56.89-1.13,1.29-1.73.4-.6.78-1.21,1.12-1.85.34-.63.65-1.28.93-1.95s.52-1.34.73-2.03c.21-.69.39-1.39.53-2.09.14-.71.25-1.42.32-2.13.07-.72.11-1.43.11-2.15s-.04-1.44-.11-2.15c-.07-.72-.18-1.43-.32-2.13-.14-.71-.32-1.4-.53-2.09-.21-.69-.45-1.36-.73-2.03-.28-.67-.59-1.31-.93-1.95-.34-.63-.71-1.25-1.12-1.85-.4-.6-.83-1.18-1.29-1.73-.46-.56-.95-1.09-1.46-1.6-.51-.51-1.05-.99-1.61-1.45-.56-.46-1.14-.88-1.74-1.28-.6-.4-1.22-.77-1.86-1.11-.64-.34-1.29-.65-1.96-.92-.67-.28-1.35-.52-2.04-.73-.69-.21-1.4-.39-2.11-.53-.71-.14-1.43-.25-2.15-.32-.72-.07-1.44-.11-2.17-.11s-1.45.04-2.17.11m1.16-5.58v3.51c.34-.01.67-.03,1.01-.03.29,0,.57.01.85.02v-3.5h-1.86Zm-3.86-1.99h9.58V0h-9.58v1.46Z"/>
    </clipPath>
    <linearGradient id="Degradado_sin_nombre_56-2" data-name="Degradado sin nombre 56" y1="145.59" y2="145.59" gradientTransform="translate(15227.38 6466.52) scale(44.23 -44.23)" xlink:href="#Degradado_sin_nombre_56"/>
  </defs>
  <g id="Capa_1-2" data-name="Capa 1">
    <g>
      <g class="cls-3">
        <rect class="cls-5" width="44.23" height="52.86"/>
      </g>
      <g class="cls-2">
        <rect class="cls-1" width="44.23" height="52.86"/>
      </g>
    </g>
  </g>
</svg>