<?xml version="1.0" encoding="UTF-8"?>
<svg id="Capa_2" data-name="Capa 2" xmlns="http://www.w3.org/2000/svg" xmlns:xlink="http://www.w3.org/1999/xlink" viewBox="0 0 51.21 47">
  <defs>
    <style>
      .cls-1 {
        clip-path: url(#clippath-1);
      }

      .cls-2 {
        clip-path: url(#clippath);
      }

      .cls-3 {
        fill: none;
      }

      .cls-4 {
        fill: url(#Degradado_sin_nombre_58-2);
      }

      .cls-5 {
        fill: url(#Degradado_sin_nombre_58);
      }
    </style>
    <clipPath id="clippath">
      <path class="cls-3" d="m4.08,32.36c-.14-.06-.26-.14-.37-.24-.11-.11-.19-.23-.24-.37-.06-.14-.09-.28-.09-.43s.03-.29.09-.43c.06-.14.14-.26.24-.36.11-.11.23-.19.37-.24.14-.06.28-.08.43-.08h21.28c.15,0,.29.03.43.08.14.06.26.14.37.24.11.11.19.23.24.36.06.14.09.28.09.43s-.03.29-.09.43c-.06.14-.14.26-.24.37-.11.1-.23.19-.37.24s-.28.09-.43.09H4.51c-.15,0-.29-.03-.43-.09m.09-6.02c-.14-.06-.26-.14-.36-.24-.11-.1-.19-.23-.24-.36-.06-.14-.09-.28-.09-.43s.03-.29.09-.43c.06-.14.14-.26.24-.36.11-.11.23-.19.36-.24s.28-.09.43-.09h13.03c.15,0,.29.03.43.09.14.06.26.14.36.24.11.1.19.22.24.36.06.14.09.28.09.43s-.03.29-.09.43c-.06.14-.14.26-.24.36-.1.11-.23.19-.36.24-.14.06-.28.09-.43.09H4.6c-.15,0-.29-.03-.43-.09m.2-8.61c-.29-.01-.58.01-.87.06-.29.05-.57.13-.84.24-.27.11-.53.24-.77.41-.24.16-.47.35-.67.56-.21.21-.39.44-.54.68-.16.25-.29.51-.39.78-.1.27-.17.55-.22.84-.04.29-.05.58-.04.87C0,26.35,0,30.51.02,34.68c-.02.29,0,.58.04.87.05.29.12.57.22.84.1.27.23.53.39.78.16.25.34.47.55.68.21.21.43.39.67.55.24.16.5.29.77.4.27.11.55.18.84.23.29.05.58.07.87.05.77.01,1.55.03,2.33,0,.42-.06.8.05,1.14.31.31.36.44.78.39,1.26-.04,3.01-.12,5.76-.14,6.35,1.34-1.12,2.57-2.35,3.7-3.69.99-1.19,2.19-2.18,3.27-3.29.6-.68,1.36-.99,2.27-.94,2.94.05,5.86.04,8.8.01.3.02.59,0,.89-.03.3-.04.58-.12.86-.22.28-.1.54-.24.79-.4.25-.16.48-.35.69-.56.21-.21.4-.44.56-.69.16-.25.29-.51.4-.79.11-.28.18-.56.22-.86.04-.29.05-.59.03-.89.02-3.73.02-7.46,0-11.19-1.01.02-2.02.02-3.03,0-.84,0-1.68,0-2.52-.01-1.11,0-2.17-.24-3.16-.73-.95-.49-1.72-1.18-2.3-2.07-.59-.89-.92-1.87-.99-2.93-1.15,0-2.3,0-3.45,0-3.59,0-7.17,0-10.76.03m21.27-3.86c-.14-.06-.26-.14-.36-.24-.11-.11-.19-.23-.24-.37-.06-.14-.09-.28-.09-.43s.03-.29.09-.43c.06-.14.14-.26.24-.36.1-.1.23-.19.36-.24.14-.06.28-.09.43-.09h13.03c.15,0,.29.03.43.09.14.06.26.14.37.24.11.1.19.23.24.36.06.14.09.28.09.43s-.03.29-.09.43c-.06.14-.14.26-.24.37-.11.1-.23.19-.37.24-.14.06-.28.09-.43.09h-13.03c-.15,0-.29-.03-.43-.09m-.65-5.95c-.14-.06-.26-.14-.37-.24-.11-.11-.19-.23-.24-.36-.06-.14-.09-.28-.09-.43s.03-.29.09-.43c.06-.14.14-.26.24-.36s.23-.19.37-.24c.14-.06.28-.09.43-.09h21.28c.15,0,.29.03.43.09.14.06.26.14.37.24.11.1.19.23.24.36.06.14.09.28.09.43s-.03.29-.09.43c-.06.14-.14.26-.24.36-.11.11-.23.19-.37.24-.14.06-.28.08-.43.08h-21.28c-.15,0-.29-.03-.43-.08m-.01-7.89c-.29-.01-.58,0-.87.05-.29.05-.57.12-.84.23-.27.11-.53.24-.78.4-.24.16-.47.35-.68.55-.21.21-.39.43-.55.68-.16.25-.29.51-.39.78-.1.27-.18.56-.22.84-.04.29-.05.58-.04.87-.02,3.73-.01,7.45,0,11.18v1.32c0,.26.02.52.06.77.3,2.27,1.94,3.65,4.39,3.67,1.83,0,3.65.02,5.47.02.71,0,1.42,0,2.13-.02.4,0,.8,0,1.2-.01.91-.05,1.67.26,2.28.94,1.07,1.11,2.28,2.1,3.27,3.29,1.12,1.34,2.35,2.57,3.69,3.69-.02-.59-.11-3.34-.14-6.35-.05-.47.08-.89.4-1.26.33-.26.71-.37,1.13-.31.77.03,1.55.02,2.33,0,.29.01.58,0,.87-.05.29-.05.57-.12.84-.23.27-.11.53-.24.77-.4.24-.16.47-.35.68-.55.21-.21.39-.43.55-.68s.29-.5.4-.78c.1-.27.18-.55.22-.84.05-.29.06-.58.05-.87.02-4.16.02-8.33,0-12.5.02-.29,0-.58-.04-.87-.04-.29-.12-.57-.22-.85-.1-.27-.23-.53-.39-.78-.16-.25-.34-.48-.54-.68s-.43-.39-.67-.56c-.24-.16-.5-.3-.77-.41-.27-.11-.55-.19-.84-.24-.29-.05-.58-.07-.87-.06-3.65-.02-7.29-.03-10.94-.03s-7.29,0-10.93.03"/>
    </clipPath>
    <linearGradient id="Degradado_sin_nombre_58" data-name="Degradado sin nombre 58" x1="-335.99" y1="214.23" x2="-334.99" y2="214.23" gradientTransform="translate(17202.18 10991.36) scale(51.2 -51.2)" gradientUnits="userSpaceOnUse">
      <stop offset="0" stop-color="#b9873d"/>
      <stop offset=".24" stop-color="#bc893d"/>
      <stop offset=".4" stop-color="#ddbe65"/>
      <stop offset=".53" stop-color="#f5e582"/>
      <stop offset=".77" stop-color="#f5e368"/>
      <stop offset=".8" stop-color="#edd963"/>
      <stop offset=".86" stop-color="#dac058"/>
      <stop offset=".93" stop-color="#ba9746"/>
      <stop offset="1" stop-color="#996d33"/>
    </linearGradient>
    <clipPath id="clippath-1">
      <path class="cls-3" d="m4.08,32.36c-.14-.06-.26-.14-.37-.24-.11-.11-.19-.23-.24-.37-.06-.14-.09-.28-.09-.43s.03-.29.09-.43c.06-.14.14-.26.24-.36.11-.11.23-.19.37-.24.14-.06.28-.08.43-.08h21.28c.15,0,.29.03.43.08.14.06.26.14.37.24.11.11.19.23.24.36.06.14.09.28.09.43s-.03.29-.09.43c-.06.14-.14.26-.24.37-.11.1-.23.19-.37.24s-.28.09-.43.09H4.51c-.15,0-.29-.03-.43-.09m.09-6.02c-.14-.06-.26-.14-.36-.24-.11-.1-.19-.23-.24-.36-.06-.14-.09-.28-.09-.43s.03-.29.09-.43c.06-.14.14-.26.24-.36.11-.11.23-.19.36-.24s.28-.09.43-.09h13.03c.15,0,.29.03.43.09.14.06.26.14.36.24.11.1.19.22.24.36.06.14.09.28.09.43s-.03.29-.09.43c-.06.14-.14.26-.24.36-.1.11-.23.19-.36.24-.14.06-.28.09-.43.09H4.6c-.15,0-.29-.03-.43-.09m.2-8.61c-.29-.01-.58.01-.87.06-.29.05-.57.13-.84.24-.27.11-.53.24-.77.41-.24.16-.47.35-.67.56-.21.21-.39.44-.54.68-.16.25-.29.51-.39.78-.1.27-.17.55-.22.84-.04.29-.05.58-.04.87C0,26.35,0,30.51.02,34.68c-.02.29,0,.58.04.87.05.29.12.57.22.84.1.27.23.53.39.78.16.25.34.47.55.68.21.21.43.39.67.55.24.16.5.29.77.4.27.11.55.18.84.23.29.05.58.07.87.05.77.01,1.55.03,2.33,0,.42-.06.8.05,1.14.31.31.36.44.78.39,1.26-.04,3.01-.12,5.76-.14,6.35,1.34-1.12,2.57-2.35,3.7-3.69.99-1.19,2.19-2.18,3.27-3.29.6-.68,1.36-.99,2.27-.94,2.94.05,5.86.04,8.8.01.3.02.59,0,.89-.03.3-.04.58-.12.86-.22.28-.1.54-.24.79-.4.25-.16.48-.35.69-.56.21-.21.4-.44.56-.69.16-.25.29-.51.4-.79.11-.28.18-.56.22-.86.04-.29.05-.59.03-.89.02-3.73.02-7.46,0-11.19-1.01.02-2.02.02-3.03,0-.84,0-1.68,0-2.52-.01-1.11,0-2.17-.24-3.16-.73-.95-.49-1.72-1.18-2.3-2.07-.59-.89-.92-1.87-.99-2.93-1.15,0-2.3,0-3.45,0-3.59,0-7.17,0-10.76.03m21.27-3.86c-.14-.06-.26-.14-.36-.24-.11-.11-.19-.23-.24-.37-.06-.14-.09-.28-.09-.43s.03-.29.09-.43c.06-.14.14-.26.24-.36.1-.1.23-.19.36-.24.14-.06.28-.09.43-.09h13.03c.15,0,.29.03.43.09.14.06.26.14.37.24.11.1.19.23.24.36.06.14.09.28.09.43s-.03.29-.09.43c-.06.14-.14.26-.24.37-.11.1-.23.19-.37.24-.14.06-.28.09-.43.09h-13.03c-.15,0-.29-.03-.43-.09m-.65-5.95c-.14-.06-.26-.14-.37-.24-.11-.11-.19-.23-.24-.36-.06-.14-.09-.28-.09-.43s.03-.29.09-.43c.06-.14.14-.26.24-.36s.23-.19.37-.24c.14-.06.28-.09.43-.09h21.28c.15,0,.29.03.43.09.14.06.26.14.37.24.11.1.19.23.24.36.06.14.09.28.09.43s-.03.29-.09.43c-.06.14-.14.26-.24.36-.11.11-.23.19-.37.24-.14.06-.28.08-.43.08h-21.28c-.15,0-.29-.03-.43-.08m-.01-7.89c-.29-.01-.58,0-.87.05-.29.05-.57.12-.84.23-.27.11-.53.24-.78.4-.24.16-.47.35-.68.55-.21.21-.39.43-.55.68-.16.25-.29.51-.39.78-.1.27-.18.56-.22.84-.04.29-.05.58-.04.87-.02,3.73-.01,7.45,0,11.18v1.32c0,.26.02.52.06.77.3,2.27,1.94,3.65,4.39,3.67,1.83,0,3.65.02,5.47.02.71,0,1.42,0,2.13-.02.4,0,.8,0,1.2-.01.91-.05,1.67.26,2.28.94,1.07,1.11,2.28,2.1,3.27,3.29,1.12,1.34,2.35,2.57,3.69,3.69-.02-.59-.11-3.34-.14-6.35-.05-.47.08-.89.4-1.26.33-.26.71-.37,1.13-.31.77.03,1.55.02,2.33,0,.29.01.58,0,.87-.05.29-.05.57-.12.84-.23.27-.11.53-.24.77-.4.24-.16.47-.35.68-.55.21-.21.39-.43.55-.68s.29-.5.4-.78c.1-.27.18-.55.22-.84.05-.29.06-.58.05-.87.02-4.16.02-8.33,0-12.5.02-.29,0-.58-.04-.87-.04-.29-.12-.57-.22-.85-.1-.27-.23-.53-.39-.78-.16-.25-.34-.48-.54-.68s-.43-.39-.67-.56c-.24-.16-.5-.3-.77-.41-.27-.11-.55-.19-.84-.24-.29-.05-.58-.07-.87-.06-3.65-.02-7.29-.03-10.94-.03s-7.29,0-10.93.03"/>
    </clipPath>
    <linearGradient id="Degradado_sin_nombre_58-2" data-name="Degradado sin nombre 58" x1="-335.99" y1="214.23" x2="-334.99" y2="214.23" gradientTransform="translate(17205.97 10993.78) scale(51.21 -51.21)" xlink:href="#Degradado_sin_nombre_58"/>
  </defs>
  <g id="Capa_1-2" data-name="Capa 1">
    <g>
      <g class="cls-2">
        <rect class="cls-5" x="0" y="0" width="51.21" height="47"/>
      </g>
      <g class="cls-1">
        <rect class="cls-4" width="51.21" height="47"/>
      </g>
    </g>
  </g>
</svg>