<?xml version="1.0" encoding="UTF-8"?>
<svg id="Capa_2" data-name="Capa 2" xmlns="http://www.w3.org/2000/svg" xmlns:xlink="http://www.w3.org/1999/xlink" viewBox="0 0 46.6 47.3">
  <defs>
    <style>
      .cls-1 {
        fill: url(#Degradado_sin_nombre_72-2);
      }

      .cls-2 {
        clip-path: url(#clippath-1);
      }

      .cls-3 {
        fill: url(#Degradado_sin_nombre_72);
      }

      .cls-4 {
        clip-path: url(#clippath);
      }

      .cls-5 {
        fill: none;
      }
    </style>
    <clipPath id="clippath">
      <path class="cls-5" d="m21.13,28.58c.56,2.72,0,4.48-1.79,5.68-.4.27-.82.47-1.28.6-.45.14-.92.2-1.39.2-.48,0-.94-.08-1.39-.22-.45-.14-.87-.36-1.26-.63-1.75-1.22-2.3-3.01-1.71-5.62h-4.93v17.4c0,1.07.25,1.32,1.32,1.32h17.37s.02-.09.02-.13v-1.14c0-1.69,0-3.38,0-5.07-.04-.21-.01-.42.08-.61.09-.2.23-.35.41-.46.2-.09.41-.12.62-.07.22.05.39.16.53.33.42.39.91.63,1.47.71.56.09,1.1,0,1.62-.24.19-.08.38-.19.55-.32.17-.12.33-.27.47-.43.14-.16.27-.33.37-.52s.19-.38.25-.58c.06-.2.1-.41.12-.62.02-.21.01-.42-.02-.64-.03-.21-.08-.42-.15-.62-.07-.2-.17-.39-.28-.57-.11-.18-.25-.34-.4-.5-.15-.15-.31-.28-.49-.4-.18-.12-.37-.21-.57-.29-.2-.07-.4-.13-.61-.16-.21-.03-.42-.04-.63-.02-.21.02-.42.05-.62.12-.2.06-.4.14-.58.25-.18.1-.36.22-.52.36-.16.14-.65.56-1.13.23-.3-.22-.46-.52-.49-.89-.02-1.51,0-3.05,0-4.54v-1.67c0-.08,0-.17-.01-.25h-4.91Zm15.9-6.54c-.37.02-.72.11-1.06.26-.34.15-.63.36-.89.63-.26.26-.46.57-.61.91-.14.34-.22.7-.23,1.07,0,.37.05.73.18,1.08.13.35.31.66.56.94.16.14.26.31.3.52.05.21.03.4-.04.6-.09.19-.23.33-.42.42-.18.09-.38.12-.58.09h-.03c-1.72,0-3.44,0-5.16,0h-1.03c-.05,0-.11,0-.16.02v4.95c2.21-.71,4.05-.21,5.45,1.48.3.36.54.75.72,1.19.18.43.29.88.33,1.35.04.47,0,.93-.1,1.39-.11.46-.28.89-.52,1.29-1.32,2.18-3.29,2.9-5.86,2.14v4.96h17.42c1.01,0,1.29-.28,1.29-1.31v-17.05c0-.12,0-.24-.02-.37v-.04h-1.53c-1.63,0-3.23,0-4.83.01-.21.04-.42,0-.61-.08-.2-.09-.35-.24-.45-.43-.09-.19-.11-.4-.06-.6.05-.21.16-.38.33-.51.27-.3.46-.64.59-1.02.13-.38.17-.77.14-1.17-.03-.4-.14-.77-.33-1.13-.18-.35-.43-.66-.74-.91-.29-.24-.6-.41-.96-.53-.3-.1-.6-.14-.91-.14-.06,0-.11,0-.17,0m-8.78-14.01c-.12,0-.24,0-.37.02h-.04v1.52c0,1.64,0,3.2.01,4.79.03.21,0,.4-.08.59-.09.19-.22.34-.39.45-.19.1-.39.14-.6.1-.21-.04-.39-.14-.53-.3-.28-.26-.59-.45-.95-.58-.35-.13-.72-.19-1.1-.18-.38.01-.74.09-1.09.25-.35.15-.65.37-.91.64-.26.27-.47.58-.62.93-.15.35-.22.71-.23,1.09,0,.38.06.75.19,1.1.13.36.33.67.58.95.25.28.55.51.89.67.34.17.7.26,1.08.29.38.03.75-.02,1.1-.14.36-.12.68-.3.97-.55.13-.18.31-.3.53-.35.22-.05.43-.03.63.07.2.1.35.25.44.46.09.2.11.42.05.63v6.27h4.97c-.71-2.21-.22-4.05,1.48-5.46.36-.31.76-.55,1.2-.72.44-.18.89-.28,1.37-.32.47-.04.94,0,1.4.11.46.11.89.29,1.3.54,2.14,1.32,2.84,3.29,2.08,5.85h4.97V9.31c0-1.01-.27-1.28-1.26-1.28h-17.08ZM4.98.57C3.47,4.37,1.96,8.16.46,11.96l-.28.7c-.05.13-.1.27-.15.41l-.03.07,4.11,1.63c.05.02.11.04.16.07.36.13.81.3.88.85.07.56-.32.8-.64.99-.06.04-.12.07-.18.11-.4.27-.67.64-.82,1.09-.15.46-.15.91.01,1.37.16.45.44.81.84,1.08.4.26.84.37,1.32.34.47-.03.89-.2,1.24-.52.35-.32.57-.71.65-1.18.02-.22.01-.45-.02-.67-.03-.18-.04-.36-.04-.54v-.06c0-.32,0-.72.23-.91.24-.14.51-.2.79-.15h.21c.11,0,.21.04.31.1.03.02.06.03.09.05l4.12,1.64,1.26-3.19c-1.97-.29-3.16-1.36-3.54-3.16-.09-.35-.12-.71-.1-1.07.02-.36.1-.71.22-1.05.13-.34.3-.65.52-.94.22-.29.48-.54.77-.75,1.54-1.16,3.19-1.15,4.89.04l1.26-3.17c-.06-.03-.1-.05-.15-.07l-1.77-.71C13.07,2.93,9.53,1.52,5.97.11c-.18-.07-.32-.11-.44-.11-.25,0-.4.17-.55.57"/>
    </clipPath>
    <linearGradient id="Degradado_sin_nombre_72" data-name="Degradado sin nombre 72" x1="-645.83" y1="142.65" x2="-644.83" y2="142.65" gradientTransform="translate(30094.25 6671.08) scale(46.6 -46.6)" gradientUnits="userSpaceOnUse">
      <stop offset="0" stop-color="#002b6a"/>
      <stop offset=".01" stop-color="#002b6a"/>
      <stop offset=".47" stop-color="#027cc6"/>
      <stop offset="1" stop-color="#002b6a"/>
    </linearGradient>
    <clipPath id="clippath-1">
      <path class="cls-5" d="m21.13,28.58c.56,2.72,0,4.48-1.79,5.68-.4.27-.82.47-1.28.6-.45.14-.92.2-1.39.2-.48,0-.94-.08-1.39-.22-.45-.14-.87-.36-1.26-.63-1.75-1.22-2.3-3.01-1.71-5.62h-4.93v17.4c0,1.07.25,1.32,1.32,1.32h17.37s.02-.09.02-.13v-1.14c0-1.69,0-3.38,0-5.07-.04-.21-.01-.42.08-.61.09-.2.23-.35.41-.46.2-.09.41-.12.62-.07.22.05.39.16.53.33.42.39.91.63,1.47.71.56.09,1.1,0,1.62-.24.19-.08.38-.19.55-.32.17-.12.33-.27.47-.43.14-.16.27-.33.37-.52s.19-.38.25-.58c.06-.2.1-.41.12-.62.02-.21.01-.42-.02-.64-.03-.21-.08-.42-.15-.62-.07-.2-.17-.39-.28-.57-.11-.18-.25-.34-.4-.5-.15-.15-.31-.28-.49-.4-.18-.12-.37-.21-.57-.29-.2-.07-.4-.13-.61-.16-.21-.03-.42-.04-.63-.02-.21.02-.42.05-.62.12-.2.06-.4.14-.58.25-.18.1-.36.22-.52.36-.16.14-.65.56-1.13.23-.3-.22-.46-.52-.49-.89-.02-1.51,0-3.05,0-4.54v-1.67c0-.08,0-.17-.01-.25h-4.91Zm15.9-6.54c-.37.02-.72.11-1.06.26-.34.15-.63.36-.89.63-.26.26-.46.57-.61.91-.14.34-.22.7-.23,1.07,0,.37.05.73.18,1.08.13.35.31.66.56.94.16.14.26.31.3.52.05.21.03.4-.04.6-.09.19-.23.33-.42.42-.18.09-.38.12-.58.09h-.03c-1.72,0-3.44,0-5.16,0h-1.03c-.05,0-.11,0-.16.02v4.95c2.21-.71,4.05-.21,5.45,1.48.3.36.54.75.72,1.19.18.43.29.88.33,1.35.04.47,0,.93-.1,1.39-.11.46-.28.89-.52,1.29-1.32,2.18-3.29,2.9-5.86,2.14v4.96h17.42c1.01,0,1.29-.28,1.29-1.31v-17.05c0-.12,0-.24-.02-.37v-.04h-1.53c-1.63,0-3.23,0-4.83.01-.21.04-.42,0-.61-.08-.2-.09-.35-.24-.45-.43-.09-.19-.11-.4-.06-.6.05-.21.16-.38.33-.51.27-.3.46-.64.59-1.02.13-.38.17-.77.14-1.17-.03-.4-.14-.77-.33-1.13-.18-.35-.43-.66-.74-.91-.29-.24-.6-.41-.96-.53-.3-.1-.6-.14-.91-.14-.06,0-.11,0-.17,0m-8.78-14.01c-.12,0-.24,0-.37.02h-.04v1.52c0,1.64,0,3.2.01,4.79.03.21,0,.4-.08.59-.09.19-.22.34-.39.45-.19.1-.39.14-.6.1-.21-.04-.39-.14-.53-.3-.28-.26-.59-.45-.95-.58-.35-.13-.72-.19-1.1-.18-.38.01-.74.09-1.09.25-.35.15-.65.37-.91.64-.26.27-.47.58-.62.93-.15.35-.22.71-.23,1.09,0,.38.06.75.19,1.1.13.36.33.67.58.95.25.28.55.51.89.67.34.17.7.26,1.08.29.38.03.75-.02,1.1-.14.36-.12.68-.3.97-.55.13-.18.31-.3.53-.35.22-.05.43-.03.63.07.2.1.35.25.44.46.09.2.11.42.05.63v6.27h4.97c-.71-2.21-.22-4.05,1.48-5.46.36-.31.76-.55,1.2-.72.44-.18.89-.28,1.37-.32.47-.04.94,0,1.4.11.46.11.89.29,1.3.54,2.14,1.32,2.84,3.29,2.08,5.85h4.97V9.31c0-1.01-.27-1.28-1.26-1.28h-17.08ZM4.98.57C3.47,4.37,1.96,8.16.46,11.96l-.28.7c-.05.13-.1.27-.15.41l-.03.07,4.11,1.63c.05.02.11.04.16.07.36.13.81.3.88.85.07.56-.32.8-.64.99-.06.04-.12.07-.18.11-.4.27-.67.64-.82,1.09-.15.46-.15.91.01,1.37.16.45.44.81.84,1.08.4.26.84.37,1.32.34.47-.03.89-.2,1.24-.52.35-.32.57-.71.65-1.18.02-.22.01-.45-.02-.67-.03-.18-.04-.36-.04-.54v-.06c0-.32,0-.72.23-.91.24-.14.51-.2.79-.15h.21c.11,0,.21.04.31.1.03.02.06.03.09.05l4.12,1.64,1.26-3.19c-1.97-.29-3.16-1.36-3.54-3.16-.09-.35-.12-.71-.1-1.07.02-.36.1-.71.22-1.05.13-.34.3-.65.52-.94.22-.29.48-.54.77-.75,1.54-1.16,3.19-1.15,4.89.04l1.26-3.17c-.06-.03-.1-.05-.15-.07l-1.77-.71C13.07,2.93,9.53,1.52,5.97.11c-.18-.07-.32-.11-.44-.11-.25,0-.4.17-.55.57"/>
    </clipPath>
    <linearGradient id="Degradado_sin_nombre_72-2" data-name="Degradado sin nombre 72" y1="142.65" y2="142.65" gradientTransform="translate(30094.25 6671.08) scale(46.6 -46.6)" xlink:href="#Degradado_sin_nombre_72"/>
  </defs>
  <g id="Capa_1-2" data-name="Capa 1">
    <g>
      <g class="cls-4">
        <rect class="cls-3" x="0" y="0" width="46.6" height="47.3"/>
      </g>
      <g class="cls-2">
        <rect class="cls-1" x="0" y="0" width="46.6" height="47.3"/>
      </g>
    </g>
  </g>
</svg>