<?xml version="1.0" encoding="UTF-8"?>
<svg id="Capa_2" data-name="Capa 2" xmlns="http://www.w3.org/2000/svg" xmlns:xlink="http://www.w3.org/1999/xlink" viewBox="0 0 39.64 49.39">
  <defs>
    <style>
      .cls-1 {
        clip-path: url(#clippath-1);
      }

      .cls-2 {
        fill: url(#Degradado_sin_nombre_68);
      }

      .cls-3 {
        clip-path: url(#clippath);
      }

      .cls-4 {
        fill: none;
      }

      .cls-5 {
        fill: url(#Degradado_sin_nombre_68-2);
      }
    </style>
    <clipPath id="clippath">
      <path class="cls-4" d="m32.88,21.2l2.27,6.84h-4.55l2.28-6.84Zm-26.07-.1l2.27,6.83h-4.54l2.28-6.83Zm11.19-10.12c-.34-.14-.65-.35-.91-.62-.26-.27-.46-.57-.61-.92-.14-.35-.21-.71-.21-1.09,0-.36.07-.7.19-1.03.13-.33.31-.63.55-.89.24-.26.51-.47.83-.63.32-.16.65-.25,1-.28v-.9c0-.22.09-.41.24-.56.16-.15.34-.23.56-.23s.4.08.56.23c.16.15.24.34.24.56v.9c.35.03.68.12.99.28.32.16.59.37.83.63.24.26.42.56.55.89.13.33.19.68.2,1.03,0,.22-.09.41-.24.56-.16.15-.34.23-.56.23s-.4-.08-.56-.23c-.16-.15-.24-.34-.24-.56,0-.16-.03-.32-.09-.46-.06-.15-.15-.28-.26-.39-.11-.11-.24-.2-.39-.26-.15-.06-.3-.09-.46-.1h-1.15c-.24,0-.46.07-.66.2-.2.14-.35.32-.44.54-.09.23-.12.46-.07.7s.16.45.33.62c.23.24.52.36.84.36h1.15c.36,0,.71.07,1.04.21.33.14.63.33.89.59.26.25.46.55.61.88.15.33.23.69.24,1.05.01.37-.04.72-.16,1.07-.12.35-.3.65-.54.93-.24.27-.52.49-.84.66-.32.16-.66.26-1.02.29v.9c0,.22-.09.41-.24.56-.15.15-.34.23-.56.23s-.4-.08-.56-.23-.24-.34-.24-.56v-.9c-.68-.06-1.27-.33-1.75-.83-.55-.55-.82-1.22-.82-2.01,0-.22.08-.42.24-.57.16-.16.35-.24.56-.24s.41.08.57.24c.16.16.23.35.23.57,0,.16.03.32.09.47.06.15.15.28.26.39.11.11.24.2.39.26.15.06.3.09.46.09h1.15c.16,0,.31-.03.46-.09.15-.06.27-.15.39-.26.11-.11.2-.25.26-.39s.09-.3.09-.46-.03-.32-.09-.46c-.06-.15-.15-.28-.26-.39-.11-.11-.24-.2-.39-.26-.15-.06-.3-.09-.46-.09h-1.15c-.37,0-.73-.07-1.07-.22m-.21-10.8c-.64.12-1.26.3-1.86.54-.6.24-1.18.53-1.73.89-.55.35-1.06.75-1.53,1.2-.47.45-.9.94-1.28,1.48-.38.53-.71,1.1-.98,1.7-.27.6-.49,1.21-.65,1.85-.16.64-.26,1.29-.29,1.95-.04.66-.01,1.31.07,1.97.09.65.23,1.29.44,1.92.21.63.47,1.23.79,1.8.32.57.69,1.11,1.1,1.62-1.06,0-1.4,0-2.75,0-.48,0-.97.01-1.46.03-.32.01-.64.02-.96.03-.16,0-.3.05-.43.14-.13.1-.21.22-.25.38-.09.27-.19.53-.3.81-.15.4-.31.82-.44,1.23-.85,2.52-1.76,5.23-2.64,7.93-.1.3-.21.39-.52.36-.44-.03-.89-.02-1.33-.01-.19,0-.38,0-.57,0H.07v.15c-.07,3.13.99,5.32,3.2,6.7.55.38,1.15.66,1.8.85.64.19,1.3.27,1.97.25.67-.02,1.32-.15,1.95-.38.63-.23,1.21-.55,1.74-.97,1.97-1.41,2.9-3.53,2.85-6.47v-.16h-.16c-.19,0-.38,0-.56,0-.4,0-.81,0-1.22,0q-.52-.01-.7-.53l-.42-1.26c-.79-2.38-1.59-4.76-2.38-7.13,0,0,0-.02,0-.03h2.24c1.63,0,2.19,0,3.64,0,1.46.99,3.06,1.55,4.81,1.68v21.27H4.61v7.42h30.48v-7.42h-14.39v-21.29c1.58-.16,3.04-.68,4.38-1.55,1.12,0,2.7.01,3.73.02h2.57c.05.01.1.02.16.03l-.47,1.42c-.74,2.21-1.47,4.42-2.21,6.63-.02.07-.05.15-.07.23v.02c-.04.21-.13.4-.26.57-.18.06-.37.08-.56.04l-.31-.02c-.28,0-.56,0-.84,0h-.73v.31c-.02,1.15.16,2.27.55,3.36.26.62.6,1.19,1.02,1.71.42.52.91.97,1.46,1.35.55.38,1.14.67,1.77.87.63.2,1.28.31,1.94.33h.22c.73-.03,1.44-.18,2.13-.45.69-.27,1.31-.64,1.89-1.11.57-.47,1.05-1.02,1.44-1.66.39-.63.68-1.31.86-2.04.08-.36.13-.73.18-1.09.02-.17.04-.33.07-.51v-1.09h-2.23c-.18.02-.28-.06-.31-.24-.14-.44-.29-.88-.44-1.3-.08-.22-.14-.43-.22-.64l-.64-1.87c-.66-1.95-1.35-3.97-2.02-5.98-.06-.26-.19-.46-.4-.62-.21-.16-.44-.22-.7-.2-1.8,0-3.62,0-5.36-.01.43-.49.8-1.03,1.13-1.6.33-.57.6-1.17.81-1.79.21-.62.37-1.26.47-1.91.1-.65.13-1.31.1-1.96-.03-.66-.12-1.31-.26-1.95-.15-.64-.36-1.26-.62-1.86-.27-.6-.58-1.17-.96-1.71-.37-.54-.79-1.04-1.26-1.5-.47-.46-.97-.87-1.51-1.23-.54-.36-1.11-.66-1.71-.91-.6-.25-1.22-.44-1.85-.57-.63-.13-1.28-.2-1.92-.2-.03,0-.05,0-.08,0-.62,0-1.24.06-1.85.17"/>
    </clipPath>
    <linearGradient id="Degradado_sin_nombre_68" data-name="Degradado sin nombre 68" x1="-495.05" y1="143.19" x2="-494.05" y2="143.19" gradientTransform="translate(19595.31 5692.61) scale(39.58 -39.58)" gradientUnits="userSpaceOnUse">
      <stop offset="0" stop-color="#002b6a"/>
      <stop offset=".01" stop-color="#002b6a"/>
      <stop offset=".47" stop-color="#027cc6"/>
      <stop offset="1" stop-color="#002b6a"/>
    </linearGradient>
    <clipPath id="clippath-1">
      <path class="cls-4" d="m32.88,21.2l2.27,6.84h-4.55l2.28-6.84Zm-26.07-.1l2.27,6.83h-4.54l2.28-6.83Zm11.19-10.12c-.34-.14-.65-.35-.91-.62-.26-.27-.46-.57-.61-.92-.14-.35-.21-.71-.21-1.09,0-.36.07-.7.19-1.03.13-.33.31-.63.55-.89.24-.26.51-.47.83-.63.32-.16.65-.25,1-.28v-.9c0-.22.09-.41.24-.56.16-.15.34-.23.56-.23s.4.08.56.23c.16.15.24.34.24.56v.9c.35.03.68.12.99.28.32.16.59.37.83.63.24.26.42.56.55.89.13.33.19.68.2,1.03,0,.22-.09.41-.24.56-.16.15-.34.23-.56.23s-.4-.08-.56-.23c-.16-.15-.24-.34-.24-.56,0-.16-.03-.32-.09-.46-.06-.15-.15-.28-.26-.39-.11-.11-.24-.2-.39-.26-.15-.06-.3-.09-.46-.1h-1.15c-.24,0-.46.07-.66.2-.2.14-.35.32-.44.54-.09.23-.12.46-.07.7s.16.45.33.62c.23.24.52.36.84.36h1.15c.36,0,.71.07,1.04.21.33.14.63.33.89.59.26.25.46.55.61.88.15.33.23.69.24,1.05.01.37-.04.72-.16,1.07-.12.35-.3.65-.54.93-.24.27-.52.49-.84.66-.32.16-.66.26-1.02.29v.9c0,.22-.09.41-.24.56-.15.15-.34.23-.56.23s-.4-.08-.56-.23-.24-.34-.24-.56v-.9c-.68-.06-1.27-.33-1.75-.83-.55-.55-.82-1.22-.82-2.01,0-.22.08-.42.24-.57.16-.16.35-.24.56-.24s.41.08.57.24c.16.16.23.35.23.57,0,.16.03.32.09.47.06.15.15.28.26.39.11.11.24.2.39.26.15.06.3.09.46.09h1.15c.16,0,.31-.03.46-.09.15-.06.27-.15.39-.26.11-.11.2-.25.26-.39s.09-.3.09-.46-.03-.32-.09-.46c-.06-.15-.15-.28-.26-.39-.11-.11-.24-.2-.39-.26-.15-.06-.3-.09-.46-.09h-1.15c-.37,0-.73-.07-1.07-.22m-.21-10.8c-.64.12-1.26.3-1.86.54-.6.24-1.18.53-1.73.89-.55.35-1.06.75-1.53,1.2-.47.45-.9.94-1.28,1.48-.38.53-.71,1.1-.98,1.7-.27.6-.49,1.21-.65,1.85-.16.64-.26,1.29-.29,1.95-.04.66-.01,1.31.07,1.97.09.65.23,1.29.44,1.92.21.63.47,1.23.79,1.8.32.57.69,1.11,1.1,1.62-1.06,0-1.4,0-2.75,0-.48,0-.97.01-1.46.03-.32.01-.64.02-.96.03-.16,0-.3.05-.43.14-.13.1-.21.22-.25.38-.09.27-.19.53-.3.81-.15.4-.31.82-.44,1.23-.85,2.52-1.76,5.23-2.64,7.93-.1.3-.21.39-.52.36-.44-.03-.89-.02-1.33-.01-.19,0-.38,0-.57,0H.07v.15c-.07,3.13.99,5.32,3.2,6.7.55.38,1.15.66,1.8.85.64.19,1.3.27,1.97.25.67-.02,1.32-.15,1.95-.38.63-.23,1.21-.55,1.74-.97,1.97-1.41,2.9-3.53,2.85-6.47v-.16h-.16c-.19,0-.38,0-.56,0-.4,0-.81,0-1.22,0q-.52-.01-.7-.53l-.42-1.26c-.79-2.38-1.59-4.76-2.38-7.13,0,0,0-.02,0-.03h2.24c1.63,0,2.19,0,3.64,0,1.46.99,3.06,1.55,4.81,1.68v21.27H4.61v7.42h30.48v-7.42h-14.39v-21.29c1.58-.16,3.04-.68,4.38-1.55,1.12,0,2.7.01,3.73.02h2.57c.05.01.1.02.16.03l-.47,1.42c-.74,2.21-1.47,4.42-2.21,6.63-.02.07-.05.15-.07.23v.02c-.04.21-.13.4-.26.57-.18.06-.37.08-.56.04l-.31-.02c-.28,0-.56,0-.84,0h-.73v.31c-.02,1.15.16,2.27.55,3.36.26.62.6,1.19,1.02,1.71.42.52.91.97,1.46,1.35.55.38,1.14.67,1.77.87.63.2,1.28.31,1.94.33h.22c.73-.03,1.44-.18,2.13-.45.69-.27,1.31-.64,1.89-1.11.57-.47,1.05-1.02,1.44-1.66.39-.63.68-1.31.86-2.04.08-.36.13-.73.18-1.09.02-.17.04-.33.07-.51v-1.09h-2.23c-.18.02-.28-.06-.31-.24-.14-.44-.29-.88-.44-1.3-.08-.22-.14-.43-.22-.64l-.64-1.87c-.66-1.95-1.35-3.97-2.02-5.98-.06-.26-.19-.46-.4-.62-.21-.16-.44-.22-.7-.2-1.8,0-3.62,0-5.36-.01.43-.49.8-1.03,1.13-1.6.33-.57.6-1.17.81-1.79.21-.62.37-1.26.47-1.91.1-.65.13-1.31.1-1.96-.03-.66-.12-1.31-.26-1.95-.15-.64-.36-1.26-.62-1.86-.27-.6-.58-1.17-.96-1.71-.37-.54-.79-1.04-1.26-1.5-.47-.46-.97-.87-1.51-1.23-.54-.36-1.11-.66-1.71-.91-.6-.25-1.22-.44-1.85-.57-.63-.13-1.28-.2-1.92-.2-.03,0-.05,0-.08,0-.62,0-1.24.06-1.85.17"/>
    </clipPath>
    <linearGradient id="Degradado_sin_nombre_68-2" data-name="Degradado sin nombre 68" x1="-495.05" y1="143.19" x2="-494.05" y2="143.19" gradientTransform="translate(19621.9 5700.32) scale(39.64 -39.64)" xlink:href="#Degradado_sin_nombre_68"/>
  </defs>
  <g id="Capa_1-2" data-name="Capa 1">
    <g>
      <g class="cls-3">
        <rect class="cls-2" y="0" width="39.64" height="49.39"/>
      </g>
      <g class="cls-1">
        <rect class="cls-5" width="39.64" height="49.39"/>
      </g>
    </g>
  </g>
</svg>