<?xml version="1.0" encoding="UTF-8"?>
<svg id="Capa_2" data-name="Capa 2" xmlns="http://www.w3.org/2000/svg" xmlns:xlink="http://www.w3.org/1999/xlink" viewBox="0 0 51.28 51.31">
  <defs>
    <style>
      .cls-1 {
        fill: url(#Degradado_sin_nombre_78);
      }

      .cls-2 {
        clip-path: url(#clippath-1);
      }

      .cls-3 {
        fill: url(#Degradado_sin_nombre_78-2);
      }

      .cls-4 {
        clip-path: url(#clippath);
      }

      .cls-5 {
        fill: none;
      }
    </style>
    <clipPath id="clippath">
      <path class="cls-5" d="m32.96,19.06c.11-.1.24-.19.38-.24.14-.06.29-.09.44-.09.15,0,.3.03.44.08.14.06.27.14.38.24.11.11.19.23.25.38.06.14.09.29.09.44s-.03.3-.09.45c-.06.14-.14.27-.25.38l-11.53,11.54c-.23.23-.5.34-.82.34h0c-.32,0-.59-.11-.82-.34-.05-.05-.09-.1-.13-.15l-4.74-5.64c-.1-.12-.17-.26-.22-.42-.04-.15-.05-.31-.03-.47.02-.16.07-.31.15-.44.08-.14.19-.25.32-.35.13-.09.27-.16.43-.19.16-.03.31-.04.47,0,.16.03.3.09.43.18.13.09.24.21.33.34l3.94,4.55,10.57-10.58Zm-10.09-7.38c-.92.18-1.81.45-2.67.81-.86.36-1.68.8-2.46,1.32-.78.52-1.5,1.11-2.16,1.77-.66.66-1.25,1.38-1.77,2.16-.52.78-.96,1.6-1.32,2.46-.36.86-.63,1.75-.81,2.67-.18.92-.28,1.84-.28,2.78,0,.93.09,1.86.27,2.78.18.92.45,1.81.81,2.67.36.86.8,1.69,1.32,2.46.52.78,1.11,1.5,1.77,2.16.66.66,1.38,1.25,2.16,1.77s1.6.96,2.46,1.32c.86.36,1.75.63,2.67.81.92.18,1.84.27,2.78.27.94,0,1.86-.09,2.78-.27.92-.18,1.81-.45,2.67-.81.86-.36,1.69-.8,2.46-1.32.78-.52,1.5-1.11,2.16-1.77.66-.66,1.25-1.38,1.77-2.16.52-.78.96-1.6,1.32-2.46.36-.86.63-1.75.81-2.67.18-.92.27-1.84.27-2.78,0-.93-.09-1.86-.28-2.78-.18-.92-.45-1.81-.81-2.67-.36-.86-.8-1.68-1.32-2.46-.52-.78-1.11-1.5-1.77-2.16-.66-.66-1.38-1.25-2.16-1.77-.78-.52-1.6-.96-2.46-1.32-.86-.36-1.75-.63-2.67-.81-.92-.18-1.84-.27-2.78-.28h0c-.93,0-1.86.09-2.78.27m1.16,30.4c-.54-.05-1.07-.13-1.6-.24-.53-.11-1.05-.24-1.57-.39-.52-.16-1.03-.34-1.53-.54-.5-.21-.99-.44-1.46-.69-.48-.25-.94-.53-1.39-.83-.45-.3-.88-.62-1.3-.96-.42-.34-.82-.71-1.2-1.09-.38-.38-.74-.78-1.09-1.2-.34-.42-.66-.85-.97-1.3-.3-.45-.58-.91-.83-1.39-.26-.48-.49-.96-.69-1.46-.21-.5-.39-1.01-.55-1.52-.16-.52-.29-1.04-.39-1.57-.11-.53-.18-1.06-.24-1.6-.05-.54-.08-1.08-.08-1.62s.03-1.08.08-1.62c.05-.54.13-1.07.24-1.6.11-.53.24-1.05.39-1.57s.34-1.03.55-1.52c.21-.5.44-.99.69-1.46.25-.48.53-.94.83-1.39.3-.45.62-.88.97-1.3.34-.42.71-.82,1.09-1.2.38-.38.78-.74,1.2-1.09.42-.34.85-.66,1.3-.96.45-.3.91-.58,1.39-.83.48-.26.97-.49,1.47-.69.5-.21,1.01-.39,1.53-.55.52-.16,1.04-.29,1.57-.39.53-.1,1.07-.18,1.6-.24.54-.05,1.08-.08,1.62-.08s1.08.03,1.62.08c.54.05,1.07.13,1.6.24.53.1,1.05.24,1.57.39.52.16,1.03.34,1.53.55.5.21.99.44,1.46.69.48.25.94.53,1.39.83.45.3.88.62,1.3.96.42.34.82.71,1.2,1.09.38.38.74.78,1.09,1.2.34.42.66.85.96,1.3.3.45.58.91.83,1.39.26.48.48.96.69,1.46.21.5.39,1.01.55,1.53.16.52.29,1.04.39,1.57.11.53.18,1.06.24,1.6.05.54.08,1.08.08,1.62s-.03,1.08-.08,1.62c-.05.54-.13,1.07-.24,1.6-.11.53-.24,1.05-.39,1.57-.16.52-.34,1.02-.55,1.52-.21.5-.44.99-.69,1.46-.26.48-.53.94-.83,1.39-.3.45-.62.88-.96,1.3-.34.42-.71.82-1.09,1.2-.38.38-.78.74-1.2,1.09-.42.34-.85.66-1.3.96-.45.3-.91.58-1.39.83-.48.25-.96.49-1.46.69-.5.21-1.01.39-1.52.55-.52.16-1.04.29-1.57.39-.53.11-1.06.19-1.6.24-.54.05-1.08.08-1.62.08h-.01c-.54,0-1.07-.03-1.6-.08M22.85,0v3.03c0,2.1-.96,2.87-2.49,3.43-1.53.56-3.07,1.19-4.55,1.88-1.55.73-2.68.85-4.17-.65-.65-.64-1.3-1.29-1.93-1.93l-.14-.14-3.98,3.97c.63.63,1.25,1.26,1.88,1.89,1.68,1.68,1.65,2.66.71,4.57-.65,1.34-1.22,2.72-1.71,4.13-.64,1.87-1.33,2.71-3.7,2.71H0v5.58h3.04c2.05,0,2.83.97,3.36,2.41.57,1.54,1.22,3.13,1.95,4.73.65,1.42.77,2.59-.63,4.02l-2.16,2.15,3.98,3.97c.69-.7,1.39-1.4,2.1-2.11,1.47-1.47,2.63-1.35,4.14-.63,1.44.67,2.99,1.3,4.59,1.89,1.53.56,2.47,1.33,2.47,3.45v2.96h5.6v-2.94c0-1.9.69-2.85,2.54-3.48,1.33-.42,2.62-.93,3.88-1.53,2.63-1.31,3.28-1.21,5.32.84.53.53,1.06,1.07,1.58,1.59l1.06-1.06c.98-.98,1.95-1.95,2.93-2.93l-.38-.38c-.62-.61-1.25-1.23-1.86-1.86-.28-.23-.51-.51-.69-.83-.18-.32-.29-.66-.35-1.02-.05-.36-.04-.72.04-1.08.08-.36.22-.69.43-.99.84-1.51,1.51-3.11,1.99-4.77.07-.36.21-.69.4-1.01.2-.31.44-.58.73-.8.29-.22.62-.38.97-.49.35-.1.71-.14,1.08-.11h3.17v-5.58h-2.94c-1.91-.02-2.82-.68-3.48-2.52-.52-1.44-1.14-2.95-1.85-4.49-.76-1.61-.87-2.72.68-4.27.68-.69,1.38-1.38,2.07-2.06l-3.97-3.98-.27.27c-.69.69-1.37,1.37-2.07,2.05-.22.26-.48.47-.77.63-.29.16-.61.27-.94.33-.33.05-.67.05-1-.02-.33-.07-.64-.19-.93-.36-1.64-.9-3.37-1.62-5.17-2.13-.33-.09-.64-.23-.92-.42-.28-.19-.52-.43-.72-.71-.2-.28-.35-.58-.44-.91-.09-.33-.13-.67-.1-1.01,0-.77,0-1.54,0-2.32v-.98h-5.59Z"/>
    </clipPath>
    <linearGradient id="Degradado_sin_nombre_78" data-name="Degradado sin nombre 78" x1="-572.1" y1="216.29" x2="-571.1" y2="216.29" gradientTransform="translate(29339.45 11117.69) scale(51.28 -51.28)" gradientUnits="userSpaceOnUse">
      <stop offset="0" stop-color="#002b6a"/>
      <stop offset=".01" stop-color="#002b6a"/>
      <stop offset=".47" stop-color="#027cc6"/>
      <stop offset="1" stop-color="#002b6a"/>
    </linearGradient>
    <clipPath id="clippath-1">
      <path class="cls-5" d="m32.96,19.06c.11-.1.24-.19.38-.24.14-.06.29-.09.44-.09.15,0,.3.03.44.08.14.06.27.14.38.24.11.11.19.23.25.38.06.14.09.29.09.44s-.03.3-.09.45c-.06.14-.14.27-.25.38l-11.53,11.54c-.23.23-.5.34-.82.34h0c-.32,0-.59-.11-.82-.34-.05-.05-.09-.1-.13-.15l-4.74-5.64c-.1-.12-.17-.26-.22-.42-.04-.15-.05-.31-.03-.47.02-.16.07-.31.15-.44.08-.14.19-.25.32-.35.13-.09.27-.16.43-.19.16-.03.31-.04.47,0,.16.03.3.09.43.18.13.09.24.21.33.34l3.94,4.55,10.57-10.58Zm-10.09-7.38c-.92.18-1.81.45-2.67.81-.86.36-1.68.8-2.46,1.32-.78.52-1.5,1.11-2.16,1.77-.66.66-1.25,1.38-1.77,2.16-.52.78-.96,1.6-1.32,2.46-.36.86-.63,1.75-.81,2.67-.18.92-.28,1.84-.28,2.78,0,.93.09,1.86.27,2.78.18.92.45,1.81.81,2.67.36.86.8,1.69,1.32,2.46.52.78,1.11,1.5,1.77,2.16.66.66,1.38,1.25,2.16,1.77s1.6.96,2.46,1.32c.86.36,1.75.63,2.67.81.92.18,1.84.27,2.78.27.94,0,1.86-.09,2.78-.27.92-.18,1.81-.45,2.67-.81.86-.36,1.69-.8,2.46-1.32.78-.52,1.5-1.11,2.16-1.77.66-.66,1.25-1.38,1.77-2.16.52-.78.96-1.6,1.32-2.46.36-.86.63-1.75.81-2.67.18-.92.27-1.84.27-2.78,0-.93-.09-1.86-.28-2.78-.18-.92-.45-1.81-.81-2.67-.36-.86-.8-1.68-1.32-2.46-.52-.78-1.11-1.5-1.77-2.16-.66-.66-1.38-1.25-2.16-1.77-.78-.52-1.6-.96-2.46-1.32-.86-.36-1.75-.63-2.67-.81-.92-.18-1.84-.27-2.78-.28h0c-.93,0-1.86.09-2.78.27m1.16,30.4c-.54-.05-1.07-.13-1.6-.24-.53-.11-1.05-.24-1.57-.39-.52-.16-1.03-.34-1.53-.54-.5-.21-.99-.44-1.46-.69-.48-.25-.94-.53-1.39-.83-.45-.3-.88-.62-1.3-.96-.42-.34-.82-.71-1.2-1.09-.38-.38-.74-.78-1.09-1.2-.34-.42-.66-.85-.97-1.3-.3-.45-.58-.91-.83-1.39-.26-.48-.49-.96-.69-1.46-.21-.5-.39-1.01-.55-1.52-.16-.52-.29-1.04-.39-1.57-.11-.53-.18-1.06-.24-1.6-.05-.54-.08-1.08-.08-1.62s.03-1.08.08-1.62c.05-.54.13-1.07.24-1.6.11-.53.24-1.05.39-1.57s.34-1.03.55-1.52c.21-.5.44-.99.69-1.46.25-.48.53-.94.83-1.39.3-.45.62-.88.97-1.3.34-.42.71-.82,1.09-1.2.38-.38.78-.74,1.2-1.09.42-.34.85-.66,1.3-.96.45-.3.91-.58,1.39-.83.48-.26.97-.49,1.47-.69.5-.21,1.01-.39,1.53-.55.52-.16,1.04-.29,1.57-.39.53-.1,1.07-.18,1.6-.24.54-.05,1.08-.08,1.62-.08s1.08.03,1.62.08c.54.05,1.07.13,1.6.24.53.1,1.05.24,1.57.39.52.16,1.03.34,1.53.55.5.21.99.44,1.46.69.48.25.94.53,1.39.83.45.3.88.62,1.3.96.42.34.82.71,1.2,1.09.38.38.74.78,1.09,1.2.34.42.66.85.96,1.3.3.45.58.91.83,1.39.26.48.48.96.69,1.46.21.5.39,1.01.55,1.53.16.52.29,1.04.39,1.57.11.53.18,1.06.24,1.6.05.54.08,1.08.08,1.62s-.03,1.08-.08,1.62c-.05.54-.13,1.07-.24,1.6-.11.53-.24,1.05-.39,1.57-.16.52-.34,1.02-.55,1.52-.21.5-.44.99-.69,1.46-.26.48-.53.94-.83,1.39-.3.45-.62.88-.96,1.3-.34.42-.71.82-1.09,1.2-.38.38-.78.74-1.2,1.09-.42.34-.85.66-1.3.96-.45.3-.91.58-1.39.83-.48.25-.96.49-1.46.69-.5.21-1.01.39-1.52.55-.52.16-1.04.29-1.57.39-.53.11-1.06.19-1.6.24-.54.05-1.08.08-1.62.08h-.01c-.54,0-1.07-.03-1.6-.08M22.85,0v3.03c0,2.1-.96,2.87-2.49,3.43-1.53.56-3.07,1.19-4.55,1.88-1.55.73-2.68.85-4.17-.65-.65-.64-1.3-1.29-1.93-1.93l-.14-.14-3.98,3.97c.63.63,1.25,1.26,1.88,1.89,1.68,1.68,1.65,2.66.71,4.57-.65,1.34-1.22,2.72-1.71,4.13-.64,1.87-1.33,2.71-3.7,2.71H0v5.58h3.04c2.05,0,2.83.97,3.36,2.41.57,1.54,1.22,3.13,1.95,4.73.65,1.42.77,2.59-.63,4.02l-2.16,2.15,3.98,3.97c.69-.7,1.39-1.4,2.1-2.11,1.47-1.47,2.63-1.35,4.14-.63,1.44.67,2.99,1.3,4.59,1.89,1.53.56,2.47,1.33,2.47,3.45v2.96h5.6v-2.94c0-1.9.69-2.85,2.54-3.48,1.33-.42,2.62-.93,3.88-1.53,2.63-1.31,3.28-1.21,5.32.84.53.53,1.06,1.07,1.58,1.59l1.06-1.06c.98-.98,1.95-1.95,2.93-2.93l-.38-.38c-.62-.61-1.25-1.23-1.86-1.86-.28-.23-.51-.51-.69-.83-.18-.32-.29-.66-.35-1.02-.05-.36-.04-.72.04-1.08.08-.36.22-.69.43-.99.84-1.51,1.51-3.11,1.99-4.77.07-.36.21-.69.4-1.01.2-.31.44-.58.73-.8.29-.22.62-.38.97-.49.35-.1.71-.14,1.08-.11h3.17v-5.58h-2.94c-1.91-.02-2.82-.68-3.48-2.52-.52-1.44-1.14-2.95-1.85-4.49-.76-1.61-.87-2.72.68-4.27.68-.68,1.38-1.38,2.07-2.06l-3.97-3.98-.27.27c-.69.69-1.37,1.37-2.07,2.05-.22.26-.48.47-.77.63-.29.16-.61.27-.94.33-.33.05-.67.05-1-.02-.33-.07-.64-.19-.93-.36-1.64-.9-3.37-1.62-5.17-2.13-.33-.09-.64-.23-.92-.42-.28-.19-.52-.43-.72-.71-.2-.28-.35-.58-.44-.91-.09-.33-.13-.67-.1-1.01,0-.77,0-1.54,0-2.32v-.98h-5.59Z"/>
    </clipPath>
    <linearGradient id="Degradado_sin_nombre_78-2" data-name="Degradado sin nombre 78" x1="-572.1" y1="216.29" x2="-571.1" y2="216.29" gradientTransform="translate(29339.48 11117.7) scale(51.28 -51.28)" xlink:href="#Degradado_sin_nombre_78"/>
  </defs>
  <g id="Capa_1-2" data-name="Capa 1">
    <g>
      <g class="cls-4">
        <rect class="cls-1" y="0" width="51.28" height="51.31"/>
      </g>
      <g class="cls-2">
        <rect class="cls-3" width="51.28" height="51.31"/>
      </g>
    </g>
  </g>
</svg>