<?xml version="1.0" encoding="UTF-8"?>
<svg id="Capa_2" data-name="Capa 2" xmlns="http://www.w3.org/2000/svg" xmlns:xlink="http://www.w3.org/1999/xlink" viewBox="0 0 51.31 48.77">
  <defs>
    <style>
      .cls-1 {
        clip-path: url(#clippath-1);
      }

      .cls-2 {
        clip-path: url(#clippath);
      }

      .cls-3 {
        fill: none;
      }

      .cls-4 {
        fill: url(#Degradado_sin_nombre_76);
      }

      .cls-5 {
        fill: url(#Degradado_sin_nombre_76-2);
      }
    </style>
    <clipPath id="clippath">
      <path class="cls-3" d="m28.93,7.13c-.44.09-.86.23-1.25.44-.39.21-.75.48-1.06.79l-.05.05c-.9.81-1.21.8-2.1-.06-.41-.4-.87-.7-1.39-.93-.52-.22-1.06-.34-1.63-.37-.57-.02-1.12.06-1.65.24-.54.18-1.02.45-1.46.82-1.88,1.57-2.21,3.87-.88,6.18,2.02,3.51,5.09,6,8.08,8.25,2.78-2.08,5.64-4.44,7.73-7.59h0c.72-.98,1.12-2.08,1.2-3.29,0-.46-.07-.91-.2-1.35-.14-.44-.33-.85-.59-1.23-.26-.38-.57-.71-.93-1-.36-.29-.76-.51-1.18-.68-.41-.18-.84-.29-1.28-.34-.16-.02-.32-.02-.47-.02-.29,0-.57.03-.85.08M8.76,1.04c-.09.03-.17.07-.25.12.07.41.07.83,0,1.24l-1.86,11.69c.56-.17,1.12-.21,1.7-.12.34.06.66.16.97.3l1.8-11.21c.07-.49-.04-.94-.33-1.34l-.05-.08c-.29-.36-.67-.58-1.12-.65-.1-.02-.2-.02-.3-.02-.19,0-.37.03-.55.08m32.95-.06c-.46.07-.83.29-1.12.65l-.06.08c-.29.4-.4.85-.33,1.34l1.8,11.21c.31-.14.64-.24.98-.3.58-.09,1.14-.05,1.7.12l-1.87-11.69c-.06-.42-.06-.83.02-1.24-.08-.05-.17-.09-.26-.12-.18-.05-.37-.08-.55-.08-.1,0-.2,0-.3.02M3.72.29l-.08.06c-.4.29-.65.69-.73,1.18L.23,18.33c-.12.64-.19,1.29-.21,1.95-.02.48.03.95.16,1.42l7.37,18.27c.08.2.1.39.05.6l-.48,2.67,4.03,5.52,6.49-4.68,1.97-12.3c.07-.53-.07-1-.42-1.4h0s-9.98-13.68-9.98-13.68c-.27-.37-.63-.6-1.08-.7l-.1-.02c-.45-.08-.88,0-1.26.25l-.09.06c-.41.29-.65.69-.72,1.18-.08.49.03.94.32,1.34l6.89,9.44c.17.23.23.48.18.76-.04.28-.18.5-.41.66-.23.16-.48.23-.76.18-.28-.04-.5-.18-.67-.41l-6.89-9.44c-.63-.85-.85-1.81-.68-2.85.06-.33.16-.65.3-.95L6.5,2.09c.08-.49-.02-.94-.32-1.34l-.05-.07c-.29-.36-.66-.58-1.12-.65-.1-.01-.2-.02-.3-.02-.35,0-.67.1-.98.29M46.32.02c-.46.07-.83.29-1.12.65l-.05.07c-.3.4-.41.85-.32,1.34l2.25,14.11c.29.62.4,1.27.33,1.96-.07.68-.31,1.3-.72,1.85l-6.89,9.44c-.17.23-.39.36-.67.4-.28.04-.53-.01-.76-.18-.23-.16-.36-.38-.41-.66-.05-.28.02-.53.18-.75l6.89-9.44c.29-.4.4-.84.32-1.33-.07-.49-.32-.89-.72-1.18l-.09-.06c-.39-.25-.81-.33-1.26-.25h-.1c-.45.11-.81.34-1.08.72l-9.98,13.68c-.36.4-.5.87-.42,1.41l1.97,12.3,6.49,4.68,4.03-5.52-.48-2.67c-.05-.2-.03-.4.05-.6l7.37-18.27c.13-.46.18-.94.16-1.42-.02-.66-.08-1.31-.2-1.95l-2.68-16.81c-.08-.49-.32-.88-.73-1.17l-.08-.06c-.31-.19-.63-.29-.98-.29-.1,0-.19,0-.3.02"/>
    </clipPath>
    <linearGradient id="Degradado_sin_nombre_76" data-name="Degradado sin nombre 76" x1="-493.35" y1="215.12" x2="-492.35" y2="215.12" gradientTransform="translate(25294.63 11053.62) scale(51.27 -51.27)" gradientUnits="userSpaceOnUse">
      <stop offset="0" stop-color="#002b6a"/>
      <stop offset=".01" stop-color="#002b6a"/>
      <stop offset=".47" stop-color="#027cc6"/>
      <stop offset="1" stop-color="#002b6a"/>
    </linearGradient>
    <clipPath id="clippath-1">
      <path class="cls-3" d="m28.93,7.13c-.44.09-.86.23-1.25.44-.39.21-.75.48-1.06.79l-.05.05c-.9.81-1.21.8-2.1-.06-.41-.4-.87-.7-1.39-.93-.52-.22-1.06-.34-1.63-.37-.57-.02-1.12.06-1.65.24-.54.18-1.02.45-1.46.82-1.88,1.57-2.21,3.87-.88,6.18,2.02,3.51,5.09,6,8.08,8.25,2.78-2.08,5.64-4.44,7.73-7.59h0c.72-.98,1.12-2.08,1.2-3.29,0-.46-.07-.91-.2-1.35-.14-.44-.33-.85-.59-1.23-.26-.38-.57-.71-.93-1-.36-.29-.76-.51-1.18-.68-.41-.18-.84-.29-1.28-.34-.16-.02-.32-.02-.47-.02-.29,0-.57.03-.85.08M8.76,1.04c-.09.03-.17.07-.25.12.07.41.07.83,0,1.24l-1.86,11.69c.56-.17,1.12-.21,1.7-.12.34.06.66.16.97.3l1.8-11.21c.07-.49-.04-.94-.33-1.34l-.05-.08c-.29-.36-.67-.58-1.12-.65-.1-.02-.2-.02-.3-.02-.19,0-.37.03-.55.08m32.95-.06c-.46.07-.83.29-1.12.65l-.06.08c-.29.4-.4.85-.33,1.34l1.8,11.21c.31-.14.64-.24.98-.3.58-.09,1.14-.05,1.7.12l-1.87-11.69c-.06-.42-.06-.83.02-1.24-.08-.05-.17-.09-.26-.12-.18-.05-.37-.08-.55-.08-.1,0-.2,0-.3.02M3.72.29l-.08.06c-.4.29-.65.69-.73,1.18L.23,18.33c-.12.64-.19,1.29-.21,1.95-.02.48.03.95.16,1.42l7.37,18.27c.08.2.1.4.05.6l-.48,2.67,4.03,5.52,6.49-4.68,1.97-12.3c.07-.53-.07-1-.42-1.4h0s-9.98-13.68-9.98-13.68c-.27-.37-.63-.6-1.08-.7l-.1-.02c-.45-.08-.88,0-1.26.25l-.09.06c-.41.29-.65.69-.72,1.18-.08.49.03.94.32,1.34l6.89,9.44c.17.23.23.48.18.76-.04.28-.18.5-.41.66-.23.16-.48.23-.76.18-.28-.04-.5-.18-.67-.41l-6.89-9.44c-.63-.85-.85-1.81-.68-2.85.06-.33.16-.65.3-.95L6.5,2.09c.08-.49-.02-.94-.32-1.34l-.05-.07c-.29-.36-.66-.58-1.12-.65-.1-.01-.2-.02-.3-.02-.35,0-.67.1-.98.29M46.32.02c-.46.07-.83.29-1.12.65l-.05.07c-.3.4-.41.85-.32,1.34l2.25,14.11c.29.62.4,1.27.33,1.96-.07.68-.31,1.3-.72,1.85l-6.89,9.44c-.17.23-.39.36-.67.4-.28.04-.53-.01-.76-.18-.23-.16-.36-.38-.41-.66-.05-.28.02-.53.18-.75l6.89-9.44c.29-.4.4-.84.32-1.33-.07-.49-.32-.89-.72-1.18l-.09-.06c-.39-.25-.81-.33-1.26-.25h-.1c-.45.11-.81.34-1.08.72l-9.98,13.68c-.36.4-.5.87-.42,1.41l1.97,12.3,6.49,4.68,4.03-5.52-.48-2.67c-.05-.2-.03-.4.05-.6l7.37-18.27c.13-.46.18-.94.16-1.42-.02-.66-.08-1.31-.2-1.95l-2.68-16.81c-.08-.49-.32-.88-.73-1.17l-.08-.06c-.31-.19-.63-.29-.98-.29-.1,0-.19,0-.3.02"/>
    </clipPath>
    <linearGradient id="Degradado_sin_nombre_76-2" data-name="Degradado sin nombre 76" x1="-493.35" y1="215.12" x2="-492.35" y2="215.12" gradientTransform="translate(25312.81 11061.56) scale(51.31 -51.31)" xlink:href="#Degradado_sin_nombre_76"/>
  </defs>
  <g id="Capa_1-2" data-name="Capa 1">
    <g>
      <g class="cls-2">
        <rect class="cls-4" y="0" width="51.31" height="48.77"/>
      </g>
      <g class="cls-1">
        <rect class="cls-5" width="51.31" height="48.77"/>
      </g>
    </g>
  </g>
</svg>