<?xml version="1.0" encoding="UTF-8"?>
<svg id="Capa_2" data-name="Capa 2" xmlns="http://www.w3.org/2000/svg" xmlns:xlink="http://www.w3.org/1999/xlink" viewBox="0 0 41.09 52.65">
  <defs>
    <style>
      .cls-1 {
        fill: url(#Degradado_sin_nombre_70);
      }

      .cls-2 {
        clip-path: url(#clippath-1);
      }

      .cls-3 {
        clip-path: url(#clippath);
      }

      .cls-4 {
        fill: none;
      }

      .cls-5 {
        fill: url(#Degradado_sin_nombre_70-2);
      }
    </style>
    <clipPath id="clippath">
      <path class="cls-4" d="m19.8,26.3c-.42-.04-.82-.12-1.22-.25-.4-.12-.78-.28-1.15-.48-.37-.2-.71-.43-1.03-.7-.32-.27-.6-.57-.86-.89-.26-.33-.48-.68-.67-1.05-.19-.37-.33-.76-.44-1.16-.11-.4-.17-.81-.2-1.22-.02-.41,0-.83.05-1.24.06-.41.16-.81.3-1.2.14-.39.32-.76.54-1.11.22-.35.47-.68.76-.98.29-.3.6-.57.94-.81.34-.24.7-.44,1.08-.61.38-.17.78-.29,1.19-.38.41-.09.82-.13,1.24-.14.59-.03,1.18.03,1.75.18.58.15,1.12.37,1.62.68.51.31.96.68,1.35,1.12.39.44.71.93.96,1.47.56,1.12.77,2.31.63,3.56h0c-.23,1.19-.73,2.25-1.51,3.19-.18.25-.37.5-.58.73-.51-.91-.93-1.67-1.26-2.27,1.33-1.74,1.3-3.71.02-5.08-.31-.34-.67-.62-1.07-.83-.41-.21-.84-.35-1.3-.41-.46-.06-.91-.04-1.36.06-.45.1-.87.28-1.25.53-.39.25-.72.56-.99.93-.27.37-.48.77-.61,1.21-.13.44-.18.89-.14,1.34.03.46.15.89.34,1.31.17.39.41.73.71,1.04.3.3.64.55,1.03.73.39.18.79.3,1.22.34.43.04.85,0,1.26-.1,0,0,0,0,0,.02l1.23,2.32c-.36.03-.8.09-1.35.16-.22.02-.43.03-.64.03-.2,0-.4-.01-.6-.03m-12.59-.93c-.31-.79-.55-1.6-.71-2.43-.16-.83-.25-1.67-.26-2.51-.01-.85.05-1.69.2-2.52.14-.83.36-1.65.65-2.45.29-.8.65-1.56,1.08-2.29.43-.73.92-1.42,1.47-2.07.55-.65,1.16-1.24,1.82-1.77.66-.54,1.36-1.01,2.11-1.42.74-.41,1.52-.75,2.33-1.03.81-.27,1.63-.47,2.48-.6.84-.13,1.69-.18,2.54-.15.85.03,1.7.13,2.53.3.83.18,1.65.43,2.44.75.79.32,1.54.71,2.26,1.16.72.45,1.39.97,2.02,1.55.62.58,1.19,1.2,1.71,1.88,1.05,1.36,1.82,2.86,2.31,4.51.48,1.65.65,3.33.49,5.04-.07,1.06-.26,2.1-.58,3.11-.31,1.02-.74,1.99-1.27,2.91-.54.92-1.17,1.77-1.91,2.54-.73.77-1.54,1.46-2.44,2.04-.42-.74-.83-1.46-1.21-2.14,4.94-3.04,6.57-10.06,3.61-15.26-.38-.67-.82-1.3-1.32-1.88s-1.05-1.12-1.65-1.6c-.61-.48-1.25-.9-1.94-1.25-.69-.35-1.4-.64-2.14-.86-.74-.22-1.5-.36-2.27-.43-.77-.07-1.54-.07-2.31.01-.77.08-1.52.23-2.26.45-.74.22-1.45.52-2.13.88-.68.36-1.32.78-1.91,1.26-.6.48-1.14,1.02-1.63,1.6-.49.59-.92,1.22-1.28,1.89-.37.67-.66,1.37-.89,2.1-.23.73-.38,1.47-.46,2.23-.08.76-.09,1.52-.02,2.28s.21,1.51.42,2.24c.22.73.5,1.44.85,2.11,2.77,5.34,9.7,7.93,15.06,5.43.41.78.83,1.56,1.24,2.34-.08,0-.16-.02-.24-.02-1.88.68-3.72.99-5.46.99-6.16,0-11.23-3.85-13.29-8.93M10.07,2.8c-.58.34-1.15.7-1.7,1.09-.55.39-1.07.81-1.58,1.26-.5.44-.99.91-1.44,1.41-.46.49-.89,1.01-1.29,1.54-.41.54-.78,1.09-1.13,1.66-.35.57-.67,1.16-.96,1.76-.29.6-.55,1.22-.78,1.85-.23.63-.42,1.27-.59,1.92-.16.65-.29,1.31-.39,1.97-.1.66-.16,1.33-.19,2-.03.67-.03,1.34.01,2.01.04.67.11,1.33.21,2,.1.66.24,1.32.41,1.96.17.65.37,1.28.61,1.91.24.63.5,1.24.8,1.84.3.6.62,1.19.98,1.75,5.86,9.56,17.81,11.83,25.77,7.81.03-.03.06-.05.08-.09.64,1.2,1.26,2.39,1.89,3.59.02.13.03.27.02.41-.02.24-.08.47-.18.69-.36.92-.64,1.86-.84,2.82-.1.43-.06.85.11,1.25.74,1.46,1.51,2.91,2.39,4.29.31.49,1.01,1.13,1.4,1.06.47-.09.94-.82,1.19-1.37.35-.89.63-1.81.86-2.73,1.35.33,2.51.67,3.68.86,1.11.18,1.65-.55,1.21-1.57-.29-.68-.75-1.29-.99-1.97-.44-1.33-1.2-2.44-2.29-3.33-.76-.58-1.24-.34-3.16-1.3-.35-.17-.64-.34-.82-.44-.68-1.21-1.33-2.37-1.96-3.5.54-.34,1.07-.7,1.58-1.08.51-.39,1-.79,1.47-1.23.47-.43.91-.88,1.34-1.36.43-.47.83-.97,1.21-1.48.38-.51.73-1.04,1.06-1.59.33-.55.63-1.11.9-1.68.27-.57.52-1.16.74-1.76.22-.6.4-1.2.57-1.82.16-.61.29-1.24.39-1.86.1-.63.17-1.26.21-1.89.04-.63.05-1.27.03-1.9-.02-.64-.07-1.27-.16-1.9-.08-.63-.19-1.25-.34-1.87-.14-.62-.31-1.23-.52-1.83-.2-.6-.43-1.19-.69-1.77-.26-.58-.54-1.15-.86-1.7C34.64,3.75,27.76,0,20.57,0c-3.54,0-7.15.9-10.5,2.8"/>
    </clipPath>
    <linearGradient id="Degradado_sin_nombre_70" data-name="Degradado sin nombre 70" x1="-569.11" y1="144.06" x2="-568.11" y2="144.06" gradientTransform="translate(23276.07 5918.35) scale(40.9 -40.9)" gradientUnits="userSpaceOnUse">
      <stop offset="0" stop-color="#002b6a"/>
      <stop offset=".01" stop-color="#002b6a"/>
      <stop offset=".47" stop-color="#027cc6"/>
      <stop offset="1" stop-color="#002b6a"/>
    </linearGradient>
    <clipPath id="clippath-1">
      <path class="cls-4" d="m19.8,26.3c-.42-.04-.82-.12-1.22-.25-.4-.12-.78-.28-1.15-.48-.37-.2-.71-.43-1.03-.7-.32-.27-.6-.57-.86-.89-.26-.33-.48-.68-.67-1.05-.19-.37-.33-.76-.44-1.16-.11-.4-.17-.81-.2-1.22-.02-.41,0-.83.05-1.24.06-.41.16-.81.3-1.2.14-.39.32-.76.54-1.11.22-.35.47-.68.76-.98.29-.3.6-.57.94-.81.34-.24.7-.44,1.08-.61.38-.17.78-.29,1.19-.38.41-.09.82-.13,1.24-.14.59-.03,1.18.03,1.75.18.58.15,1.12.37,1.62.68.51.31.96.68,1.35,1.12.39.44.71.93.96,1.47.56,1.12.77,2.31.63,3.56h0c-.23,1.19-.73,2.25-1.51,3.19-.18.25-.37.5-.58.73-.51-.91-.93-1.67-1.26-2.27,1.33-1.74,1.3-3.71.02-5.08-.31-.34-.67-.62-1.07-.83-.41-.21-.84-.35-1.3-.41-.46-.06-.91-.04-1.36.06-.45.1-.87.28-1.25.53-.39.25-.72.56-.99.93-.27.37-.48.77-.61,1.21-.13.44-.18.89-.14,1.34.03.46.15.89.34,1.31.17.39.41.73.71,1.04.3.3.64.55,1.03.73.39.18.79.3,1.22.34.43.04.85,0,1.26-.1,0,0,0,0,0,.02l1.23,2.32c-.36.03-.8.09-1.35.16-.22.02-.43.03-.64.03-.2,0-.4-.01-.6-.03m-12.59-.93c-.31-.79-.55-1.6-.71-2.43-.16-.83-.25-1.67-.26-2.51-.01-.85.05-1.69.2-2.52.14-.83.36-1.65.65-2.45.29-.8.65-1.56,1.08-2.29.43-.73.92-1.42,1.47-2.07.55-.65,1.16-1.24,1.82-1.77.66-.54,1.36-1.01,2.11-1.42.74-.41,1.52-.75,2.33-1.03.81-.27,1.63-.47,2.48-.6.84-.13,1.69-.18,2.54-.15.85.03,1.7.13,2.53.3.83.18,1.65.43,2.44.75.79.32,1.54.71,2.26,1.16.72.45,1.39.97,2.02,1.55.62.58,1.19,1.2,1.71,1.88,1.05,1.36,1.82,2.86,2.31,4.51.48,1.65.65,3.33.49,5.04-.07,1.06-.26,2.1-.58,3.11-.31,1.02-.74,1.99-1.27,2.91-.54.92-1.17,1.77-1.91,2.54-.73.77-1.54,1.46-2.44,2.04-.42-.74-.83-1.46-1.21-2.14,4.94-3.04,6.57-10.06,3.61-15.26-.38-.67-.82-1.3-1.32-1.88s-1.05-1.12-1.65-1.6c-.61-.48-1.25-.9-1.94-1.25-.69-.35-1.4-.64-2.14-.86-.74-.22-1.5-.36-2.27-.43-.77-.07-1.54-.07-2.31.01-.77.08-1.52.23-2.26.45-.74.22-1.45.52-2.13.88-.68.36-1.32.78-1.91,1.26-.6.48-1.14,1.02-1.63,1.6-.49.59-.92,1.22-1.28,1.89-.37.67-.66,1.37-.89,2.1-.23.73-.38,1.47-.46,2.23-.08.76-.09,1.52-.02,2.28s.21,1.51.42,2.24c.22.73.5,1.44.85,2.11,2.77,5.34,9.7,7.93,15.06,5.43.41.78.83,1.56,1.24,2.34-.08,0-.16-.02-.24-.02-1.88.68-3.72.99-5.46.99-6.16,0-11.23-3.85-13.29-8.93M10.07,2.8c-.58.34-1.15.7-1.7,1.09-.55.39-1.07.81-1.58,1.26-.5.44-.99.91-1.44,1.41-.46.49-.89,1.01-1.29,1.54-.41.54-.78,1.09-1.13,1.66-.35.57-.67,1.16-.96,1.76-.29.6-.55,1.22-.78,1.85-.23.63-.42,1.27-.59,1.92-.16.65-.29,1.31-.39,1.97-.1.66-.16,1.33-.19,2-.03.67-.03,1.34.01,2.01.04.67.11,1.33.21,2,.1.66.24,1.32.41,1.96.17.65.37,1.28.61,1.91.24.63.5,1.24.8,1.84.3.6.62,1.19.98,1.75,5.86,9.56,17.81,11.83,25.77,7.81.03-.03.06-.05.08-.09.64,1.2,1.26,2.39,1.89,3.59.02.13.03.27.02.41-.02.24-.08.47-.18.69-.36.92-.64,1.86-.84,2.82-.1.43-.06.85.11,1.25.74,1.46,1.51,2.91,2.39,4.29.31.49,1.01,1.13,1.4,1.06.47-.09.94-.82,1.19-1.37.35-.89.63-1.81.86-2.73,1.35.33,2.51.67,3.68.86,1.11.18,1.65-.55,1.21-1.57-.29-.68-.75-1.29-.99-1.97-.44-1.33-1.2-2.44-2.29-3.33-.76-.58-1.24-.34-3.16-1.3-.35-.17-.64-.34-.82-.44-.68-1.21-1.33-2.37-1.96-3.5.54-.34,1.07-.7,1.58-1.08.51-.39,1-.79,1.47-1.23.47-.43.91-.88,1.34-1.36.43-.47.83-.97,1.21-1.48.38-.51.73-1.04,1.06-1.59.33-.55.63-1.11.9-1.68.27-.57.52-1.16.74-1.76.22-.6.4-1.2.57-1.82.16-.61.29-1.24.39-1.86.1-.63.17-1.26.21-1.89.04-.63.05-1.27.03-1.9-.02-.64-.07-1.27-.16-1.9-.08-.63-.19-1.25-.34-1.87-.14-.62-.31-1.23-.52-1.83-.2-.6-.43-1.19-.69-1.77-.26-.58-.54-1.15-.86-1.7C34.64,3.75,27.76,0,20.57,0c-3.54,0-7.15.9-10.5,2.8"/>
    </clipPath>
    <linearGradient id="Degradado_sin_nombre_70-2" data-name="Degradado sin nombre 70" x1="-569.11" y1="144.06" x2="-568.11" y2="144.06" gradientTransform="translate(23384.52 5945.84) scale(41.09 -41.09)" xlink:href="#Degradado_sin_nombre_70"/>
  </defs>
  <g id="Capa_1-2" data-name="Capa 1">
    <g>
      <g class="cls-3">
        <rect class="cls-1" width="41.09" height="52.65"/>
      </g>
      <g class="cls-2">
        <rect class="cls-5" width="41.09" height="52.65"/>
      </g>
    </g>
  </g>
</svg>