<?xml version="1.0" encoding="UTF-8"?>
<svg id="Capa_2" data-name="Capa 2" xmlns="http://www.w3.org/2000/svg" xmlns:xlink="http://www.w3.org/1999/xlink" viewBox="0 0 41.07 54.35">
  <defs>
    <style>
      .cls-1 {
        clip-path: url(#clippath-1);
      }

      .cls-2 {
        fill: url(#Degradado_sin_nombre_80);
      }

      .cls-3 {
        clip-path: url(#clippath);
      }

      .cls-4 {
        fill: none;
      }

      .cls-5 {
        fill: url(#Degradado_sin_nombre_80-2);
      }
    </style>
    <clipPath id="clippath">
      <path class="cls-4" d="m16.88,47.84c-.28,0-.51.1-.71.29-.2.19-.29.43-.29.71v4.51c0,.28.1.51.29.71.2.19.43.29.71.29h7.34c.28,0,.51-.1.71-.29.19-.2.29-.43.29-.71v-4.51c0-.27-.1-.51-.29-.7-.2-.19-.43-.29-.71-.29h-7.34Zm19.01-16.78c-.33.09-.57.28-.73.58-.08.15-.13.32-.15.49-.02.17,0,.34.06.51.05.17.14.32.26.45.12.13.25.24.41.31,1.06.61,2.13,1.23,3.2,1.84.14.07.29.13.44.18l.17.06h.09c.29.01.56-.07.79-.24.23-.17.39-.4.46-.68.09-.28.07-.55-.04-.82-.11-.27-.29-.47-.55-.61-1.1-.64-2.21-1.27-3.33-1.9-.23-.15-.48-.22-.74-.22-.12,0-.24.01-.36.05m-31.15-.06h-.14c-.12.02-.24.05-.35.11l-.63.36c-1.03.58-2.06,1.16-3.07,1.77-.26.18-.42.42-.49.73-.07.31-.02.59.15.86.23.43.59.65,1.08.66.19,0,.36-.04.53-.13,1.17-.64,2.36-1.32,3.67-2.1.24-.15.4-.35.48-.61.09-.26.08-.52-.03-.78-.08-.26-.23-.47-.45-.63-.22-.16-.46-.24-.72-.24h-.02Zm15.9-19.7c-.38,0-.76.02-1.14.05-5.07.46-8.7,3.15-10.48,7.87-1.79,4.77-.75,9.11,2.76,12.84.37.4.76.79,1.11,1.23,1.86,2.55,2.94,5.4,3.23,8.53.14.98.2,1.96.3,2.93l8.18.02c.02-.26.02-.51.06-.76.21-1.53.34-3.09.67-4.6.28-1.45.77-2.83,1.48-4.13.71-1.3,1.6-2.47,2.67-3.5,1.06-1.05,1.85-2.26,2.39-3.65,3.33-8.06-2.71-16.84-11.23-16.84h0m18.35-.1c-1.11.62-2.23,1.26-3.33,1.91-.15.08-.27.19-.38.32-.1.13-.18.28-.23.44-.05.16-.06.32-.04.49.02.17.07.32.15.47.23.43.59.64,1.08.64.24,0,.45-.06.66-.18,1.11-.61,2.28-1.28,3.42-1.97.22-.15.39-.34.51-.57.04-.08.09-.14.14-.21l.1-.12-.02-.15c-.04-.51-.29-.88-.75-1.12-.21-.1-.41-.15-.61-.15-.23,0-.47.07-.69.2m-38.27-.06c-.46.28-.68.69-.68,1.22v.11l.05.1s.03.05.04.08c.09.25.23.45.45.6,1.14.7,2.32,1.38,3.62,2.08.17.1.35.15.55.14.11,0,.22-.01.33-.04.34-.11.6-.32.76-.64.08-.13.13-.28.15-.43.02-.15.01-.31-.03-.46-.04-.15-.1-.29-.2-.41-.09-.13-.2-.23-.34-.31-1.07-.63-2.32-1.36-3.58-2.04-.19-.1-.38-.16-.56-.16s-.38.06-.57.17M20.5,0c-.17,0-.34.04-.5.1-.16.07-.3.17-.42.29-.12.12-.21.27-.27.43-.06.16-.08.33-.07.5,0,1.26-.02,2.5,0,3.76-.02.17,0,.34.06.5.06.16.14.31.26.44.12.13.26.23.42.3.16.07.33.1.5.1h.03c.33,0,.62-.1.86-.33.27-.28.41-.61.4-1,0-.44,0-.88,0-1.32v-.85s0-.29,0-.29c0-.44,0-.88,0-1.32.01-.17-.02-.34-.08-.5-.06-.16-.15-.3-.27-.43s-.26-.22-.42-.29c-.16-.07-.32-.1-.5-.1h0Z"/>
    </clipPath>
    <linearGradient id="Degradado_sin_nombre_80" data-name="Degradado sin nombre 80" x1="-650.93" y1="218.02" x2="-649.93" y2="218.02" gradientTransform="translate(26707.93 8972.53) scale(41.03 -41.03)" gradientUnits="userSpaceOnUse">
      <stop offset="0" stop-color="#002b6a"/>
      <stop offset=".01" stop-color="#002b6a"/>
      <stop offset=".47" stop-color="#027cc6"/>
      <stop offset="1" stop-color="#002b6a"/>
    </linearGradient>
    <clipPath id="clippath-1">
      <path class="cls-4" d="m16.88,47.84c-.28,0-.51.1-.71.29-.2.19-.29.43-.29.71v4.51c0,.28.1.51.29.71.2.19.43.29.71.29h7.34c.28,0,.51-.1.71-.29.19-.2.29-.43.29-.71v-4.51c0-.27-.1-.51-.29-.7-.2-.19-.43-.29-.71-.29h-7.34Zm19.01-16.78c-.33.09-.57.28-.73.58-.08.15-.13.32-.15.49-.02.17,0,.34.06.51.05.17.14.32.26.45.12.13.25.24.41.31,1.06.61,2.13,1.23,3.2,1.84.14.07.29.13.44.18l.17.06h.09c.29.01.56-.07.79-.24.23-.17.39-.4.46-.68.09-.28.07-.55-.04-.82-.11-.27-.29-.47-.55-.61-1.1-.64-2.21-1.27-3.33-1.9-.23-.15-.48-.22-.74-.22-.12,0-.24.01-.36.05m-31.15-.06h-.14c-.12.02-.24.05-.35.11l-.63.36c-1.03.58-2.06,1.16-3.07,1.77-.26.18-.42.42-.49.73-.07.31-.02.59.15.86.23.43.59.65,1.08.66.19,0,.36-.04.53-.13,1.17-.64,2.36-1.32,3.67-2.1.24-.15.4-.35.48-.61.09-.26.08-.52-.03-.78-.08-.26-.23-.47-.45-.63-.22-.16-.46-.24-.72-.24h-.02Zm15.9-19.7c-.38,0-.76.02-1.14.05-5.07.46-8.7,3.15-10.48,7.87-1.79,4.77-.75,9.11,2.76,12.84.37.4.76.79,1.11,1.23,1.86,2.55,2.94,5.4,3.23,8.53.14.98.2,1.96.3,2.93l8.18.02c.02-.26.02-.51.06-.76.21-1.53.34-3.09.67-4.6.28-1.45.77-2.83,1.48-4.13.71-1.3,1.6-2.47,2.67-3.5,1.06-1.05,1.85-2.26,2.39-3.65,3.33-8.06-2.71-16.84-11.23-16.84m18.35-.1c-1.11.62-2.23,1.26-3.33,1.91-.15.08-.27.19-.38.32-.1.13-.18.28-.23.44-.05.16-.06.32-.04.49.02.17.07.32.15.47.23.43.59.64,1.08.64.24,0,.45-.06.66-.18,1.11-.61,2.28-1.28,3.42-1.97.22-.15.39-.34.51-.57.04-.08.09-.14.14-.21l.1-.12-.02-.15c-.04-.51-.29-.88-.75-1.12-.21-.1-.41-.15-.61-.15-.23,0-.47.07-.69.2m-38.27-.06c-.46.28-.68.69-.68,1.22v.11l.05.1s.03.05.04.08c.09.25.23.45.45.6,1.14.7,2.32,1.38,3.62,2.08.17.1.35.15.55.14.11,0,.22-.01.33-.04.34-.11.6-.32.76-.64.08-.13.13-.28.15-.43.02-.15.01-.31-.03-.46-.04-.15-.1-.29-.2-.41-.09-.13-.2-.23-.34-.31-1.07-.63-2.32-1.36-3.58-2.04-.19-.1-.38-.16-.56-.16s-.38.06-.57.17M20.5,0c-.17,0-.34.04-.5.1-.16.07-.3.17-.42.29-.12.12-.21.27-.27.43-.06.16-.08.33-.07.5,0,1.26-.02,2.5,0,3.76-.02.17,0,.34.06.5.06.16.14.31.26.44.12.13.26.23.42.3.16.07.33.1.5.1h.03c.33,0,.62-.1.86-.33.27-.28.41-.61.4-1,0-.44,0-.88,0-1.32v-.85s0-.29,0-.29c0-.44,0-.88,0-1.32.01-.17-.02-.34-.08-.5-.06-.16-.15-.3-.27-.43s-.26-.22-.42-.29c-.16-.07-.32-.1-.5-.1h0Z"/>
    </clipPath>
    <linearGradient id="Degradado_sin_nombre_80-2" data-name="Degradado sin nombre 80" x1="-650.93" y1="218.02" x2="-649.93" y2="218.02" gradientTransform="translate(26732.3 8980.71) scale(41.07 -41.07)" xlink:href="#Degradado_sin_nombre_80"/>
  </defs>
  <g id="Capa_1-2" data-name="Capa 1">
    <g>
      <g class="cls-3">
        <rect class="cls-2" y="0" width="41.07" height="54.35"/>
      </g>
      <g class="cls-1">
        <rect class="cls-5" width="41.07" height="54.35"/>
      </g>
    </g>
  </g>
</svg>